<?xml version="1.0" encoding="utf-8" standalone="no"?>
<!DOCTYPE svg PUBLIC "-//W3C//DTD SVG 1.1//EN"
  "http://www.w3.org/Graphics/SVG/1.1/DTD/svg11.dtd">
<!-- Created with matplotlib (https://matplotlib.org/) -->
<svg height="1020.470825pt" version="1.1" viewBox="0 0 1177.163244 1020.470825" width="1177.163244pt" xmlns="http://www.w3.org/2000/svg" xmlns:xlink="http://www.w3.org/1999/xlink">
 <defs>
  <style type="text/css">
*{stroke-linecap:butt;stroke-linejoin:round;}
  </style>
 </defs>
 <g id="figure_1">
  <g id="patch_1">
   <path d="M 0 1020.470825 
L 1177.163244 1020.470825 
L 1177.163244 0 
L 0 0 
z
" style="fill:none;"/>
  </g>
  <g id="axes_1">
   <g id="patch_2">
    <path d="M 283.588813 869.76 
L 1176.388813 869.76 
L 1176.388813 -0 
L 283.588813 -0 
z
" style="fill:none;"/>
   </g>
   <g id="matplotlib.axis_1">
    <g id="xtick_1">
     <g id="line2d_1">
      <defs>
       <path d="M 0 0 
L 0 -11.52 
" id="m3cb78a82cf" style="stroke:#231f20;stroke-width:5;"/>
      </defs>
      <g>
       <use style="fill:#231f20;stroke:#231f20;stroke-width:5;" x="324.170631" xlink:href="#m3cb78a82cf" y="869.76"/>
      </g>
     </g>
     <g id="text_1">
      <!-- 0 -->
      <defs>
       <path d="M 31.78125 66.40625 
Q 24.171875 66.40625 20.328125 58.90625 
Q 16.5 51.421875 16.5 36.375 
Q 16.5 21.390625 20.328125 13.890625 
Q 24.171875 6.390625 31.78125 6.390625 
Q 39.453125 6.390625 43.28125 13.890625 
Q 47.125 21.390625 47.125 36.375 
Q 47.125 51.421875 43.28125 58.90625 
Q 39.453125 66.40625 31.78125 66.40625 
z
M 31.78125 74.21875 
Q 44.046875 74.21875 50.515625 64.515625 
Q 56.984375 54.828125 56.984375 36.375 
Q 56.984375 17.96875 50.515625 8.265625 
Q 44.046875 -1.421875 31.78125 -1.421875 
Q 19.53125 -1.421875 13.0625 8.265625 
Q 6.59375 17.96875 6.59375 36.375 
Q 6.59375 54.828125 13.0625 64.515625 
Q 19.53125 74.21875 31.78125 74.21875 
z
" id="DejaVuSans-48"/>
      </defs>
      <g transform="translate(303.492506 940.045044)scale(0.65 -0.65)">
       <use xlink:href="#DejaVuSans-48"/>
      </g>
     </g>
    </g>
    <g id="xtick_2">
     <g id="line2d_2">
      <g>
       <use style="fill:#231f20;stroke:#231f20;stroke-width:5;" x="486.497903" xlink:href="#m3cb78a82cf" y="869.76"/>
      </g>
     </g>
     <g id="text_2">
      <!-- 5 -->
      <defs>
       <path d="M 10.796875 72.90625 
L 49.515625 72.90625 
L 49.515625 64.59375 
L 19.828125 64.59375 
L 19.828125 46.734375 
Q 21.96875 47.46875 24.109375 47.828125 
Q 26.265625 48.1875 28.421875 48.1875 
Q 40.625 48.1875 47.75 41.5 
Q 54.890625 34.8125 54.890625 23.390625 
Q 54.890625 11.625 47.5625 5.09375 
Q 40.234375 -1.421875 26.90625 -1.421875 
Q 22.3125 -1.421875 17.546875 -0.640625 
Q 12.796875 0.140625 7.71875 1.703125 
L 7.71875 11.625 
Q 12.109375 9.234375 16.796875 8.0625 
Q 21.484375 6.890625 26.703125 6.890625 
Q 35.15625 6.890625 40.078125 11.328125 
Q 45.015625 15.765625 45.015625 23.390625 
Q 45.015625 31 40.078125 35.4375 
Q 35.15625 39.890625 26.703125 39.890625 
Q 22.75 39.890625 18.8125 39.015625 
Q 14.890625 38.140625 10.796875 36.28125 
z
" id="DejaVuSans-53"/>
      </defs>
      <g transform="translate(465.819778 940.045044)scale(0.65 -0.65)">
       <use xlink:href="#DejaVuSans-53"/>
      </g>
     </g>
    </g>
    <g id="xtick_3">
     <g id="line2d_3">
      <g>
       <use style="fill:#231f20;stroke:#231f20;stroke-width:5;" x="648.825176" xlink:href="#m3cb78a82cf" y="869.76"/>
      </g>
     </g>
     <g id="text_3">
      <!-- 10 -->
      <defs>
       <path d="M 12.40625 8.296875 
L 28.515625 8.296875 
L 28.515625 63.921875 
L 10.984375 60.40625 
L 10.984375 69.390625 
L 28.421875 72.90625 
L 38.28125 72.90625 
L 38.28125 8.296875 
L 54.390625 8.296875 
L 54.390625 0 
L 12.40625 0 
z
" id="DejaVuSans-49"/>
      </defs>
      <g transform="translate(607.468926 940.045044)scale(0.65 -0.65)">
       <use xlink:href="#DejaVuSans-49"/>
       <use x="63.623047" xlink:href="#DejaVuSans-48"/>
      </g>
     </g>
    </g>
    <g id="xtick_4">
     <g id="line2d_4">
      <g>
       <use style="fill:#231f20;stroke:#231f20;stroke-width:5;" x="811.152449" xlink:href="#m3cb78a82cf" y="869.76"/>
      </g>
     </g>
     <g id="text_4">
      <!-- 15 -->
      <g transform="translate(769.796199 940.045044)scale(0.65 -0.65)">
       <use xlink:href="#DejaVuSans-49"/>
       <use x="63.623047" xlink:href="#DejaVuSans-53"/>
      </g>
     </g>
    </g>
    <g id="xtick_5">
     <g id="line2d_5">
      <g>
       <use style="fill:#231f20;stroke:#231f20;stroke-width:5;" x="973.479722" xlink:href="#m3cb78a82cf" y="869.76"/>
      </g>
     </g>
     <g id="text_5">
      <!-- 20 -->
      <defs>
       <path d="M 19.1875 8.296875 
L 53.609375 8.296875 
L 53.609375 0 
L 7.328125 0 
L 7.328125 8.296875 
Q 12.9375 14.109375 22.625 23.890625 
Q 32.328125 33.6875 34.8125 36.53125 
Q 39.546875 41.84375 41.421875 45.53125 
Q 43.3125 49.21875 43.3125 52.78125 
Q 43.3125 58.59375 39.234375 62.25 
Q 35.15625 65.921875 28.609375 65.921875 
Q 23.96875 65.921875 18.8125 64.3125 
Q 13.671875 62.703125 7.8125 59.421875 
L 7.8125 69.390625 
Q 13.765625 71.78125 18.9375 73 
Q 24.125 74.21875 28.421875 74.21875 
Q 39.75 74.21875 46.484375 68.546875 
Q 53.21875 62.890625 53.21875 53.421875 
Q 53.21875 48.921875 51.53125 44.890625 
Q 49.859375 40.875 45.40625 35.40625 
Q 44.1875 33.984375 37.640625 27.21875 
Q 31.109375 20.453125 19.1875 8.296875 
z
" id="DejaVuSans-50"/>
      </defs>
      <g transform="translate(932.123472 940.045044)scale(0.65 -0.65)">
       <use xlink:href="#DejaVuSans-50"/>
       <use x="63.623047" xlink:href="#DejaVuSans-48"/>
      </g>
     </g>
    </g>
    <g id="xtick_6">
     <g id="line2d_6">
      <g>
       <use style="fill:#231f20;stroke:#231f20;stroke-width:5;" x="1135.806994" xlink:href="#m3cb78a82cf" y="869.76"/>
      </g>
     </g>
     <g id="text_6">
      <!-- 25 -->
      <g transform="translate(1094.450744 940.045044)scale(0.65 -0.65)">
       <use xlink:href="#DejaVuSans-50"/>
       <use x="63.623047" xlink:href="#DejaVuSans-53"/>
      </g>
     </g>
    </g>
    <g id="text_7">
     <!-- SNR (dB) -->
     <defs>
      <path d="M 53.515625 70.515625 
L 53.515625 60.890625 
Q 47.90625 63.578125 42.921875 64.890625 
Q 37.9375 66.21875 33.296875 66.21875 
Q 25.25 66.21875 20.875 63.09375 
Q 16.5 59.96875 16.5 54.203125 
Q 16.5 49.359375 19.40625 46.890625 
Q 22.3125 44.4375 30.421875 42.921875 
L 36.375 41.703125 
Q 47.40625 39.59375 52.65625 34.296875 
Q 57.90625 29 57.90625 20.125 
Q 57.90625 9.515625 50.796875 4.046875 
Q 43.703125 -1.421875 29.984375 -1.421875 
Q 24.8125 -1.421875 18.96875 -0.25 
Q 13.140625 0.921875 6.890625 3.21875 
L 6.890625 13.375 
Q 12.890625 10.015625 18.65625 8.296875 
Q 24.421875 6.59375 29.984375 6.59375 
Q 38.421875 6.59375 43.015625 9.90625 
Q 47.609375 13.234375 47.609375 19.390625 
Q 47.609375 24.75 44.3125 27.78125 
Q 41.015625 30.8125 33.5 32.328125 
L 27.484375 33.5 
Q 16.453125 35.6875 11.515625 40.375 
Q 6.59375 45.0625 6.59375 53.421875 
Q 6.59375 63.09375 13.40625 68.65625 
Q 20.21875 74.21875 32.171875 74.21875 
Q 37.3125 74.21875 42.625 73.28125 
Q 47.953125 72.359375 53.515625 70.515625 
z
" id="DejaVuSans-83"/>
      <path d="M 9.8125 72.90625 
L 23.09375 72.90625 
L 55.421875 11.921875 
L 55.421875 72.90625 
L 64.984375 72.90625 
L 64.984375 0 
L 51.703125 0 
L 19.390625 60.984375 
L 19.390625 0 
L 9.8125 0 
z
" id="DejaVuSans-78"/>
      <path d="M 44.390625 34.1875 
Q 47.5625 33.109375 50.5625 29.59375 
Q 53.5625 26.078125 56.59375 19.921875 
L 66.609375 0 
L 56 0 
L 46.6875 18.703125 
Q 43.0625 26.03125 39.671875 28.421875 
Q 36.28125 30.8125 30.421875 30.8125 
L 19.671875 30.8125 
L 19.671875 0 
L 9.8125 0 
L 9.8125 72.90625 
L 32.078125 72.90625 
Q 44.578125 72.90625 50.734375 67.671875 
Q 56.890625 62.453125 56.890625 51.90625 
Q 56.890625 45.015625 53.6875 40.46875 
Q 50.484375 35.9375 44.390625 34.1875 
z
M 19.671875 64.796875 
L 19.671875 38.921875 
L 32.078125 38.921875 
Q 39.203125 38.921875 42.84375 42.21875 
Q 46.484375 45.515625 46.484375 51.90625 
Q 46.484375 58.296875 42.84375 61.546875 
Q 39.203125 64.796875 32.078125 64.796875 
z
" id="DejaVuSans-82"/>
      <path id="DejaVuSans-32"/>
      <path d="M 31 75.875 
Q 24.46875 64.65625 21.28125 53.65625 
Q 18.109375 42.671875 18.109375 31.390625 
Q 18.109375 20.125 21.3125 9.0625 
Q 24.515625 -2 31 -13.1875 
L 23.1875 -13.1875 
Q 15.875 -1.703125 12.234375 9.375 
Q 8.59375 20.453125 8.59375 31.390625 
Q 8.59375 42.28125 12.203125 53.3125 
Q 15.828125 64.359375 23.1875 75.875 
z
" id="DejaVuSans-40"/>
      <path d="M 45.40625 46.390625 
L 45.40625 75.984375 
L 54.390625 75.984375 
L 54.390625 0 
L 45.40625 0 
L 45.40625 8.203125 
Q 42.578125 3.328125 38.25 0.953125 
Q 33.9375 -1.421875 27.875 -1.421875 
Q 17.96875 -1.421875 11.734375 6.484375 
Q 5.515625 14.40625 5.515625 27.296875 
Q 5.515625 40.1875 11.734375 48.09375 
Q 17.96875 56 27.875 56 
Q 33.9375 56 38.25 53.625 
Q 42.578125 51.265625 45.40625 46.390625 
z
M 14.796875 27.296875 
Q 14.796875 17.390625 18.875 11.75 
Q 22.953125 6.109375 30.078125 6.109375 
Q 37.203125 6.109375 41.296875 11.75 
Q 45.40625 17.390625 45.40625 27.296875 
Q 45.40625 37.203125 41.296875 42.84375 
Q 37.203125 48.484375 30.078125 48.484375 
Q 22.953125 48.484375 18.875 42.84375 
Q 14.796875 37.203125 14.796875 27.296875 
z
" id="DejaVuSans-100"/>
      <path d="M 19.671875 34.8125 
L 19.671875 8.109375 
L 35.5 8.109375 
Q 43.453125 8.109375 47.28125 11.40625 
Q 51.125 14.703125 51.125 21.484375 
Q 51.125 28.328125 47.28125 31.5625 
Q 43.453125 34.8125 35.5 34.8125 
z
M 19.671875 64.796875 
L 19.671875 42.828125 
L 34.28125 42.828125 
Q 41.5 42.828125 45.03125 45.53125 
Q 48.578125 48.25 48.578125 53.8125 
Q 48.578125 59.328125 45.03125 62.0625 
Q 41.5 64.796875 34.28125 64.796875 
z
M 9.8125 72.90625 
L 35.015625 72.90625 
Q 46.296875 72.90625 52.390625 68.21875 
Q 58.5 63.53125 58.5 54.890625 
Q 58.5 48.1875 55.375 44.234375 
Q 52.25 40.28125 46.1875 39.3125 
Q 53.46875 37.75 57.5 32.78125 
Q 61.53125 27.828125 61.53125 20.40625 
Q 61.53125 10.640625 54.890625 5.3125 
Q 48.25 0 35.984375 0 
L 9.8125 0 
z
" id="DejaVuSans-66"/>
      <path d="M 8.015625 75.875 
L 15.828125 75.875 
Q 23.140625 64.359375 26.78125 53.3125 
Q 30.421875 42.28125 30.421875 31.390625 
Q 30.421875 20.453125 26.78125 9.375 
Q 23.140625 -1.703125 15.828125 -13.1875 
L 8.015625 -13.1875 
Q 14.5 -2 17.703125 9.0625 
Q 20.90625 20.125 20.90625 31.390625 
Q 20.90625 42.671875 17.703125 53.65625 
Q 14.5 64.65625 8.015625 75.875 
z
" id="DejaVuSans-41"/>
     </defs>
     <g transform="translate(583.840375 1006.952856)scale(0.65 -0.65)">
      <use xlink:href="#DejaVuSans-83"/>
      <use x="63.476562" xlink:href="#DejaVuSans-78"/>
      <use x="138.28125" xlink:href="#DejaVuSans-82"/>
      <use x="207.763672" xlink:href="#DejaVuSans-32"/>
      <use x="239.550781" xlink:href="#DejaVuSans-40"/>
      <use x="278.564453" xlink:href="#DejaVuSans-100"/>
      <use x="342.041016" xlink:href="#DejaVuSans-66"/>
      <use x="410.644531" xlink:href="#DejaVuSans-41"/>
     </g>
    </g>
   </g>
   <g id="matplotlib.axis_2">
    <g id="ytick_1">
     <g id="line2d_7">
      <path clip-path="url(#pe0aee94420)" d="M 283.588813 732.429474 
L 1176.388813 732.429474 
" style="fill:none;stroke:#231f20;stroke-linecap:square;stroke-opacity:0.2;stroke-width:4;"/>
     </g>
     <g id="line2d_8">
      <defs>
       <path d="M 0 0 
L 11.52 0 
" id="m503447fa47" style="stroke:#231f20;stroke-width:5;"/>
      </defs>
      <g>
       <use style="fill:#231f20;stroke:#231f20;stroke-width:5;" x="283.588813" xlink:href="#m503447fa47" y="732.429474"/>
      </g>
     </g>
     <g id="text_8">
      <!-- 0.015 -->
      <defs>
       <path d="M 10.6875 12.40625 
L 21 12.40625 
L 21 0 
L 10.6875 0 
z
" id="DejaVuSans-46"/>
      </defs>
      <g transform="translate(76.15 757.124396)scale(0.65 -0.65)">
       <use xlink:href="#DejaVuSans-48"/>
       <use x="63.623047" xlink:href="#DejaVuSans-46"/>
       <use x="95.410156" xlink:href="#DejaVuSans-48"/>
       <use x="159.033203" xlink:href="#DejaVuSans-49"/>
       <use x="222.65625" xlink:href="#DejaVuSans-53"/>
      </g>
     </g>
    </g>
    <g id="ytick_2">
     <g id="line2d_9">
      <path clip-path="url(#pe0aee94420)" d="M 283.588813 503.545263 
L 1176.388813 503.545263 
" style="fill:none;stroke:#231f20;stroke-linecap:square;stroke-opacity:0.2;stroke-width:4;"/>
     </g>
     <g id="line2d_10">
      <g>
       <use style="fill:#231f20;stroke:#231f20;stroke-width:5;" x="283.588813" xlink:href="#m503447fa47" y="503.545263"/>
      </g>
     </g>
     <g id="text_9">
      <!-- 0.020 -->
      <g transform="translate(76.15 528.240185)scale(0.65 -0.65)">
       <use xlink:href="#DejaVuSans-48"/>
       <use x="63.623047" xlink:href="#DejaVuSans-46"/>
       <use x="95.410156" xlink:href="#DejaVuSans-48"/>
       <use x="159.033203" xlink:href="#DejaVuSans-50"/>
       <use x="222.65625" xlink:href="#DejaVuSans-48"/>
      </g>
     </g>
    </g>
    <g id="ytick_3">
     <g id="line2d_11">
      <path clip-path="url(#pe0aee94420)" d="M 283.588813 274.661053 
L 1176.388813 274.661053 
" style="fill:none;stroke:#231f20;stroke-linecap:square;stroke-opacity:0.2;stroke-width:4;"/>
     </g>
     <g id="line2d_12">
      <g>
       <use style="fill:#231f20;stroke:#231f20;stroke-width:5;" x="283.588813" xlink:href="#m503447fa47" y="274.661053"/>
      </g>
     </g>
     <g id="text_10">
      <!-- 0.025 -->
      <g transform="translate(76.15 299.355975)scale(0.65 -0.65)">
       <use xlink:href="#DejaVuSans-48"/>
       <use x="63.623047" xlink:href="#DejaVuSans-46"/>
       <use x="95.410156" xlink:href="#DejaVuSans-48"/>
       <use x="159.033203" xlink:href="#DejaVuSans-50"/>
       <use x="222.65625" xlink:href="#DejaVuSans-53"/>
      </g>
     </g>
    </g>
    <g id="ytick_4">
     <g id="line2d_13">
      <path clip-path="url(#pe0aee94420)" d="M 283.588813 45.776842 
L 1176.388813 45.776842 
" style="fill:none;stroke:#231f20;stroke-linecap:square;stroke-opacity:0.2;stroke-width:4;"/>
     </g>
     <g id="line2d_14">
      <g>
       <use style="fill:#231f20;stroke:#231f20;stroke-width:5;" x="283.588813" xlink:href="#m503447fa47" y="45.776842"/>
      </g>
     </g>
     <g id="text_11">
      <!-- 0.030 -->
      <defs>
       <path d="M 40.578125 39.3125 
Q 47.65625 37.796875 51.625 33 
Q 55.609375 28.21875 55.609375 21.1875 
Q 55.609375 10.40625 48.1875 4.484375 
Q 40.765625 -1.421875 27.09375 -1.421875 
Q 22.515625 -1.421875 17.65625 -0.515625 
Q 12.796875 0.390625 7.625 2.203125 
L 7.625 11.71875 
Q 11.71875 9.328125 16.59375 8.109375 
Q 21.484375 6.890625 26.8125 6.890625 
Q 36.078125 6.890625 40.9375 10.546875 
Q 45.796875 14.203125 45.796875 21.1875 
Q 45.796875 27.640625 41.28125 31.265625 
Q 36.765625 34.90625 28.71875 34.90625 
L 20.21875 34.90625 
L 20.21875 43.015625 
L 29.109375 43.015625 
Q 36.375 43.015625 40.234375 45.921875 
Q 44.09375 48.828125 44.09375 54.296875 
Q 44.09375 59.90625 40.109375 62.90625 
Q 36.140625 65.921875 28.71875 65.921875 
Q 24.65625 65.921875 20.015625 65.03125 
Q 15.375 64.15625 9.8125 62.3125 
L 9.8125 71.09375 
Q 15.4375 72.65625 20.34375 73.4375 
Q 25.25 74.21875 29.59375 74.21875 
Q 40.828125 74.21875 47.359375 69.109375 
Q 53.90625 64.015625 53.90625 55.328125 
Q 53.90625 49.265625 50.4375 45.09375 
Q 46.96875 40.921875 40.578125 39.3125 
z
" id="DejaVuSans-51"/>
      </defs>
      <g transform="translate(76.15 70.471764)scale(0.65 -0.65)">
       <use xlink:href="#DejaVuSans-48"/>
       <use x="63.623047" xlink:href="#DejaVuSans-46"/>
       <use x="95.410156" xlink:href="#DejaVuSans-48"/>
       <use x="159.033203" xlink:href="#DejaVuSans-51"/>
       <use x="222.65625" xlink:href="#DejaVuSans-48"/>
      </g>
     </g>
    </g>
    <g id="text_12">
     <!-- Curvature Error ($μm^{-1}$) -->
     <defs>
      <path d="M 64.40625 67.28125 
L 64.40625 56.890625 
Q 59.421875 61.53125 53.78125 63.8125 
Q 48.140625 66.109375 41.796875 66.109375 
Q 29.296875 66.109375 22.65625 58.46875 
Q 16.015625 50.828125 16.015625 36.375 
Q 16.015625 21.96875 22.65625 14.328125 
Q 29.296875 6.6875 41.796875 6.6875 
Q 48.140625 6.6875 53.78125 8.984375 
Q 59.421875 11.28125 64.40625 15.921875 
L 64.40625 5.609375 
Q 59.234375 2.09375 53.4375 0.328125 
Q 47.65625 -1.421875 41.21875 -1.421875 
Q 24.65625 -1.421875 15.125 8.703125 
Q 5.609375 18.84375 5.609375 36.375 
Q 5.609375 53.953125 15.125 64.078125 
Q 24.65625 74.21875 41.21875 74.21875 
Q 47.75 74.21875 53.53125 72.484375 
Q 59.328125 70.75 64.40625 67.28125 
z
" id="DejaVuSans-67"/>
      <path d="M 8.5 21.578125 
L 8.5 54.6875 
L 17.484375 54.6875 
L 17.484375 21.921875 
Q 17.484375 14.15625 20.5 10.265625 
Q 23.53125 6.390625 29.59375 6.390625 
Q 36.859375 6.390625 41.078125 11.03125 
Q 45.3125 15.671875 45.3125 23.6875 
L 45.3125 54.6875 
L 54.296875 54.6875 
L 54.296875 0 
L 45.3125 0 
L 45.3125 8.40625 
Q 42.046875 3.421875 37.71875 1 
Q 33.40625 -1.421875 27.6875 -1.421875 
Q 18.265625 -1.421875 13.375 4.4375 
Q 8.5 10.296875 8.5 21.578125 
z
M 31.109375 56 
z
" id="DejaVuSans-117"/>
      <path d="M 41.109375 46.296875 
Q 39.59375 47.171875 37.8125 47.578125 
Q 36.03125 48 33.890625 48 
Q 26.265625 48 22.1875 43.046875 
Q 18.109375 38.09375 18.109375 28.8125 
L 18.109375 0 
L 9.078125 0 
L 9.078125 54.6875 
L 18.109375 54.6875 
L 18.109375 46.1875 
Q 20.953125 51.171875 25.484375 53.578125 
Q 30.03125 56 36.53125 56 
Q 37.453125 56 38.578125 55.875 
Q 39.703125 55.765625 41.0625 55.515625 
z
" id="DejaVuSans-114"/>
      <path d="M 2.984375 54.6875 
L 12.5 54.6875 
L 29.59375 8.796875 
L 46.6875 54.6875 
L 56.203125 54.6875 
L 35.6875 0 
L 23.484375 0 
z
" id="DejaVuSans-118"/>
      <path d="M 34.28125 27.484375 
Q 23.390625 27.484375 19.1875 25 
Q 14.984375 22.515625 14.984375 16.5 
Q 14.984375 11.71875 18.140625 8.90625 
Q 21.296875 6.109375 26.703125 6.109375 
Q 34.1875 6.109375 38.703125 11.40625 
Q 43.21875 16.703125 43.21875 25.484375 
L 43.21875 27.484375 
z
M 52.203125 31.203125 
L 52.203125 0 
L 43.21875 0 
L 43.21875 8.296875 
Q 40.140625 3.328125 35.546875 0.953125 
Q 30.953125 -1.421875 24.3125 -1.421875 
Q 15.921875 -1.421875 10.953125 3.296875 
Q 6 8.015625 6 15.921875 
Q 6 25.140625 12.171875 29.828125 
Q 18.359375 34.515625 30.609375 34.515625 
L 43.21875 34.515625 
L 43.21875 35.40625 
Q 43.21875 41.609375 39.140625 45 
Q 35.0625 48.390625 27.6875 48.390625 
Q 23 48.390625 18.546875 47.265625 
Q 14.109375 46.140625 10.015625 43.890625 
L 10.015625 52.203125 
Q 14.9375 54.109375 19.578125 55.046875 
Q 24.21875 56 28.609375 56 
Q 40.484375 56 46.34375 49.84375 
Q 52.203125 43.703125 52.203125 31.203125 
z
" id="DejaVuSans-97"/>
      <path d="M 18.3125 70.21875 
L 18.3125 54.6875 
L 36.8125 54.6875 
L 36.8125 47.703125 
L 18.3125 47.703125 
L 18.3125 18.015625 
Q 18.3125 11.328125 20.140625 9.421875 
Q 21.96875 7.515625 27.59375 7.515625 
L 36.8125 7.515625 
L 36.8125 0 
L 27.59375 0 
Q 17.1875 0 13.234375 3.875 
Q 9.28125 7.765625 9.28125 18.015625 
L 9.28125 47.703125 
L 2.6875 47.703125 
L 2.6875 54.6875 
L 9.28125 54.6875 
L 9.28125 70.21875 
z
" id="DejaVuSans-116"/>
      <path d="M 56.203125 29.59375 
L 56.203125 25.203125 
L 14.890625 25.203125 
Q 15.484375 15.921875 20.484375 11.0625 
Q 25.484375 6.203125 34.421875 6.203125 
Q 39.59375 6.203125 44.453125 7.46875 
Q 49.3125 8.734375 54.109375 11.28125 
L 54.109375 2.78125 
Q 49.265625 0.734375 44.1875 -0.34375 
Q 39.109375 -1.421875 33.890625 -1.421875 
Q 20.796875 -1.421875 13.15625 6.1875 
Q 5.515625 13.8125 5.515625 26.8125 
Q 5.515625 40.234375 12.765625 48.109375 
Q 20.015625 56 32.328125 56 
Q 43.359375 56 49.78125 48.890625 
Q 56.203125 41.796875 56.203125 29.59375 
z
M 47.21875 32.234375 
Q 47.125 39.59375 43.09375 43.984375 
Q 39.0625 48.390625 32.421875 48.390625 
Q 24.90625 48.390625 20.390625 44.140625 
Q 15.875 39.890625 15.1875 32.171875 
z
" id="DejaVuSans-101"/>
      <path d="M 9.8125 72.90625 
L 55.90625 72.90625 
L 55.90625 64.59375 
L 19.671875 64.59375 
L 19.671875 43.015625 
L 54.390625 43.015625 
L 54.390625 34.71875 
L 19.671875 34.71875 
L 19.671875 8.296875 
L 56.78125 8.296875 
L 56.78125 0 
L 9.8125 0 
z
" id="DejaVuSans-69"/>
      <path d="M 30.609375 48.390625 
Q 23.390625 48.390625 19.1875 42.75 
Q 14.984375 37.109375 14.984375 27.296875 
Q 14.984375 17.484375 19.15625 11.84375 
Q 23.34375 6.203125 30.609375 6.203125 
Q 37.796875 6.203125 41.984375 11.859375 
Q 46.1875 17.53125 46.1875 27.296875 
Q 46.1875 37.015625 41.984375 42.703125 
Q 37.796875 48.390625 30.609375 48.390625 
z
M 30.609375 56 
Q 42.328125 56 49.015625 48.375 
Q 55.71875 40.765625 55.71875 27.296875 
Q 55.71875 13.875 49.015625 6.21875 
Q 42.328125 -1.421875 30.609375 -1.421875 
Q 18.84375 -1.421875 12.171875 6.21875 
Q 5.515625 13.875 5.515625 27.296875 
Q 5.515625 40.765625 12.171875 48.375 
Q 18.84375 56 30.609375 56 
z
" id="DejaVuSans-111"/>
      <path d="M -1.3125 -20.796875 
L 13.375 54.6875 
L 22.40625 54.6875 
L 15.765625 20.65625 
Q 15.578125 19.625 15.421875 18.359375 
Q 15.28125 17.09375 15.28125 15.828125 
Q 15.28125 11.28125 18.140625 8.828125 
Q 21 6.390625 26.3125 6.390625 
Q 33.546875 6.390625 37.984375 10.484375 
Q 42.4375 14.59375 44 22.796875 
L 50.203125 54.6875 
L 59.1875 54.6875 
L 51.03125 12.640625 
Q 50.828125 11.71875 50.75 11.03125 
Q 50.6875 10.359375 50.6875 9.8125 
Q 50.6875 8.296875 51.296875 7.59375 
Q 51.90625 6.890625 53.21875 6.890625 
Q 53.71875 6.890625 54.5625 7.125 
Q 55.421875 7.375 56.984375 8.015625 
L 55.609375 0.78125 
Q 53.46875 -0.296875 51.515625 -0.859375 
Q 49.5625 -1.421875 47.703125 -1.421875 
Q 44.484375 -1.421875 42.65625 0.625 
Q 40.828125 2.6875 40.828125 6.296875 
Q 38.09375 2.390625 34.296875 0.484375 
Q 30.515625 -1.421875 25.390625 -1.421875 
Q 20.84375 -1.421875 17.453125 0.671875 
Q 14.0625 2.78125 12.984375 6.203125 
L 7.71875 -20.796875 
z
" id="DejaVuSans-Oblique-956"/>
      <path d="M 89.796875 33.015625 
L 83.40625 0 
L 74.421875 0 
L 80.71875 32.71875 
Q 81.109375 34.8125 81.296875 36.328125 
Q 81.5 37.84375 81.5 38.921875 
Q 81.5 43.3125 79.046875 45.75 
Q 76.609375 48.1875 72.21875 48.1875 
Q 65.671875 48.1875 60.546875 43.28125 
Q 55.421875 38.375 53.90625 30.515625 
L 47.90625 0 
L 38.921875 0 
L 45.3125 32.71875 
Q 45.703125 34.515625 45.890625 36.046875 
Q 46.09375 37.59375 46.09375 38.8125 
Q 46.09375 43.265625 43.65625 45.71875 
Q 41.21875 48.1875 36.921875 48.1875 
Q 30.28125 48.1875 25.140625 43.28125 
Q 20.015625 38.375 18.5 30.515625 
L 12.5 0 
L 3.515625 0 
L 14.203125 54.6875 
L 23.1875 54.6875 
L 21.484375 46.1875 
Q 25.140625 50.984375 30.046875 53.484375 
Q 34.96875 56 40.578125 56 
Q 46.53125 56 50.359375 52.875 
Q 54.203125 49.75 54.984375 44.1875 
Q 59.078125 49.953125 64.46875 52.96875 
Q 69.875 56 75.875 56 
Q 82.90625 56 86.734375 51.953125 
Q 90.578125 47.90625 90.578125 40.484375 
Q 90.578125 38.875 90.375 36.9375 
Q 90.1875 35.015625 89.796875 33.015625 
z
" id="DejaVuSans-Oblique-109"/>
      <path d="M 10.59375 35.5 
L 73.1875 35.5 
L 73.1875 27.203125 
L 10.59375 27.203125 
z
" id="DejaVuSans-8722"/>
     </defs>
     <g transform="translate(58.5 812.205)rotate(-90)scale(0.65 -0.65)">
      <use transform="translate(0 0.684375)" xlink:href="#DejaVuSans-67"/>
      <use transform="translate(69.824219 0.684375)" xlink:href="#DejaVuSans-117"/>
      <use transform="translate(133.203125 0.684375)" xlink:href="#DejaVuSans-114"/>
      <use transform="translate(174.316406 0.684375)" xlink:href="#DejaVuSans-118"/>
      <use transform="translate(233.496094 0.684375)" xlink:href="#DejaVuSans-97"/>
      <use transform="translate(294.775391 0.684375)" xlink:href="#DejaVuSans-116"/>
      <use transform="translate(333.984375 0.684375)" xlink:href="#DejaVuSans-117"/>
      <use transform="translate(397.363281 0.684375)" xlink:href="#DejaVuSans-114"/>
      <use transform="translate(438.476562 0.684375)" xlink:href="#DejaVuSans-101"/>
      <use transform="translate(500 0.684375)" xlink:href="#DejaVuSans-32"/>
      <use transform="translate(531.787109 0.684375)" xlink:href="#DejaVuSans-69"/>
      <use transform="translate(594.970703 0.684375)" xlink:href="#DejaVuSans-114"/>
      <use transform="translate(636.083984 0.684375)" xlink:href="#DejaVuSans-114"/>
      <use transform="translate(677.197266 0.684375)" xlink:href="#DejaVuSans-111"/>
      <use transform="translate(738.378906 0.684375)" xlink:href="#DejaVuSans-114"/>
      <use transform="translate(779.492188 0.684375)" xlink:href="#DejaVuSans-32"/>
      <use transform="translate(811.279297 0.684375)" xlink:href="#DejaVuSans-40"/>
      <use transform="translate(850.292969 0.684375)" xlink:href="#DejaVuSans-Oblique-956"/>
      <use transform="translate(913.916016 0.684375)" xlink:href="#DejaVuSans-Oblique-109"/>
      <use transform="translate(1015.978021 38.965625)scale(0.7)" xlink:href="#DejaVuSans-8722"/>
      <use transform="translate(1074.630365 38.965625)scale(0.7)" xlink:href="#DejaVuSans-49"/>
      <use transform="translate(1121.900872 0.684375)" xlink:href="#DejaVuSans-41"/>
     </g>
    </g>
   </g>
   <g id="LineCollection_1">
    <path clip-path="url(#pe0aee94420)" d="M 324.170631 576.222449 
L 324.170631 334.387632 
" style="fill:none;stroke:#d81920;stroke-width:6;"/>
    <path clip-path="url(#pe0aee94420)" d="M 356.636085 225.208099 
L 356.636085 16.680343 
" style="fill:none;stroke:#d81920;stroke-width:6;"/>
    <path clip-path="url(#pe0aee94420)" d="M 389.10154 725.116922 
L 389.10154 561.016641 
" style="fill:none;stroke:#d81920;stroke-width:6;"/>
    <path clip-path="url(#pe0aee94420)" d="M 421.566994 598.140776 
L 421.566994 416.261025 
" style="fill:none;stroke:#d81920;stroke-width:6;"/>
    <path clip-path="url(#pe0aee94420)" d="M 454.032449 501.580995 
L 454.032449 321.269978 
" style="fill:none;stroke:#d81920;stroke-width:6;"/>
    <path clip-path="url(#pe0aee94420)" d="M 486.497903 653.573091 
L 486.497903 440.692851 
" style="fill:none;stroke:#d81920;stroke-width:6;"/>
    <path clip-path="url(#pe0aee94420)" d="M 518.963358 718.413121 
L 518.963358 584.687839 
" style="fill:none;stroke:#d81920;stroke-width:6;"/>
    <path clip-path="url(#pe0aee94420)" d="M 551.428813 582.871885 
L 551.428813 430.434284 
" style="fill:none;stroke:#d81920;stroke-width:6;"/>
    <path clip-path="url(#pe0aee94420)" d="M 583.894267 570.155511 
L 583.894267 409.672198 
" style="fill:none;stroke:#d81920;stroke-width:6;"/>
    <path clip-path="url(#pe0aee94420)" d="M 616.359722 478.351904 
L 616.359722 302.548515 
" style="fill:none;stroke:#d81920;stroke-width:6;"/>
    <path clip-path="url(#pe0aee94420)" d="M 648.825176 477.923314 
L 648.825176 321.840728 
" style="fill:none;stroke:#d81920;stroke-width:6;"/>
    <path clip-path="url(#pe0aee94420)" d="M 681.290631 346.387585 
L 681.290631 174.116194 
" style="fill:none;stroke:#d81920;stroke-width:6;"/>
    <path clip-path="url(#pe0aee94420)" d="M 713.756085 482.450175 
L 713.756085 312.647475 
" style="fill:none;stroke:#d81920;stroke-width:6;"/>
    <path clip-path="url(#pe0aee94420)" d="M 746.22154 389.161362 
L 746.22154 229.685031 
" style="fill:none;stroke:#d81920;stroke-width:6;"/>
    <path clip-path="url(#pe0aee94420)" d="M 778.686994 257.376073 
L 778.686994 96.298709 
" style="fill:none;stroke:#d81920;stroke-width:6;"/>
    <path clip-path="url(#pe0aee94420)" d="M 811.152449 490.623381 
L 811.152449 419.538609 
" style="fill:none;stroke:#d81920;stroke-width:6;"/>
    <path clip-path="url(#pe0aee94420)" d="M 843.617903 555.31978 
L 843.617903 483.746835 
" style="fill:none;stroke:#d81920;stroke-width:6;"/>
    <path clip-path="url(#pe0aee94420)" d="M 876.083358 522.331026 
L 876.083358 436.821676 
" style="fill:none;stroke:#d81920;stroke-width:6;"/>
    <path clip-path="url(#pe0aee94420)" d="M 908.548813 683.183747 
L 908.548813 629.820704 
" style="fill:none;stroke:#d81920;stroke-width:6;"/>
    <path clip-path="url(#pe0aee94420)" d="M 941.014267 623.312974 
L 941.014267 546.541663 
" style="fill:none;stroke:#d81920;stroke-width:6;"/>
    <path clip-path="url(#pe0aee94420)" d="M 973.479722 662.773148 
L 973.479722 590.410761 
" style="fill:none;stroke:#d81920;stroke-width:6;"/>
    <path clip-path="url(#pe0aee94420)" d="M 1005.945176 744.93927 
L 1005.945176 678.767607 
" style="fill:none;stroke:#d81920;stroke-width:6;"/>
    <path clip-path="url(#pe0aee94420)" d="M 1038.410631 656.906338 
L 1038.410631 585.945682 
" style="fill:none;stroke:#d81920;stroke-width:6;"/>
    <path clip-path="url(#pe0aee94420)" d="M 1070.876085 709.340206 
L 1070.876085 645.002492 
" style="fill:none;stroke:#d81920;stroke-width:6;"/>
    <path clip-path="url(#pe0aee94420)" d="M 1103.34154 692.789603 
L 1103.34154 631.584047 
" style="fill:none;stroke:#d81920;stroke-width:6;"/>
    <path clip-path="url(#pe0aee94420)" d="M 1135.806994 709.783018 
L 1135.806994 647.023313 
" style="fill:none;stroke:#d81920;stroke-width:6;"/>
   </g>
   <g id="line2d_15">
    <path clip-path="url(#pe0aee94420)" d="M 324.170631 455.305041 
L 356.636085 120.944221 
L 389.10154 643.066781 
L 421.566994 507.200901 
L 454.032449 411.425487 
L 486.497903 547.132971 
L 518.963358 651.55048 
L 551.428813 506.653085 
L 583.894267 489.913854 
L 616.359722 390.450209 
L 648.825176 399.882021 
L 681.290631 260.251889 
L 713.756085 397.548825 
L 746.22154 309.423197 
L 778.686994 176.837391 
L 811.152449 455.080995 
L 843.617903 519.533308 
L 876.083358 479.576351 
L 908.548813 656.502225 
L 941.014267 584.927318 
L 973.479722 626.591954 
L 1005.945176 711.853439 
L 1038.410631 621.42601 
L 1070.876085 677.171349 
L 1103.34154 662.186825 
L 1135.806994 678.403165 
" style="fill:none;stroke:#d81920;stroke-linecap:square;stroke-width:4;"/>
   </g>
   <g id="line2d_16">
    <defs>
     <path d="M 0 7.5 
C 1.989023 7.5 3.896849 6.709753 5.303301 5.303301 
C 6.709753 3.896849 7.5 1.989023 7.5 0 
C 7.5 -1.989023 6.709753 -3.896849 5.303301 -5.303301 
C 3.896849 -6.709753 1.989023 -7.5 0 -7.5 
C -1.989023 -7.5 -3.896849 -6.709753 -5.303301 -5.303301 
C -6.709753 -3.896849 -7.5 -1.989023 -7.5 0 
C -7.5 1.989023 -6.709753 3.896849 -5.303301 5.303301 
C -3.896849 6.709753 -1.989023 7.5 0 7.5 
z
" id="m34ef0b4a32" style="stroke:#d81920;"/>
    </defs>
    <g clip-path="url(#pe0aee94420)">
     <use style="fill:#d81920;stroke:#d81920;" x="324.170631" xlink:href="#m34ef0b4a32" y="455.305041"/>
     <use style="fill:#d81920;stroke:#d81920;" x="356.636085" xlink:href="#m34ef0b4a32" y="120.944221"/>
     <use style="fill:#d81920;stroke:#d81920;" x="389.10154" xlink:href="#m34ef0b4a32" y="643.066781"/>
     <use style="fill:#d81920;stroke:#d81920;" x="421.566994" xlink:href="#m34ef0b4a32" y="507.200901"/>
     <use style="fill:#d81920;stroke:#d81920;" x="454.032449" xlink:href="#m34ef0b4a32" y="411.425487"/>
     <use style="fill:#d81920;stroke:#d81920;" x="486.497903" xlink:href="#m34ef0b4a32" y="547.132971"/>
     <use style="fill:#d81920;stroke:#d81920;" x="518.963358" xlink:href="#m34ef0b4a32" y="651.55048"/>
     <use style="fill:#d81920;stroke:#d81920;" x="551.428813" xlink:href="#m34ef0b4a32" y="506.653085"/>
     <use style="fill:#d81920;stroke:#d81920;" x="583.894267" xlink:href="#m34ef0b4a32" y="489.913854"/>
     <use style="fill:#d81920;stroke:#d81920;" x="616.359722" xlink:href="#m34ef0b4a32" y="390.450209"/>
     <use style="fill:#d81920;stroke:#d81920;" x="648.825176" xlink:href="#m34ef0b4a32" y="399.882021"/>
     <use style="fill:#d81920;stroke:#d81920;" x="681.290631" xlink:href="#m34ef0b4a32" y="260.251889"/>
     <use style="fill:#d81920;stroke:#d81920;" x="713.756085" xlink:href="#m34ef0b4a32" y="397.548825"/>
     <use style="fill:#d81920;stroke:#d81920;" x="746.22154" xlink:href="#m34ef0b4a32" y="309.423197"/>
     <use style="fill:#d81920;stroke:#d81920;" x="778.686994" xlink:href="#m34ef0b4a32" y="176.837391"/>
     <use style="fill:#d81920;stroke:#d81920;" x="811.152449" xlink:href="#m34ef0b4a32" y="455.080995"/>
     <use style="fill:#d81920;stroke:#d81920;" x="843.617903" xlink:href="#m34ef0b4a32" y="519.533308"/>
     <use style="fill:#d81920;stroke:#d81920;" x="876.083358" xlink:href="#m34ef0b4a32" y="479.576351"/>
     <use style="fill:#d81920;stroke:#d81920;" x="908.548813" xlink:href="#m34ef0b4a32" y="656.502225"/>
     <use style="fill:#d81920;stroke:#d81920;" x="941.014267" xlink:href="#m34ef0b4a32" y="584.927318"/>
     <use style="fill:#d81920;stroke:#d81920;" x="973.479722" xlink:href="#m34ef0b4a32" y="626.591954"/>
     <use style="fill:#d81920;stroke:#d81920;" x="1005.945176" xlink:href="#m34ef0b4a32" y="711.853439"/>
     <use style="fill:#d81920;stroke:#d81920;" x="1038.410631" xlink:href="#m34ef0b4a32" y="621.42601"/>
     <use style="fill:#d81920;stroke:#d81920;" x="1070.876085" xlink:href="#m34ef0b4a32" y="677.171349"/>
     <use style="fill:#d81920;stroke:#d81920;" x="1103.34154" xlink:href="#m34ef0b4a32" y="662.186825"/>
     <use style="fill:#d81920;stroke:#d81920;" x="1135.806994" xlink:href="#m34ef0b4a32" y="678.403165"/>
    </g>
   </g>
   <g id="patch_3">
    <path d="M 283.588813 869.76 
L 283.588813 -0 
" style="fill:none;stroke:#231f20;stroke-linecap:square;stroke-linejoin:miter;stroke-width:5;"/>
   </g>
   <g id="patch_4">
    <path d="M 283.588813 869.76 
L 1176.388813 869.76 
" style="fill:none;stroke:#231f20;stroke-linecap:square;stroke-linejoin:miter;stroke-width:5;"/>
   </g>
  </g>
 </g>
 <defs>
  <clipPath id="pe0aee94420">
   <rect height="869.76" width="892.8" x="283.588813" y="-0"/>
  </clipPath>
 </defs>
</svg>
