<?xml version="1.0" encoding="utf-8" standalone="no"?>
<!DOCTYPE svg PUBLIC "-//W3C//DTD SVG 1.1//EN"
  "http://www.w3.org/Graphics/SVG/1.1/DTD/svg11.dtd">
<!-- Created with matplotlib (https://matplotlib.org/) -->
<svg height="1152pt" version="1.1" viewBox="0 0 1152 1152" width="1152pt" xmlns="http://www.w3.org/2000/svg" xmlns:xlink="http://www.w3.org/1999/xlink">
 <defs>
  <style type="text/css">
*{stroke-linecap:butt;stroke-linejoin:round;}
  </style>
 </defs>
 <g id="figure_1">
  <g id="patch_1">
   <path d="M 0 1152 
L 1152 1152 
L 1152 0 
L 0 0 
z
" style="fill:#ffffff;"/>
  </g>
  <g id="axes_1">
   <g id="patch_2">
    <path d="M 247.689637 1008 
L 933.110363 1008 
L 933.110363 138.24 
L 247.689637 138.24 
z
" style="fill:#ffffff;"/>
   </g>
   <g id="PathCollection_1">
    <defs>
     <path d="M 0 3.535534 
C 0.937635 3.535534 1.836992 3.163008 2.5 2.5 
C 3.163008 1.836992 3.535534 0.937635 3.535534 0 
C 3.535534 -0.937635 3.163008 -1.836992 2.5 -2.5 
C 1.836992 -3.163008 0.937635 -3.535534 0 -3.535534 
C -0.937635 -3.535534 -1.836992 -3.163008 -2.5 -2.5 
C -3.163008 -1.836992 -3.535534 -0.937635 -3.535534 0 
C -3.535534 0.937635 -3.163008 1.836992 -2.5 2.5 
C -1.836992 3.163008 -0.937635 3.535534 0 3.535534 
z
" id="m8e8e803278" style="stroke:#ff0000;"/>
    </defs>
    <g clip-path="url(#p63c5cce7c8)">
     <use style="fill:#ff0000;stroke:#ff0000;" x="723.873179" xlink:href="#m8e8e803278" y="780.744945"/>
     <use style="fill:#ff0000;stroke:#ff0000;" x="486.587528" xlink:href="#m8e8e803278" y="958.709183"/>
     <use style="fill:#ff0000;stroke:#ff0000;" x="278.962583" xlink:href="#m8e8e803278" y="335.834349"/>
     <use style="fill:#ff0000;stroke:#ff0000;" x="901.837417" xlink:href="#m8e8e803278" y="721.423532"/>
     <use style="fill:#ff0000;stroke:#ff0000;" x="664.551766" xlink:href="#m8e8e803278" y="187.530817"/>
     <use style="fill:#ff0000;stroke:#ff0000;" x="486.587528" xlink:href="#m8e8e803278" y="276.512936"/>
    </g>
   </g>
   <g id="PathCollection_2">
    <defs>
     <path d="M -10 10 
L 10 -10 
M -10 -10 
L 10 10 
" id="m55f3b72801" style="stroke:#0000ff;stroke-width:1.5;"/>
    </defs>
    <g clip-path="url(#p63c5cce7c8)">
     <use style="fill:#0000ff;stroke:#0000ff;stroke-width:1.5;" x="723.873179" xlink:href="#m55f3b72801" y="780.744945"/>
     <use style="fill:#0000ff;stroke:#0000ff;stroke-width:1.5;" x="486.587528" xlink:href="#m55f3b72801" y="958.709183"/>
     <use style="fill:#0000ff;stroke:#0000ff;stroke-width:1.5;" x="382.775055" xlink:href="#m55f3b72801" y="647.271766"/>
     <use style="fill:#0000ff;stroke:#0000ff;stroke-width:1.5;" x="434.681291" xlink:href="#m55f3b72801" y="555.817921"/>
     <use style="fill:#0000ff;stroke:#0000ff;stroke-width:1.5;" x="434.681291" xlink:href="#m55f3b72801" y="555.817921"/>
     <use style="fill:#0000ff;stroke:#0000ff;stroke-width:1.5;" x="486.587528" xlink:href="#m55f3b72801" y="464.364077"/>
     <use style="fill:#0000ff;stroke:#0000ff;stroke-width:1.5;" x="694.212472" xlink:href="#m55f3b72801" y="592.893804"/>
     <use style="fill:#0000ff;stroke:#0000ff;stroke-width:1.5;" x="738.703532" xlink:href="#m55f3b72801" y="523.685489"/>
     <use style="fill:#0000ff;stroke:#0000ff;stroke-width:1.5;" x="738.703532" xlink:href="#m55f3b72801" y="523.685489"/>
     <use style="fill:#0000ff;stroke:#0000ff;stroke-width:1.5;" x="783.194592" xlink:href="#m55f3b72801" y="454.477174"/>
     <use style="fill:#0000ff;stroke:#0000ff;stroke-width:1.5;" x="664.551766" xlink:href="#m55f3b72801" y="187.530817"/>
     <use style="fill:#0000ff;stroke:#0000ff;stroke-width:1.5;" x="486.587528" xlink:href="#m55f3b72801" y="276.512936"/>
    </g>
   </g>
   <g id="matplotlib.axis_1">
    <g id="xtick_1">
     <g id="line2d_1">
      <defs>
       <path d="M 0 0 
L 0 3.5 
" id="m6426d89eca" style="stroke:#000000;stroke-width:0.8;"/>
      </defs>
      <g>
       <use style="stroke:#000000;stroke-width:0.8;" x="278.962583" xlink:href="#m6426d89eca" y="1008"/>
      </g>
     </g>
     <g id="text_1">
      <!-- 0 -->
      <defs>
       <path d="M 31.78125 66.40625 
Q 24.171875 66.40625 20.328125 58.90625 
Q 16.5 51.421875 16.5 36.375 
Q 16.5 21.390625 20.328125 13.890625 
Q 24.171875 6.390625 31.78125 6.390625 
Q 39.453125 6.390625 43.28125 13.890625 
Q 47.125 21.390625 47.125 36.375 
Q 47.125 51.421875 43.28125 58.90625 
Q 39.453125 66.40625 31.78125 66.40625 
z
M 31.78125 74.21875 
Q 44.046875 74.21875 50.515625 64.515625 
Q 56.984375 54.828125 56.984375 36.375 
Q 56.984375 17.96875 50.515625 8.265625 
Q 44.046875 -1.421875 31.78125 -1.421875 
Q 19.53125 -1.421875 13.0625 8.265625 
Q 6.59375 17.96875 6.59375 36.375 
Q 6.59375 54.828125 13.0625 64.515625 
Q 19.53125 74.21875 31.78125 74.21875 
z
" id="DejaVuSans-48"/>
      </defs>
      <g transform="translate(275.781333 1022.598438)scale(0.1 -0.1)">
       <use xlink:href="#DejaVuSans-48"/>
      </g>
     </g>
    </g>
    <g id="xtick_2">
     <g id="line2d_2">
      <g>
       <use style="stroke:#000000;stroke-width:0.8;" x="427.266115" xlink:href="#m6426d89eca" y="1008"/>
      </g>
     </g>
     <g id="text_2">
      <!-- 5 -->
      <defs>
       <path d="M 10.796875 72.90625 
L 49.515625 72.90625 
L 49.515625 64.59375 
L 19.828125 64.59375 
L 19.828125 46.734375 
Q 21.96875 47.46875 24.109375 47.828125 
Q 26.265625 48.1875 28.421875 48.1875 
Q 40.625 48.1875 47.75 41.5 
Q 54.890625 34.8125 54.890625 23.390625 
Q 54.890625 11.625 47.5625 5.09375 
Q 40.234375 -1.421875 26.90625 -1.421875 
Q 22.3125 -1.421875 17.546875 -0.640625 
Q 12.796875 0.140625 7.71875 1.703125 
L 7.71875 11.625 
Q 12.109375 9.234375 16.796875 8.0625 
Q 21.484375 6.890625 26.703125 6.890625 
Q 35.15625 6.890625 40.078125 11.328125 
Q 45.015625 15.765625 45.015625 23.390625 
Q 45.015625 31 40.078125 35.4375 
Q 35.15625 39.890625 26.703125 39.890625 
Q 22.75 39.890625 18.8125 39.015625 
Q 14.890625 38.140625 10.796875 36.28125 
z
" id="DejaVuSans-53"/>
      </defs>
      <g transform="translate(424.084865 1022.598438)scale(0.1 -0.1)">
       <use xlink:href="#DejaVuSans-53"/>
      </g>
     </g>
    </g>
    <g id="xtick_3">
     <g id="line2d_3">
      <g>
       <use style="stroke:#000000;stroke-width:0.8;" x="575.569647" xlink:href="#m6426d89eca" y="1008"/>
      </g>
     </g>
     <g id="text_3">
      <!-- 10 -->
      <defs>
       <path d="M 12.40625 8.296875 
L 28.515625 8.296875 
L 28.515625 63.921875 
L 10.984375 60.40625 
L 10.984375 69.390625 
L 28.421875 72.90625 
L 38.28125 72.90625 
L 38.28125 8.296875 
L 54.390625 8.296875 
L 54.390625 0 
L 12.40625 0 
z
" id="DejaVuSans-49"/>
      </defs>
      <g transform="translate(569.207147 1022.598438)scale(0.1 -0.1)">
       <use xlink:href="#DejaVuSans-49"/>
       <use x="63.623047" xlink:href="#DejaVuSans-48"/>
      </g>
     </g>
    </g>
    <g id="xtick_4">
     <g id="line2d_4">
      <g>
       <use style="stroke:#000000;stroke-width:0.8;" x="723.873179" xlink:href="#m6426d89eca" y="1008"/>
      </g>
     </g>
     <g id="text_4">
      <!-- 15 -->
      <g transform="translate(717.510679 1022.598438)scale(0.1 -0.1)">
       <use xlink:href="#DejaVuSans-49"/>
       <use x="63.623047" xlink:href="#DejaVuSans-53"/>
      </g>
     </g>
    </g>
    <g id="xtick_5">
     <g id="line2d_5">
      <g>
       <use style="stroke:#000000;stroke-width:0.8;" x="872.176711" xlink:href="#m6426d89eca" y="1008"/>
      </g>
     </g>
     <g id="text_5">
      <!-- 20 -->
      <defs>
       <path d="M 19.1875 8.296875 
L 53.609375 8.296875 
L 53.609375 0 
L 7.328125 0 
L 7.328125 8.296875 
Q 12.9375 14.109375 22.625 23.890625 
Q 32.328125 33.6875 34.8125 36.53125 
Q 39.546875 41.84375 41.421875 45.53125 
Q 43.3125 49.21875 43.3125 52.78125 
Q 43.3125 58.59375 39.234375 62.25 
Q 35.15625 65.921875 28.609375 65.921875 
Q 23.96875 65.921875 18.8125 64.3125 
Q 13.671875 62.703125 7.8125 59.421875 
L 7.8125 69.390625 
Q 13.765625 71.78125 18.9375 73 
Q 24.125 74.21875 28.421875 74.21875 
Q 39.75 74.21875 46.484375 68.546875 
Q 53.21875 62.890625 53.21875 53.421875 
Q 53.21875 48.921875 51.53125 44.890625 
Q 49.859375 40.875 45.40625 35.40625 
Q 44.1875 33.984375 37.640625 27.21875 
Q 31.109375 20.453125 19.1875 8.296875 
z
" id="DejaVuSans-50"/>
      </defs>
      <g transform="translate(865.814211 1022.598438)scale(0.1 -0.1)">
       <use xlink:href="#DejaVuSans-50"/>
       <use x="63.623047" xlink:href="#DejaVuSans-48"/>
      </g>
     </g>
    </g>
   </g>
   <g id="matplotlib.axis_2">
    <g id="ytick_1">
     <g id="line2d_6">
      <defs>
       <path d="M 0 0 
L -3.5 0 
" id="m22a7aefbee" style="stroke:#000000;stroke-width:0.8;"/>
      </defs>
      <g>
       <use style="stroke:#000000;stroke-width:0.8;" x="247.689637" xlink:href="#m22a7aefbee" y="929.048477"/>
      </g>
     </g>
     <g id="text_6">
      <!-- −10 -->
      <defs>
       <path d="M 10.59375 35.5 
L 73.1875 35.5 
L 73.1875 27.203125 
L 10.59375 27.203125 
z
" id="DejaVuSans-8722"/>
      </defs>
      <g transform="translate(219.58495 932.847696)scale(0.1 -0.1)">
       <use xlink:href="#DejaVuSans-8722"/>
       <use x="83.789062" xlink:href="#DejaVuSans-49"/>
       <use x="147.412109" xlink:href="#DejaVuSans-48"/>
      </g>
     </g>
    </g>
    <g id="ytick_2">
     <g id="line2d_7">
      <g>
       <use style="stroke:#000000;stroke-width:0.8;" x="247.689637" xlink:href="#m22a7aefbee" y="780.744945"/>
      </g>
     </g>
     <g id="text_7">
      <!-- −5 -->
      <g transform="translate(225.94745 784.544164)scale(0.1 -0.1)">
       <use xlink:href="#DejaVuSans-8722"/>
       <use x="83.789062" xlink:href="#DejaVuSans-53"/>
      </g>
     </g>
    </g>
    <g id="ytick_3">
     <g id="line2d_8">
      <g>
       <use style="stroke:#000000;stroke-width:0.8;" x="247.689637" xlink:href="#m22a7aefbee" y="632.441413"/>
      </g>
     </g>
     <g id="text_8">
      <!-- 0 -->
      <g transform="translate(234.327137 636.240632)scale(0.1 -0.1)">
       <use xlink:href="#DejaVuSans-48"/>
      </g>
     </g>
    </g>
    <g id="ytick_4">
     <g id="line2d_9">
      <g>
       <use style="stroke:#000000;stroke-width:0.8;" x="247.689637" xlink:href="#m22a7aefbee" y="484.137881"/>
      </g>
     </g>
     <g id="text_9">
      <!-- 5 -->
      <g transform="translate(234.327137 487.9371)scale(0.1 -0.1)">
       <use xlink:href="#DejaVuSans-53"/>
      </g>
     </g>
    </g>
    <g id="ytick_5">
     <g id="line2d_10">
      <g>
       <use style="stroke:#000000;stroke-width:0.8;" x="247.689637" xlink:href="#m22a7aefbee" y="335.834349"/>
      </g>
     </g>
     <g id="text_10">
      <!-- 10 -->
      <g transform="translate(227.964637 339.633568)scale(0.1 -0.1)">
       <use xlink:href="#DejaVuSans-49"/>
       <use x="63.623047" xlink:href="#DejaVuSans-48"/>
      </g>
     </g>
    </g>
    <g id="ytick_6">
     <g id="line2d_11">
      <g>
       <use style="stroke:#000000;stroke-width:0.8;" x="247.689637" xlink:href="#m22a7aefbee" y="187.530817"/>
      </g>
     </g>
     <g id="text_11">
      <!-- 15 -->
      <g transform="translate(227.964637 191.330036)scale(0.1 -0.1)">
       <use xlink:href="#DejaVuSans-49"/>
       <use x="63.623047" xlink:href="#DejaVuSans-53"/>
      </g>
     </g>
    </g>
   </g>
   <g id="line2d_12">
    <path clip-path="url(#p63c5cce7c8)" d="M 723.873179 780.744945 
L 486.587528 958.709183 
L 278.962583 335.834349 
L 901.837417 721.423532 
L 664.551766 187.530817 
L 486.587528 276.512936 
" style="fill:none;stroke:#ff0000;stroke-linecap:square;stroke-opacity:0.4;stroke-width:4;"/>
   </g>
   <g id="line2d_13">
    <path clip-path="url(#p63c5cce7c8)" d="M 723.873179 780.744945 
L 702.67007 795.595038 
L 682.206064 807.867141 
L 662.484876 817.679692 
L 643.51022 825.151131 
L 625.285809 830.399893 
L 607.815358 833.544419 
L 591.102582 834.703146 
L 575.151193 833.994512 
L 559.964906 831.536955 
L 545.547436 827.448913 
L 531.902496 821.848825 
L 519.0338 814.855129 
L 506.945063 806.586262 
L 495.639998 797.160663 
L 485.12232 786.696771 
L 475.395743 775.313022 
L 466.46398 763.127856 
L 458.330746 750.259711 
L 450.999756 736.827024 
L 444.474722 722.948234 
L 438.75936 708.741779 
L 433.857383 694.326097 
L 429.772505 679.819626 
L 426.508441 665.340804 
L 424.068904 651.00807 
L 422.457609 636.939861 
L 421.678269 623.254616 
L 421.7346 610.070773 
L 422.630314 597.50677 
L 424.369126 585.681045 
L 426.95475 574.712037 
L 430.390901 564.718183 
L 434.681291 555.817921 
L 439.820145 548.098327 
L 445.763717 541.521021 
L 452.458773 536.016261 
L 459.852078 531.514305 
L 467.890396 527.945411 
L 476.520492 525.239835 
L 485.689131 523.327836 
L 495.343077 522.139672 
L 505.429096 521.6056 
L 515.893951 521.655878 
L 526.684408 522.220763 
L 537.747232 523.230514 
L 549.029187 524.615387 
L 560.477038 526.305641 
L 572.037549 528.231533 
L 583.657486 530.323321 
L 595.283613 532.511263 
L 606.862695 534.725616 
L 618.341496 536.896638 
L 629.666782 538.954586 
L 640.785317 540.829719 
L 651.643866 542.452294 
L 662.189193 543.752569 
L 672.368064 544.660801 
L 682.127243 545.107248 
L 691.413494 545.022168 
L 700.173584 544.335818 
L 708.354275 542.978457 
L 715.902333 540.880341 
L 722.764524 537.971729 
L 728.88761 534.182877 
L 734.218358 529.444045 
L 738.703532 523.685489 
L 742.301658 516.864498 
L 745.018307 509.04648 
L 746.870811 500.323876 
L 747.876504 490.789125 
L 748.052717 480.534665 
L 747.416782 469.652938 
L 745.986033 458.236382 
L 743.777802 446.377436 
L 740.80942 434.168541 
L 737.098221 421.702136 
L 732.661536 409.070661 
L 727.516699 396.366554 
L 721.681042 383.682256 
L 715.171896 371.110206 
L 708.006595 358.742843 
L 700.202471 346.672608 
L 691.776856 334.991939 
L 682.747083 323.793276 
L 673.130484 313.169058 
L 662.944391 303.211726 
L 652.206138 294.013718 
L 640.933055 285.667475 
L 629.142477 278.265435 
L 616.851734 271.900039 
L 604.078161 266.663725 
L 590.839088 262.648933 
L 577.151848 259.948104 
L 563.033775 258.653675 
L 548.502199 258.858088 
L 533.574454 260.65378 
L 518.267872 264.133193 
L 502.599786 269.388765 
L 486.587528 276.512936 
" style="fill:none;stroke:#008000;stroke-linecap:square;stroke-width:4;"/>
   </g>
   <g id="line2d_14">
    <path clip-path="url(#p63c5cce7c8)" d="M 723.873179 780.744945 
L 716.723582 785.98873 
L 709.655834 790.937299 
L 702.67007 795.595038 
L 695.766428 799.966333 
L 688.945047 804.055572 
L 682.206064 807.867141 
L 675.549616 811.405426 
L 668.975841 814.674814 
L 662.484876 817.679692 
L 656.076859 820.424447 
L 649.751928 822.913464 
L 643.51022 825.151131 
L 637.351872 827.141833 
L 631.277023 828.889959 
L 625.285809 830.399893 
L 619.378369 831.676024 
L 613.554839 832.722737 
L 607.815358 833.544419 
L 602.160063 834.145457 
L 596.589092 834.530237 
L 591.102582 834.703146 
L 585.70067 834.66857 
L 580.383495 834.430897 
L 575.151193 833.994512 
L 570.003903 833.363802 
L 564.941761 832.543154 
L 559.964906 831.536955 
L 555.073475 830.34959 
L 550.267606 828.985448 
L 545.547436 827.448913 
L 540.913102 825.744373 
L 536.364743 823.876215 
L 531.902496 821.848825 
L 527.526498 819.666589 
L 523.236887 817.333895 
L 519.0338 814.855129 
L 514.917375 812.234676 
L 510.88775 809.476925 
L 506.945063 806.586262 
L 503.08945 803.567073 
L 499.321049 800.423744 
L 495.639998 797.160663 
L 492.046434 793.782216 
L 488.540496 790.29279 
L 485.12232 786.696771 
L 481.792044 782.998545 
L 478.549806 779.2025 
L 475.395743 775.313022 
L 472.329992 771.334498 
L 469.352692 767.271314 
L 466.46398 763.127856 
L 463.663993 758.908512 
L 458.330746 750.259711 
L 453.354052 741.360002 
L 448.73501 732.244479 
L 444.474722 722.948234 
L 440.574288 713.50636 
L 437.034808 703.95395 
L 433.857383 694.326097 
L 431.043113 684.657893 
L 428.593099 674.984431 
L 426.508441 665.340804 
L 424.79024 655.762105 
L 423.439595 646.283426 
L 422.457609 636.939861 
L 421.845381 627.766502 
L 421.604011 618.798442 
L 421.7346 610.070773 
L 422.238248 601.618589 
L 423.116057 593.476982 
L 424.369126 585.681045 
L 425.136727 581.92367 
L 425.998556 578.265871 
L 426.95475 574.712037 
L 428.005448 571.266553 
L 429.150785 567.933806 
L 430.390901 564.718183 
L 431.725932 561.62407 
L 433.156016 558.655854 
L 434.681291 555.817921 
L 434.681291 555.817921 
L 436.301543 553.113497 
L 438.015152 550.54116 
L 439.820145 548.098327 
L 441.714551 545.782415 
L 443.696399 543.590841 
L 445.763717 541.521021 
L 447.914533 539.570373 
L 450.146876 537.736315 
L 452.458773 536.016261 
L 454.848254 534.407631 
L 457.313346 532.90784 
L 459.852078 531.514305 
L 462.462478 530.224444 
L 465.142575 529.035674 
L 467.890396 527.945411 
L 473.581327 526.050074 
L 479.519496 524.517771 
L 485.689131 523.327836 
L 492.074458 522.459606 
L 498.659704 521.892415 
L 505.429096 521.6056 
L 512.366859 521.578496 
L 519.457221 521.790438 
L 526.684408 522.220763 
L 534.032647 522.848806 
L 541.486165 523.653902 
L 552.829333 525.148318 
L 564.320653 526.924867 
L 579.780857 529.611931 
L 599.151163 533.24989 
L 625.91203 538.285472 
L 640.785317 540.829719 
L 651.643866 542.452294 
L 662.189193 543.752569 
L 669.019111 544.405922 
L 675.670385 544.86437 
L 682.127243 545.107248 
L 688.373911 545.113892 
L 694.394616 544.863637 
L 700.173584 544.335818 
L 705.695041 543.509773 
L 710.943216 542.364835 
L 715.902333 540.880341 
L 718.268567 540.004303 
L 720.556621 539.035626 
L 722.764524 537.971729 
L 724.890304 536.810027 
L 726.93199 535.547937 
L 728.88761 534.182877 
L 730.755193 532.712264 
L 732.532766 531.133514 
L 734.218358 529.444045 
L 735.809998 527.641273 
L 737.305713 525.722616 
L 738.703532 523.685489 
L 738.703532 523.685489 
L 740.001919 521.528312 
L 741.20108 519.253507 
L 742.301658 516.864498 
L 743.304293 514.364708 
L 744.209629 511.757561 
L 745.018307 509.04648 
L 745.730969 506.23489 
L 746.348256 503.326214 
L 747.299277 497.231299 
L 747.876504 490.789125 
L 748.085074 484.02708 
L 747.930121 476.972554 
L 747.416782 469.652938 
L 746.550192 462.09562 
L 745.335487 454.327989 
L 743.777802 446.377436 
L 741.882272 438.27135 
L 739.654033 430.03712 
L 737.098221 421.702136 
L 734.219971 413.293788 
L 731.024418 404.839464 
L 727.516699 396.366554 
L 723.701949 387.902448 
L 719.585302 379.474536 
L 715.171896 371.110206 
L 710.466865 362.836848 
L 705.475345 354.681852 
L 700.202471 346.672608 
L 694.653379 338.836504 
L 688.833204 331.20093 
L 682.747083 323.793276 
L 676.40015 316.640931 
L 669.797541 309.771284 
L 662.944391 303.211726 
L 655.845837 296.989645 
L 648.507013 291.132432 
L 644.749105 288.34921 
L 640.933055 285.667475 
L 637.059506 283.090652 
L 633.129099 280.622164 
L 629.142477 278.265435 
L 625.100281 276.023889 
L 621.003152 273.900949 
L 616.851734 271.900039 
L 612.646668 270.024582 
L 608.388597 268.278003 
L 604.078161 266.663725 
L 599.716002 265.185172 
L 595.302764 263.845766 
L 590.839088 262.648933 
L 586.325615 261.598096 
L 581.762988 260.696678 
L 577.151848 259.948104 
L 572.492838 259.355796 
L 567.7866 258.923178 
L 563.033775 258.653675 
L 558.235005 258.55071 
L 553.390932 258.617706 
L 548.502199 258.858088 
L 543.569447 259.275278 
L 538.593318 259.872701 
L 533.574454 260.65378 
L 528.513497 261.62194 
L 523.41109 262.780603 
L 518.267872 264.133193 
L 513.084488 265.683134 
L 507.861579 267.433851 
L 502.599786 269.388765 
L 497.299752 271.551302 
L 491.962119 273.924884 
L 486.587528 276.512936 
L 486.587528 276.512936 
" style="fill:none;stroke:#ffa500;stroke-linecap:square;stroke-opacity:0.3;stroke-width:8;"/>
   </g>
   <g id="patch_3">
    <path d="M 247.689637 1008 
L 247.689637 138.24 
" style="fill:none;stroke:#000000;stroke-linecap:square;stroke-linejoin:miter;stroke-width:0.8;"/>
   </g>
   <g id="patch_4">
    <path d="M 933.110363 1008 
L 933.110363 138.24 
" style="fill:none;stroke:#000000;stroke-linecap:square;stroke-linejoin:miter;stroke-width:0.8;"/>
   </g>
   <g id="patch_5">
    <path d="M 247.689637 1008 
L 933.110363 1008 
" style="fill:none;stroke:#000000;stroke-linecap:square;stroke-linejoin:miter;stroke-width:0.8;"/>
   </g>
   <g id="patch_6">
    <path d="M 247.689637 138.24 
L 933.110363 138.24 
" style="fill:none;stroke:#000000;stroke-linecap:square;stroke-linejoin:miter;stroke-width:0.8;"/>
   </g>
   <g id="legend_1">
    <g id="patch_7">
     <path d="M 780.949425 204.9525 
L 926.110363 204.9525 
Q 928.110363 204.9525 928.110363 202.9525 
L 928.110363 145.24 
Q 928.110363 143.24 926.110363 143.24 
L 780.949425 143.24 
Q 778.949425 143.24 778.949425 145.24 
L 778.949425 202.9525 
Q 778.949425 204.9525 780.949425 204.9525 
z
" style="fill:#ffffff;opacity:0.8;stroke:#cccccc;stroke-linejoin:miter;"/>
    </g>
    <g id="line2d_15">
     <path d="M 782.949425 151.338437 
L 802.949425 151.338437 
" style="fill:none;stroke:#008000;stroke-linecap:square;stroke-width:4;"/>
    </g>
    <g id="line2d_16"/>
    <g id="text_12">
     <!-- B-Spline -->
     <defs>
      <path d="M 19.671875 34.8125 
L 19.671875 8.109375 
L 35.5 8.109375 
Q 43.453125 8.109375 47.28125 11.40625 
Q 51.125 14.703125 51.125 21.484375 
Q 51.125 28.328125 47.28125 31.5625 
Q 43.453125 34.8125 35.5 34.8125 
z
M 19.671875 64.796875 
L 19.671875 42.828125 
L 34.28125 42.828125 
Q 41.5 42.828125 45.03125 45.53125 
Q 48.578125 48.25 48.578125 53.8125 
Q 48.578125 59.328125 45.03125 62.0625 
Q 41.5 64.796875 34.28125 64.796875 
z
M 9.8125 72.90625 
L 35.015625 72.90625 
Q 46.296875 72.90625 52.390625 68.21875 
Q 58.5 63.53125 58.5 54.890625 
Q 58.5 48.1875 55.375 44.234375 
Q 52.25 40.28125 46.1875 39.3125 
Q 53.46875 37.75 57.5 32.78125 
Q 61.53125 27.828125 61.53125 20.40625 
Q 61.53125 10.640625 54.890625 5.3125 
Q 48.25 0 35.984375 0 
L 9.8125 0 
z
" id="DejaVuSans-66"/>
      <path d="M 4.890625 31.390625 
L 31.203125 31.390625 
L 31.203125 23.390625 
L 4.890625 23.390625 
z
" id="DejaVuSans-45"/>
      <path d="M 53.515625 70.515625 
L 53.515625 60.890625 
Q 47.90625 63.578125 42.921875 64.890625 
Q 37.9375 66.21875 33.296875 66.21875 
Q 25.25 66.21875 20.875 63.09375 
Q 16.5 59.96875 16.5 54.203125 
Q 16.5 49.359375 19.40625 46.890625 
Q 22.3125 44.4375 30.421875 42.921875 
L 36.375 41.703125 
Q 47.40625 39.59375 52.65625 34.296875 
Q 57.90625 29 57.90625 20.125 
Q 57.90625 9.515625 50.796875 4.046875 
Q 43.703125 -1.421875 29.984375 -1.421875 
Q 24.8125 -1.421875 18.96875 -0.25 
Q 13.140625 0.921875 6.890625 3.21875 
L 6.890625 13.375 
Q 12.890625 10.015625 18.65625 8.296875 
Q 24.421875 6.59375 29.984375 6.59375 
Q 38.421875 6.59375 43.015625 9.90625 
Q 47.609375 13.234375 47.609375 19.390625 
Q 47.609375 24.75 44.3125 27.78125 
Q 41.015625 30.8125 33.5 32.328125 
L 27.484375 33.5 
Q 16.453125 35.6875 11.515625 40.375 
Q 6.59375 45.0625 6.59375 53.421875 
Q 6.59375 63.09375 13.40625 68.65625 
Q 20.21875 74.21875 32.171875 74.21875 
Q 37.3125 74.21875 42.625 73.28125 
Q 47.953125 72.359375 53.515625 70.515625 
z
" id="DejaVuSans-83"/>
      <path d="M 18.109375 8.203125 
L 18.109375 -20.796875 
L 9.078125 -20.796875 
L 9.078125 54.6875 
L 18.109375 54.6875 
L 18.109375 46.390625 
Q 20.953125 51.265625 25.265625 53.625 
Q 29.59375 56 35.59375 56 
Q 45.5625 56 51.78125 48.09375 
Q 58.015625 40.1875 58.015625 27.296875 
Q 58.015625 14.40625 51.78125 6.484375 
Q 45.5625 -1.421875 35.59375 -1.421875 
Q 29.59375 -1.421875 25.265625 0.953125 
Q 20.953125 3.328125 18.109375 8.203125 
z
M 48.6875 27.296875 
Q 48.6875 37.203125 44.609375 42.84375 
Q 40.53125 48.484375 33.40625 48.484375 
Q 26.265625 48.484375 22.1875 42.84375 
Q 18.109375 37.203125 18.109375 27.296875 
Q 18.109375 17.390625 22.1875 11.75 
Q 26.265625 6.109375 33.40625 6.109375 
Q 40.53125 6.109375 44.609375 11.75 
Q 48.6875 17.390625 48.6875 27.296875 
z
" id="DejaVuSans-112"/>
      <path d="M 9.421875 75.984375 
L 18.40625 75.984375 
L 18.40625 0 
L 9.421875 0 
z
" id="DejaVuSans-108"/>
      <path d="M 9.421875 54.6875 
L 18.40625 54.6875 
L 18.40625 0 
L 9.421875 0 
z
M 9.421875 75.984375 
L 18.40625 75.984375 
L 18.40625 64.59375 
L 9.421875 64.59375 
z
" id="DejaVuSans-105"/>
      <path d="M 54.890625 33.015625 
L 54.890625 0 
L 45.90625 0 
L 45.90625 32.71875 
Q 45.90625 40.484375 42.875 44.328125 
Q 39.84375 48.1875 33.796875 48.1875 
Q 26.515625 48.1875 22.3125 43.546875 
Q 18.109375 38.921875 18.109375 30.90625 
L 18.109375 0 
L 9.078125 0 
L 9.078125 54.6875 
L 18.109375 54.6875 
L 18.109375 46.1875 
Q 21.34375 51.125 25.703125 53.5625 
Q 30.078125 56 35.796875 56 
Q 45.21875 56 50.046875 50.171875 
Q 54.890625 44.34375 54.890625 33.015625 
z
" id="DejaVuSans-110"/>
      <path d="M 56.203125 29.59375 
L 56.203125 25.203125 
L 14.890625 25.203125 
Q 15.484375 15.921875 20.484375 11.0625 
Q 25.484375 6.203125 34.421875 6.203125 
Q 39.59375 6.203125 44.453125 7.46875 
Q 49.3125 8.734375 54.109375 11.28125 
L 54.109375 2.78125 
Q 49.265625 0.734375 44.1875 -0.34375 
Q 39.109375 -1.421875 33.890625 -1.421875 
Q 20.796875 -1.421875 13.15625 6.1875 
Q 5.515625 13.8125 5.515625 26.8125 
Q 5.515625 40.234375 12.765625 48.109375 
Q 20.015625 56 32.328125 56 
Q 43.359375 56 49.78125 48.890625 
Q 56.203125 41.796875 56.203125 29.59375 
z
M 47.21875 32.234375 
Q 47.125 39.59375 43.09375 43.984375 
Q 39.0625 48.390625 32.421875 48.390625 
Q 24.90625 48.390625 20.390625 44.140625 
Q 15.875 39.890625 15.1875 32.171875 
z
" id="DejaVuSans-101"/>
     </defs>
     <g transform="translate(810.949425 154.838437)scale(0.1 -0.1)">
      <use xlink:href="#DejaVuSans-66"/>
      <use x="68.603516" xlink:href="#DejaVuSans-45"/>
      <use x="104.6875" xlink:href="#DejaVuSans-83"/>
      <use x="168.164062" xlink:href="#DejaVuSans-112"/>
      <use x="231.640625" xlink:href="#DejaVuSans-108"/>
      <use x="259.423828" xlink:href="#DejaVuSans-105"/>
      <use x="287.207031" xlink:href="#DejaVuSans-110"/>
      <use x="350.585938" xlink:href="#DejaVuSans-101"/>
     </g>
    </g>
    <g id="line2d_17">
     <path d="M 782.949425 166.016562 
L 802.949425 166.016562 
" style="fill:none;stroke:#ffa500;stroke-linecap:square;stroke-opacity:0.3;stroke-width:8;"/>
    </g>
    <g id="line2d_18"/>
    <g id="text_13">
     <!-- Bezier points -->
     <defs>
      <path d="M 5.515625 54.6875 
L 48.1875 54.6875 
L 48.1875 46.484375 
L 14.40625 7.171875 
L 48.1875 7.171875 
L 48.1875 0 
L 4.296875 0 
L 4.296875 8.203125 
L 38.09375 47.515625 
L 5.515625 47.515625 
z
" id="DejaVuSans-122"/>
      <path d="M 41.109375 46.296875 
Q 39.59375 47.171875 37.8125 47.578125 
Q 36.03125 48 33.890625 48 
Q 26.265625 48 22.1875 43.046875 
Q 18.109375 38.09375 18.109375 28.8125 
L 18.109375 0 
L 9.078125 0 
L 9.078125 54.6875 
L 18.109375 54.6875 
L 18.109375 46.1875 
Q 20.953125 51.171875 25.484375 53.578125 
Q 30.03125 56 36.53125 56 
Q 37.453125 56 38.578125 55.875 
Q 39.703125 55.765625 41.0625 55.515625 
z
" id="DejaVuSans-114"/>
      <path id="DejaVuSans-32"/>
      <path d="M 30.609375 48.390625 
Q 23.390625 48.390625 19.1875 42.75 
Q 14.984375 37.109375 14.984375 27.296875 
Q 14.984375 17.484375 19.15625 11.84375 
Q 23.34375 6.203125 30.609375 6.203125 
Q 37.796875 6.203125 41.984375 11.859375 
Q 46.1875 17.53125 46.1875 27.296875 
Q 46.1875 37.015625 41.984375 42.703125 
Q 37.796875 48.390625 30.609375 48.390625 
z
M 30.609375 56 
Q 42.328125 56 49.015625 48.375 
Q 55.71875 40.765625 55.71875 27.296875 
Q 55.71875 13.875 49.015625 6.21875 
Q 42.328125 -1.421875 30.609375 -1.421875 
Q 18.84375 -1.421875 12.171875 6.21875 
Q 5.515625 13.875 5.515625 27.296875 
Q 5.515625 40.765625 12.171875 48.375 
Q 18.84375 56 30.609375 56 
z
" id="DejaVuSans-111"/>
      <path d="M 18.3125 70.21875 
L 18.3125 54.6875 
L 36.8125 54.6875 
L 36.8125 47.703125 
L 18.3125 47.703125 
L 18.3125 18.015625 
Q 18.3125 11.328125 20.140625 9.421875 
Q 21.96875 7.515625 27.59375 7.515625 
L 36.8125 7.515625 
L 36.8125 0 
L 27.59375 0 
Q 17.1875 0 13.234375 3.875 
Q 9.28125 7.765625 9.28125 18.015625 
L 9.28125 47.703125 
L 2.6875 47.703125 
L 2.6875 54.6875 
L 9.28125 54.6875 
L 9.28125 70.21875 
z
" id="DejaVuSans-116"/>
      <path d="M 44.28125 53.078125 
L 44.28125 44.578125 
Q 40.484375 46.53125 36.375 47.5 
Q 32.28125 48.484375 27.875 48.484375 
Q 21.1875 48.484375 17.84375 46.4375 
Q 14.5 44.390625 14.5 40.28125 
Q 14.5 37.15625 16.890625 35.375 
Q 19.28125 33.59375 26.515625 31.984375 
L 29.59375 31.296875 
Q 39.15625 29.25 43.1875 25.515625 
Q 47.21875 21.78125 47.21875 15.09375 
Q 47.21875 7.46875 41.1875 3.015625 
Q 35.15625 -1.421875 24.609375 -1.421875 
Q 20.21875 -1.421875 15.453125 -0.5625 
Q 10.6875 0.296875 5.421875 2 
L 5.421875 11.28125 
Q 10.40625 8.6875 15.234375 7.390625 
Q 20.0625 6.109375 24.8125 6.109375 
Q 31.15625 6.109375 34.5625 8.28125 
Q 37.984375 10.453125 37.984375 14.40625 
Q 37.984375 18.0625 35.515625 20.015625 
Q 33.0625 21.96875 24.703125 23.78125 
L 21.578125 24.515625 
Q 13.234375 26.265625 9.515625 29.90625 
Q 5.8125 33.546875 5.8125 39.890625 
Q 5.8125 47.609375 11.28125 51.796875 
Q 16.75 56 26.8125 56 
Q 31.78125 56 36.171875 55.265625 
Q 40.578125 54.546875 44.28125 53.078125 
z
" id="DejaVuSans-115"/>
     </defs>
     <g transform="translate(810.949425 169.516562)scale(0.1 -0.1)">
      <use xlink:href="#DejaVuSans-66"/>
      <use x="68.603516" xlink:href="#DejaVuSans-101"/>
      <use x="130.126953" xlink:href="#DejaVuSans-122"/>
      <use x="182.617188" xlink:href="#DejaVuSans-105"/>
      <use x="210.400391" xlink:href="#DejaVuSans-101"/>
      <use x="271.923828" xlink:href="#DejaVuSans-114"/>
      <use x="313.037109" xlink:href="#DejaVuSans-32"/>
      <use x="344.824219" xlink:href="#DejaVuSans-112"/>
      <use x="408.300781" xlink:href="#DejaVuSans-111"/>
      <use x="469.482422" xlink:href="#DejaVuSans-105"/>
      <use x="497.265625" xlink:href="#DejaVuSans-110"/>
      <use x="560.644531" xlink:href="#DejaVuSans-116"/>
      <use x="599.853516" xlink:href="#DejaVuSans-115"/>
     </g>
    </g>
    <g id="PathCollection_3">
     <g>
      <use style="fill:#ff0000;stroke:#ff0000;" x="792.949425" xlink:href="#m8e8e803278" y="181.569687"/>
     </g>
    </g>
    <g id="text_14">
     <!-- B-Spline control points -->
     <defs>
      <path d="M 48.78125 52.59375 
L 48.78125 44.1875 
Q 44.96875 46.296875 41.140625 47.34375 
Q 37.3125 48.390625 33.40625 48.390625 
Q 24.65625 48.390625 19.8125 42.84375 
Q 14.984375 37.3125 14.984375 27.296875 
Q 14.984375 17.28125 19.8125 11.734375 
Q 24.65625 6.203125 33.40625 6.203125 
Q 37.3125 6.203125 41.140625 7.25 
Q 44.96875 8.296875 48.78125 10.40625 
L 48.78125 2.09375 
Q 45.015625 0.34375 40.984375 -0.53125 
Q 36.96875 -1.421875 32.421875 -1.421875 
Q 20.0625 -1.421875 12.78125 6.34375 
Q 5.515625 14.109375 5.515625 27.296875 
Q 5.515625 40.671875 12.859375 48.328125 
Q 20.21875 56 33.015625 56 
Q 37.15625 56 41.109375 55.140625 
Q 45.0625 54.296875 48.78125 52.59375 
z
" id="DejaVuSans-99"/>
     </defs>
     <g transform="translate(810.949425 184.194687)scale(0.1 -0.1)">
      <use xlink:href="#DejaVuSans-66"/>
      <use x="68.603516" xlink:href="#DejaVuSans-45"/>
      <use x="104.6875" xlink:href="#DejaVuSans-83"/>
      <use x="168.164062" xlink:href="#DejaVuSans-112"/>
      <use x="231.640625" xlink:href="#DejaVuSans-108"/>
      <use x="259.423828" xlink:href="#DejaVuSans-105"/>
      <use x="287.207031" xlink:href="#DejaVuSans-110"/>
      <use x="350.585938" xlink:href="#DejaVuSans-101"/>
      <use x="412.109375" xlink:href="#DejaVuSans-32"/>
      <use x="443.896484" xlink:href="#DejaVuSans-99"/>
      <use x="498.876953" xlink:href="#DejaVuSans-111"/>
      <use x="560.058594" xlink:href="#DejaVuSans-110"/>
      <use x="623.4375" xlink:href="#DejaVuSans-116"/>
      <use x="662.646484" xlink:href="#DejaVuSans-114"/>
      <use x="703.728516" xlink:href="#DejaVuSans-111"/>
      <use x="764.910156" xlink:href="#DejaVuSans-108"/>
      <use x="792.693359" xlink:href="#DejaVuSans-32"/>
      <use x="824.480469" xlink:href="#DejaVuSans-112"/>
      <use x="887.957031" xlink:href="#DejaVuSans-111"/>
      <use x="949.138672" xlink:href="#DejaVuSans-105"/>
      <use x="976.921875" xlink:href="#DejaVuSans-110"/>
      <use x="1040.300781" xlink:href="#DejaVuSans-116"/>
      <use x="1079.509766" xlink:href="#DejaVuSans-115"/>
     </g>
    </g>
    <g id="PathCollection_4">
     <g>
      <use style="fill:#0000ff;stroke:#0000ff;stroke-width:1.5;" x="792.949425" xlink:href="#m55f3b72801" y="196.247812"/>
     </g>
    </g>
    <g id="text_15">
     <!-- Bezier control points -->
     <g transform="translate(810.949425 198.872812)scale(0.1 -0.1)">
      <use xlink:href="#DejaVuSans-66"/>
      <use x="68.603516" xlink:href="#DejaVuSans-101"/>
      <use x="130.126953" xlink:href="#DejaVuSans-122"/>
      <use x="182.617188" xlink:href="#DejaVuSans-105"/>
      <use x="210.400391" xlink:href="#DejaVuSans-101"/>
      <use x="271.923828" xlink:href="#DejaVuSans-114"/>
      <use x="313.037109" xlink:href="#DejaVuSans-32"/>
      <use x="344.824219" xlink:href="#DejaVuSans-99"/>
      <use x="399.804688" xlink:href="#DejaVuSans-111"/>
      <use x="460.986328" xlink:href="#DejaVuSans-110"/>
      <use x="524.365234" xlink:href="#DejaVuSans-116"/>
      <use x="563.574219" xlink:href="#DejaVuSans-114"/>
      <use x="604.65625" xlink:href="#DejaVuSans-111"/>
      <use x="665.837891" xlink:href="#DejaVuSans-108"/>
      <use x="693.621094" xlink:href="#DejaVuSans-32"/>
      <use x="725.408203" xlink:href="#DejaVuSans-112"/>
      <use x="788.884766" xlink:href="#DejaVuSans-111"/>
      <use x="850.066406" xlink:href="#DejaVuSans-105"/>
      <use x="877.849609" xlink:href="#DejaVuSans-110"/>
      <use x="941.228516" xlink:href="#DejaVuSans-116"/>
      <use x="980.4375" xlink:href="#DejaVuSans-115"/>
     </g>
    </g>
   </g>
  </g>
 </g>
 <defs>
  <clipPath id="p63c5cce7c8">
   <rect height="869.76" width="685.420725" x="247.689637" y="138.24"/>
  </clipPath>
 </defs>
</svg>
