<?xml version="1.0" encoding="utf-8" standalone="no"?>
<!DOCTYPE svg PUBLIC "-//W3C//DTD SVG 1.1//EN"
  "http://www.w3.org/Graphics/SVG/1.1/DTD/svg11.dtd">
<!-- Created with matplotlib (https://matplotlib.org/) -->
<svg height="1020.470825pt" version="1.1" viewBox="0 0 1135.806994 1020.470825" width="1135.806994pt" xmlns="http://www.w3.org/2000/svg" xmlns:xlink="http://www.w3.org/1999/xlink">
 <defs>
  <style type="text/css">
*{stroke-linecap:butt;stroke-linejoin:round;}
  </style>
 </defs>
 <g id="figure_1">
  <g id="patch_1">
   <path d="M 0 1020.470825 
L 1135.806994 1020.470825 
L 1135.806994 0 
L 0 0 
z
" style="fill:none;"/>
  </g>
  <g id="axes_1">
   <g id="patch_2">
    <path d="M 242.232563 869.76 
L 1135.032563 869.76 
L 1135.032563 -0 
L 242.232563 -0 
z
" style="fill:none;"/>
   </g>
   <g id="matplotlib.axis_1">
    <g id="xtick_1">
     <g id="line2d_1">
      <defs>
       <path d="M 0 0 
L 0 -11.52 
" id="mf61ece24ec" style="stroke:#231f20;stroke-width:5;"/>
      </defs>
      <g>
       <use style="fill:#231f20;stroke:#231f20;stroke-width:5;" x="282.814381" xlink:href="#mf61ece24ec" y="869.76"/>
      </g>
     </g>
     <g id="text_1">
      <!-- 0 -->
      <defs>
       <path d="M 31.78125 66.40625 
Q 24.171875 66.40625 20.328125 58.90625 
Q 16.5 51.421875 16.5 36.375 
Q 16.5 21.390625 20.328125 13.890625 
Q 24.171875 6.390625 31.78125 6.390625 
Q 39.453125 6.390625 43.28125 13.890625 
Q 47.125 21.390625 47.125 36.375 
Q 47.125 51.421875 43.28125 58.90625 
Q 39.453125 66.40625 31.78125 66.40625 
z
M 31.78125 74.21875 
Q 44.046875 74.21875 50.515625 64.515625 
Q 56.984375 54.828125 56.984375 36.375 
Q 56.984375 17.96875 50.515625 8.265625 
Q 44.046875 -1.421875 31.78125 -1.421875 
Q 19.53125 -1.421875 13.0625 8.265625 
Q 6.59375 17.96875 6.59375 36.375 
Q 6.59375 54.828125 13.0625 64.515625 
Q 19.53125 74.21875 31.78125 74.21875 
z
" id="DejaVuSans-48"/>
      </defs>
      <g transform="translate(262.136256 940.045044)scale(0.65 -0.65)">
       <use xlink:href="#DejaVuSans-48"/>
      </g>
     </g>
    </g>
    <g id="xtick_2">
     <g id="line2d_2">
      <g>
       <use style="fill:#231f20;stroke:#231f20;stroke-width:5;" x="445.141653" xlink:href="#mf61ece24ec" y="869.76"/>
      </g>
     </g>
     <g id="text_2">
      <!-- 5 -->
      <defs>
       <path d="M 10.796875 72.90625 
L 49.515625 72.90625 
L 49.515625 64.59375 
L 19.828125 64.59375 
L 19.828125 46.734375 
Q 21.96875 47.46875 24.109375 47.828125 
Q 26.265625 48.1875 28.421875 48.1875 
Q 40.625 48.1875 47.75 41.5 
Q 54.890625 34.8125 54.890625 23.390625 
Q 54.890625 11.625 47.5625 5.09375 
Q 40.234375 -1.421875 26.90625 -1.421875 
Q 22.3125 -1.421875 17.546875 -0.640625 
Q 12.796875 0.140625 7.71875 1.703125 
L 7.71875 11.625 
Q 12.109375 9.234375 16.796875 8.0625 
Q 21.484375 6.890625 26.703125 6.890625 
Q 35.15625 6.890625 40.078125 11.328125 
Q 45.015625 15.765625 45.015625 23.390625 
Q 45.015625 31 40.078125 35.4375 
Q 35.15625 39.890625 26.703125 39.890625 
Q 22.75 39.890625 18.8125 39.015625 
Q 14.890625 38.140625 10.796875 36.28125 
z
" id="DejaVuSans-53"/>
      </defs>
      <g transform="translate(424.463528 940.045044)scale(0.65 -0.65)">
       <use xlink:href="#DejaVuSans-53"/>
      </g>
     </g>
    </g>
    <g id="xtick_3">
     <g id="line2d_3">
      <g>
       <use style="fill:#231f20;stroke:#231f20;stroke-width:5;" x="607.468926" xlink:href="#mf61ece24ec" y="869.76"/>
      </g>
     </g>
     <g id="text_3">
      <!-- 10 -->
      <defs>
       <path d="M 12.40625 8.296875 
L 28.515625 8.296875 
L 28.515625 63.921875 
L 10.984375 60.40625 
L 10.984375 69.390625 
L 28.421875 72.90625 
L 38.28125 72.90625 
L 38.28125 8.296875 
L 54.390625 8.296875 
L 54.390625 0 
L 12.40625 0 
z
" id="DejaVuSans-49"/>
      </defs>
      <g transform="translate(566.112676 940.045044)scale(0.65 -0.65)">
       <use xlink:href="#DejaVuSans-49"/>
       <use x="63.623047" xlink:href="#DejaVuSans-48"/>
      </g>
     </g>
    </g>
    <g id="xtick_4">
     <g id="line2d_4">
      <g>
       <use style="fill:#231f20;stroke:#231f20;stroke-width:5;" x="769.796199" xlink:href="#mf61ece24ec" y="869.76"/>
      </g>
     </g>
     <g id="text_4">
      <!-- 15 -->
      <g transform="translate(728.439949 940.045044)scale(0.65 -0.65)">
       <use xlink:href="#DejaVuSans-49"/>
       <use x="63.623047" xlink:href="#DejaVuSans-53"/>
      </g>
     </g>
    </g>
    <g id="xtick_5">
     <g id="line2d_5">
      <g>
       <use style="fill:#231f20;stroke:#231f20;stroke-width:5;" x="932.123472" xlink:href="#mf61ece24ec" y="869.76"/>
      </g>
     </g>
     <g id="text_5">
      <!-- 20 -->
      <defs>
       <path d="M 19.1875 8.296875 
L 53.609375 8.296875 
L 53.609375 0 
L 7.328125 0 
L 7.328125 8.296875 
Q 12.9375 14.109375 22.625 23.890625 
Q 32.328125 33.6875 34.8125 36.53125 
Q 39.546875 41.84375 41.421875 45.53125 
Q 43.3125 49.21875 43.3125 52.78125 
Q 43.3125 58.59375 39.234375 62.25 
Q 35.15625 65.921875 28.609375 65.921875 
Q 23.96875 65.921875 18.8125 64.3125 
Q 13.671875 62.703125 7.8125 59.421875 
L 7.8125 69.390625 
Q 13.765625 71.78125 18.9375 73 
Q 24.125 74.21875 28.421875 74.21875 
Q 39.75 74.21875 46.484375 68.546875 
Q 53.21875 62.890625 53.21875 53.421875 
Q 53.21875 48.921875 51.53125 44.890625 
Q 49.859375 40.875 45.40625 35.40625 
Q 44.1875 33.984375 37.640625 27.21875 
Q 31.109375 20.453125 19.1875 8.296875 
z
" id="DejaVuSans-50"/>
      </defs>
      <g transform="translate(890.767222 940.045044)scale(0.65 -0.65)">
       <use xlink:href="#DejaVuSans-50"/>
       <use x="63.623047" xlink:href="#DejaVuSans-48"/>
      </g>
     </g>
    </g>
    <g id="xtick_6">
     <g id="line2d_6">
      <g>
       <use style="fill:#231f20;stroke:#231f20;stroke-width:5;" x="1094.450744" xlink:href="#mf61ece24ec" y="869.76"/>
      </g>
     </g>
     <g id="text_6">
      <!-- 25 -->
      <g transform="translate(1053.094494 940.045044)scale(0.65 -0.65)">
       <use xlink:href="#DejaVuSans-50"/>
       <use x="63.623047" xlink:href="#DejaVuSans-53"/>
      </g>
     </g>
    </g>
    <g id="text_7">
     <!-- SNR (dB) -->
     <defs>
      <path d="M 53.515625 70.515625 
L 53.515625 60.890625 
Q 47.90625 63.578125 42.921875 64.890625 
Q 37.9375 66.21875 33.296875 66.21875 
Q 25.25 66.21875 20.875 63.09375 
Q 16.5 59.96875 16.5 54.203125 
Q 16.5 49.359375 19.40625 46.890625 
Q 22.3125 44.4375 30.421875 42.921875 
L 36.375 41.703125 
Q 47.40625 39.59375 52.65625 34.296875 
Q 57.90625 29 57.90625 20.125 
Q 57.90625 9.515625 50.796875 4.046875 
Q 43.703125 -1.421875 29.984375 -1.421875 
Q 24.8125 -1.421875 18.96875 -0.25 
Q 13.140625 0.921875 6.890625 3.21875 
L 6.890625 13.375 
Q 12.890625 10.015625 18.65625 8.296875 
Q 24.421875 6.59375 29.984375 6.59375 
Q 38.421875 6.59375 43.015625 9.90625 
Q 47.609375 13.234375 47.609375 19.390625 
Q 47.609375 24.75 44.3125 27.78125 
Q 41.015625 30.8125 33.5 32.328125 
L 27.484375 33.5 
Q 16.453125 35.6875 11.515625 40.375 
Q 6.59375 45.0625 6.59375 53.421875 
Q 6.59375 63.09375 13.40625 68.65625 
Q 20.21875 74.21875 32.171875 74.21875 
Q 37.3125 74.21875 42.625 73.28125 
Q 47.953125 72.359375 53.515625 70.515625 
z
" id="DejaVuSans-83"/>
      <path d="M 9.8125 72.90625 
L 23.09375 72.90625 
L 55.421875 11.921875 
L 55.421875 72.90625 
L 64.984375 72.90625 
L 64.984375 0 
L 51.703125 0 
L 19.390625 60.984375 
L 19.390625 0 
L 9.8125 0 
z
" id="DejaVuSans-78"/>
      <path d="M 44.390625 34.1875 
Q 47.5625 33.109375 50.5625 29.59375 
Q 53.5625 26.078125 56.59375 19.921875 
L 66.609375 0 
L 56 0 
L 46.6875 18.703125 
Q 43.0625 26.03125 39.671875 28.421875 
Q 36.28125 30.8125 30.421875 30.8125 
L 19.671875 30.8125 
L 19.671875 0 
L 9.8125 0 
L 9.8125 72.90625 
L 32.078125 72.90625 
Q 44.578125 72.90625 50.734375 67.671875 
Q 56.890625 62.453125 56.890625 51.90625 
Q 56.890625 45.015625 53.6875 40.46875 
Q 50.484375 35.9375 44.390625 34.1875 
z
M 19.671875 64.796875 
L 19.671875 38.921875 
L 32.078125 38.921875 
Q 39.203125 38.921875 42.84375 42.21875 
Q 46.484375 45.515625 46.484375 51.90625 
Q 46.484375 58.296875 42.84375 61.546875 
Q 39.203125 64.796875 32.078125 64.796875 
z
" id="DejaVuSans-82"/>
      <path id="DejaVuSans-32"/>
      <path d="M 31 75.875 
Q 24.46875 64.65625 21.28125 53.65625 
Q 18.109375 42.671875 18.109375 31.390625 
Q 18.109375 20.125 21.3125 9.0625 
Q 24.515625 -2 31 -13.1875 
L 23.1875 -13.1875 
Q 15.875 -1.703125 12.234375 9.375 
Q 8.59375 20.453125 8.59375 31.390625 
Q 8.59375 42.28125 12.203125 53.3125 
Q 15.828125 64.359375 23.1875 75.875 
z
" id="DejaVuSans-40"/>
      <path d="M 45.40625 46.390625 
L 45.40625 75.984375 
L 54.390625 75.984375 
L 54.390625 0 
L 45.40625 0 
L 45.40625 8.203125 
Q 42.578125 3.328125 38.25 0.953125 
Q 33.9375 -1.421875 27.875 -1.421875 
Q 17.96875 -1.421875 11.734375 6.484375 
Q 5.515625 14.40625 5.515625 27.296875 
Q 5.515625 40.1875 11.734375 48.09375 
Q 17.96875 56 27.875 56 
Q 33.9375 56 38.25 53.625 
Q 42.578125 51.265625 45.40625 46.390625 
z
M 14.796875 27.296875 
Q 14.796875 17.390625 18.875 11.75 
Q 22.953125 6.109375 30.078125 6.109375 
Q 37.203125 6.109375 41.296875 11.75 
Q 45.40625 17.390625 45.40625 27.296875 
Q 45.40625 37.203125 41.296875 42.84375 
Q 37.203125 48.484375 30.078125 48.484375 
Q 22.953125 48.484375 18.875 42.84375 
Q 14.796875 37.203125 14.796875 27.296875 
z
" id="DejaVuSans-100"/>
      <path d="M 19.671875 34.8125 
L 19.671875 8.109375 
L 35.5 8.109375 
Q 43.453125 8.109375 47.28125 11.40625 
Q 51.125 14.703125 51.125 21.484375 
Q 51.125 28.328125 47.28125 31.5625 
Q 43.453125 34.8125 35.5 34.8125 
z
M 19.671875 64.796875 
L 19.671875 42.828125 
L 34.28125 42.828125 
Q 41.5 42.828125 45.03125 45.53125 
Q 48.578125 48.25 48.578125 53.8125 
Q 48.578125 59.328125 45.03125 62.0625 
Q 41.5 64.796875 34.28125 64.796875 
z
M 9.8125 72.90625 
L 35.015625 72.90625 
Q 46.296875 72.90625 52.390625 68.21875 
Q 58.5 63.53125 58.5 54.890625 
Q 58.5 48.1875 55.375 44.234375 
Q 52.25 40.28125 46.1875 39.3125 
Q 53.46875 37.75 57.5 32.78125 
Q 61.53125 27.828125 61.53125 20.40625 
Q 61.53125 10.640625 54.890625 5.3125 
Q 48.25 0 35.984375 0 
L 9.8125 0 
z
" id="DejaVuSans-66"/>
      <path d="M 8.015625 75.875 
L 15.828125 75.875 
Q 23.140625 64.359375 26.78125 53.3125 
Q 30.421875 42.28125 30.421875 31.390625 
Q 30.421875 20.453125 26.78125 9.375 
Q 23.140625 -1.703125 15.828125 -13.1875 
L 8.015625 -13.1875 
Q 14.5 -2 17.703125 9.0625 
Q 20.90625 20.125 20.90625 31.390625 
Q 20.90625 42.671875 17.703125 53.65625 
Q 14.5 64.65625 8.015625 75.875 
z
" id="DejaVuSans-41"/>
     </defs>
     <g transform="translate(542.484125 1006.952856)scale(0.65 -0.65)">
      <use xlink:href="#DejaVuSans-83"/>
      <use x="63.476562" xlink:href="#DejaVuSans-78"/>
      <use x="138.28125" xlink:href="#DejaVuSans-82"/>
      <use x="207.763672" xlink:href="#DejaVuSans-32"/>
      <use x="239.550781" xlink:href="#DejaVuSans-40"/>
      <use x="278.564453" xlink:href="#DejaVuSans-100"/>
      <use x="342.041016" xlink:href="#DejaVuSans-66"/>
      <use x="410.644531" xlink:href="#DejaVuSans-41"/>
     </g>
    </g>
   </g>
   <g id="matplotlib.axis_2">
    <g id="ytick_1">
     <g id="line2d_7">
      <path clip-path="url(#p0825e33288)" d="M 242.232563 741.854118 
L 1135.032563 741.854118 
" style="fill:none;stroke:#231f20;stroke-linecap:square;stroke-opacity:0.2;stroke-width:4;"/>
     </g>
     <g id="line2d_8">
      <defs>
       <path d="M 0 0 
L 11.52 0 
" id="m81b2478a42" style="stroke:#231f20;stroke-width:5;"/>
      </defs>
      <g>
       <use style="fill:#231f20;stroke:#231f20;stroke-width:5;" x="242.232563" xlink:href="#m81b2478a42" y="741.854118"/>
      </g>
     </g>
     <g id="text_8">
      <!-- 0.02 -->
      <defs>
       <path d="M 10.6875 12.40625 
L 21 12.40625 
L 21 0 
L 10.6875 0 
z
" id="DejaVuSans-46"/>
      </defs>
      <g transform="translate(76.15 766.54904)scale(0.65 -0.65)">
       <use xlink:href="#DejaVuSans-48"/>
       <use x="63.623047" xlink:href="#DejaVuSans-46"/>
       <use x="95.410156" xlink:href="#DejaVuSans-48"/>
       <use x="159.033203" xlink:href="#DejaVuSans-50"/>
      </g>
     </g>
    </g>
    <g id="ytick_2">
     <g id="line2d_9">
      <path clip-path="url(#p0825e33288)" d="M 242.232563 486.042353 
L 1135.032563 486.042353 
" style="fill:none;stroke:#231f20;stroke-linecap:square;stroke-opacity:0.2;stroke-width:4;"/>
     </g>
     <g id="line2d_10">
      <g>
       <use style="fill:#231f20;stroke:#231f20;stroke-width:5;" x="242.232563" xlink:href="#m81b2478a42" y="486.042353"/>
      </g>
     </g>
     <g id="text_9">
      <!-- 0.04 -->
      <defs>
       <path d="M 37.796875 64.3125 
L 12.890625 25.390625 
L 37.796875 25.390625 
z
M 35.203125 72.90625 
L 47.609375 72.90625 
L 47.609375 25.390625 
L 58.015625 25.390625 
L 58.015625 17.1875 
L 47.609375 17.1875 
L 47.609375 0 
L 37.796875 0 
L 37.796875 17.1875 
L 4.890625 17.1875 
L 4.890625 26.703125 
z
" id="DejaVuSans-52"/>
      </defs>
      <g transform="translate(76.15 510.737275)scale(0.65 -0.65)">
       <use xlink:href="#DejaVuSans-48"/>
       <use x="63.623047" xlink:href="#DejaVuSans-46"/>
       <use x="95.410156" xlink:href="#DejaVuSans-48"/>
       <use x="159.033203" xlink:href="#DejaVuSans-52"/>
      </g>
     </g>
    </g>
    <g id="ytick_3">
     <g id="line2d_11">
      <path clip-path="url(#p0825e33288)" d="M 242.232563 230.230588 
L 1135.032563 230.230588 
" style="fill:none;stroke:#231f20;stroke-linecap:square;stroke-opacity:0.2;stroke-width:4;"/>
     </g>
     <g id="line2d_12">
      <g>
       <use style="fill:#231f20;stroke:#231f20;stroke-width:5;" x="242.232563" xlink:href="#m81b2478a42" y="230.230588"/>
      </g>
     </g>
     <g id="text_10">
      <!-- 0.06 -->
      <defs>
       <path d="M 33.015625 40.375 
Q 26.375 40.375 22.484375 35.828125 
Q 18.609375 31.296875 18.609375 23.390625 
Q 18.609375 15.53125 22.484375 10.953125 
Q 26.375 6.390625 33.015625 6.390625 
Q 39.65625 6.390625 43.53125 10.953125 
Q 47.40625 15.53125 47.40625 23.390625 
Q 47.40625 31.296875 43.53125 35.828125 
Q 39.65625 40.375 33.015625 40.375 
z
M 52.59375 71.296875 
L 52.59375 62.3125 
Q 48.875 64.0625 45.09375 64.984375 
Q 41.3125 65.921875 37.59375 65.921875 
Q 27.828125 65.921875 22.671875 59.328125 
Q 17.53125 52.734375 16.796875 39.40625 
Q 19.671875 43.65625 24.015625 45.921875 
Q 28.375 48.1875 33.59375 48.1875 
Q 44.578125 48.1875 50.953125 41.515625 
Q 57.328125 34.859375 57.328125 23.390625 
Q 57.328125 12.15625 50.6875 5.359375 
Q 44.046875 -1.421875 33.015625 -1.421875 
Q 20.359375 -1.421875 13.671875 8.265625 
Q 6.984375 17.96875 6.984375 36.375 
Q 6.984375 53.65625 15.1875 63.9375 
Q 23.390625 74.21875 37.203125 74.21875 
Q 40.921875 74.21875 44.703125 73.484375 
Q 48.484375 72.75 52.59375 71.296875 
z
" id="DejaVuSans-54"/>
      </defs>
      <g transform="translate(76.15 254.92551)scale(0.65 -0.65)">
       <use xlink:href="#DejaVuSans-48"/>
       <use x="63.623047" xlink:href="#DejaVuSans-46"/>
       <use x="95.410156" xlink:href="#DejaVuSans-48"/>
       <use x="159.033203" xlink:href="#DejaVuSans-54"/>
      </g>
     </g>
    </g>
    <g id="text_11">
     <!-- Curvature Error ($μm^{-1}$) -->
     <defs>
      <path d="M 64.40625 67.28125 
L 64.40625 56.890625 
Q 59.421875 61.53125 53.78125 63.8125 
Q 48.140625 66.109375 41.796875 66.109375 
Q 29.296875 66.109375 22.65625 58.46875 
Q 16.015625 50.828125 16.015625 36.375 
Q 16.015625 21.96875 22.65625 14.328125 
Q 29.296875 6.6875 41.796875 6.6875 
Q 48.140625 6.6875 53.78125 8.984375 
Q 59.421875 11.28125 64.40625 15.921875 
L 64.40625 5.609375 
Q 59.234375 2.09375 53.4375 0.328125 
Q 47.65625 -1.421875 41.21875 -1.421875 
Q 24.65625 -1.421875 15.125 8.703125 
Q 5.609375 18.84375 5.609375 36.375 
Q 5.609375 53.953125 15.125 64.078125 
Q 24.65625 74.21875 41.21875 74.21875 
Q 47.75 74.21875 53.53125 72.484375 
Q 59.328125 70.75 64.40625 67.28125 
z
" id="DejaVuSans-67"/>
      <path d="M 8.5 21.578125 
L 8.5 54.6875 
L 17.484375 54.6875 
L 17.484375 21.921875 
Q 17.484375 14.15625 20.5 10.265625 
Q 23.53125 6.390625 29.59375 6.390625 
Q 36.859375 6.390625 41.078125 11.03125 
Q 45.3125 15.671875 45.3125 23.6875 
L 45.3125 54.6875 
L 54.296875 54.6875 
L 54.296875 0 
L 45.3125 0 
L 45.3125 8.40625 
Q 42.046875 3.421875 37.71875 1 
Q 33.40625 -1.421875 27.6875 -1.421875 
Q 18.265625 -1.421875 13.375 4.4375 
Q 8.5 10.296875 8.5 21.578125 
z
M 31.109375 56 
z
" id="DejaVuSans-117"/>
      <path d="M 41.109375 46.296875 
Q 39.59375 47.171875 37.8125 47.578125 
Q 36.03125 48 33.890625 48 
Q 26.265625 48 22.1875 43.046875 
Q 18.109375 38.09375 18.109375 28.8125 
L 18.109375 0 
L 9.078125 0 
L 9.078125 54.6875 
L 18.109375 54.6875 
L 18.109375 46.1875 
Q 20.953125 51.171875 25.484375 53.578125 
Q 30.03125 56 36.53125 56 
Q 37.453125 56 38.578125 55.875 
Q 39.703125 55.765625 41.0625 55.515625 
z
" id="DejaVuSans-114"/>
      <path d="M 2.984375 54.6875 
L 12.5 54.6875 
L 29.59375 8.796875 
L 46.6875 54.6875 
L 56.203125 54.6875 
L 35.6875 0 
L 23.484375 0 
z
" id="DejaVuSans-118"/>
      <path d="M 34.28125 27.484375 
Q 23.390625 27.484375 19.1875 25 
Q 14.984375 22.515625 14.984375 16.5 
Q 14.984375 11.71875 18.140625 8.90625 
Q 21.296875 6.109375 26.703125 6.109375 
Q 34.1875 6.109375 38.703125 11.40625 
Q 43.21875 16.703125 43.21875 25.484375 
L 43.21875 27.484375 
z
M 52.203125 31.203125 
L 52.203125 0 
L 43.21875 0 
L 43.21875 8.296875 
Q 40.140625 3.328125 35.546875 0.953125 
Q 30.953125 -1.421875 24.3125 -1.421875 
Q 15.921875 -1.421875 10.953125 3.296875 
Q 6 8.015625 6 15.921875 
Q 6 25.140625 12.171875 29.828125 
Q 18.359375 34.515625 30.609375 34.515625 
L 43.21875 34.515625 
L 43.21875 35.40625 
Q 43.21875 41.609375 39.140625 45 
Q 35.0625 48.390625 27.6875 48.390625 
Q 23 48.390625 18.546875 47.265625 
Q 14.109375 46.140625 10.015625 43.890625 
L 10.015625 52.203125 
Q 14.9375 54.109375 19.578125 55.046875 
Q 24.21875 56 28.609375 56 
Q 40.484375 56 46.34375 49.84375 
Q 52.203125 43.703125 52.203125 31.203125 
z
" id="DejaVuSans-97"/>
      <path d="M 18.3125 70.21875 
L 18.3125 54.6875 
L 36.8125 54.6875 
L 36.8125 47.703125 
L 18.3125 47.703125 
L 18.3125 18.015625 
Q 18.3125 11.328125 20.140625 9.421875 
Q 21.96875 7.515625 27.59375 7.515625 
L 36.8125 7.515625 
L 36.8125 0 
L 27.59375 0 
Q 17.1875 0 13.234375 3.875 
Q 9.28125 7.765625 9.28125 18.015625 
L 9.28125 47.703125 
L 2.6875 47.703125 
L 2.6875 54.6875 
L 9.28125 54.6875 
L 9.28125 70.21875 
z
" id="DejaVuSans-116"/>
      <path d="M 56.203125 29.59375 
L 56.203125 25.203125 
L 14.890625 25.203125 
Q 15.484375 15.921875 20.484375 11.0625 
Q 25.484375 6.203125 34.421875 6.203125 
Q 39.59375 6.203125 44.453125 7.46875 
Q 49.3125 8.734375 54.109375 11.28125 
L 54.109375 2.78125 
Q 49.265625 0.734375 44.1875 -0.34375 
Q 39.109375 -1.421875 33.890625 -1.421875 
Q 20.796875 -1.421875 13.15625 6.1875 
Q 5.515625 13.8125 5.515625 26.8125 
Q 5.515625 40.234375 12.765625 48.109375 
Q 20.015625 56 32.328125 56 
Q 43.359375 56 49.78125 48.890625 
Q 56.203125 41.796875 56.203125 29.59375 
z
M 47.21875 32.234375 
Q 47.125 39.59375 43.09375 43.984375 
Q 39.0625 48.390625 32.421875 48.390625 
Q 24.90625 48.390625 20.390625 44.140625 
Q 15.875 39.890625 15.1875 32.171875 
z
" id="DejaVuSans-101"/>
      <path d="M 9.8125 72.90625 
L 55.90625 72.90625 
L 55.90625 64.59375 
L 19.671875 64.59375 
L 19.671875 43.015625 
L 54.390625 43.015625 
L 54.390625 34.71875 
L 19.671875 34.71875 
L 19.671875 8.296875 
L 56.78125 8.296875 
L 56.78125 0 
L 9.8125 0 
z
" id="DejaVuSans-69"/>
      <path d="M 30.609375 48.390625 
Q 23.390625 48.390625 19.1875 42.75 
Q 14.984375 37.109375 14.984375 27.296875 
Q 14.984375 17.484375 19.15625 11.84375 
Q 23.34375 6.203125 30.609375 6.203125 
Q 37.796875 6.203125 41.984375 11.859375 
Q 46.1875 17.53125 46.1875 27.296875 
Q 46.1875 37.015625 41.984375 42.703125 
Q 37.796875 48.390625 30.609375 48.390625 
z
M 30.609375 56 
Q 42.328125 56 49.015625 48.375 
Q 55.71875 40.765625 55.71875 27.296875 
Q 55.71875 13.875 49.015625 6.21875 
Q 42.328125 -1.421875 30.609375 -1.421875 
Q 18.84375 -1.421875 12.171875 6.21875 
Q 5.515625 13.875 5.515625 27.296875 
Q 5.515625 40.765625 12.171875 48.375 
Q 18.84375 56 30.609375 56 
z
" id="DejaVuSans-111"/>
      <path d="M -1.3125 -20.796875 
L 13.375 54.6875 
L 22.40625 54.6875 
L 15.765625 20.65625 
Q 15.578125 19.625 15.421875 18.359375 
Q 15.28125 17.09375 15.28125 15.828125 
Q 15.28125 11.28125 18.140625 8.828125 
Q 21 6.390625 26.3125 6.390625 
Q 33.546875 6.390625 37.984375 10.484375 
Q 42.4375 14.59375 44 22.796875 
L 50.203125 54.6875 
L 59.1875 54.6875 
L 51.03125 12.640625 
Q 50.828125 11.71875 50.75 11.03125 
Q 50.6875 10.359375 50.6875 9.8125 
Q 50.6875 8.296875 51.296875 7.59375 
Q 51.90625 6.890625 53.21875 6.890625 
Q 53.71875 6.890625 54.5625 7.125 
Q 55.421875 7.375 56.984375 8.015625 
L 55.609375 0.78125 
Q 53.46875 -0.296875 51.515625 -0.859375 
Q 49.5625 -1.421875 47.703125 -1.421875 
Q 44.484375 -1.421875 42.65625 0.625 
Q 40.828125 2.6875 40.828125 6.296875 
Q 38.09375 2.390625 34.296875 0.484375 
Q 30.515625 -1.421875 25.390625 -1.421875 
Q 20.84375 -1.421875 17.453125 0.671875 
Q 14.0625 2.78125 12.984375 6.203125 
L 7.71875 -20.796875 
z
" id="DejaVuSans-Oblique-956"/>
      <path d="M 89.796875 33.015625 
L 83.40625 0 
L 74.421875 0 
L 80.71875 32.71875 
Q 81.109375 34.8125 81.296875 36.328125 
Q 81.5 37.84375 81.5 38.921875 
Q 81.5 43.3125 79.046875 45.75 
Q 76.609375 48.1875 72.21875 48.1875 
Q 65.671875 48.1875 60.546875 43.28125 
Q 55.421875 38.375 53.90625 30.515625 
L 47.90625 0 
L 38.921875 0 
L 45.3125 32.71875 
Q 45.703125 34.515625 45.890625 36.046875 
Q 46.09375 37.59375 46.09375 38.8125 
Q 46.09375 43.265625 43.65625 45.71875 
Q 41.21875 48.1875 36.921875 48.1875 
Q 30.28125 48.1875 25.140625 43.28125 
Q 20.015625 38.375 18.5 30.515625 
L 12.5 0 
L 3.515625 0 
L 14.203125 54.6875 
L 23.1875 54.6875 
L 21.484375 46.1875 
Q 25.140625 50.984375 30.046875 53.484375 
Q 34.96875 56 40.578125 56 
Q 46.53125 56 50.359375 52.875 
Q 54.203125 49.75 54.984375 44.1875 
Q 59.078125 49.953125 64.46875 52.96875 
Q 69.875 56 75.875 56 
Q 82.90625 56 86.734375 51.953125 
Q 90.578125 47.90625 90.578125 40.484375 
Q 90.578125 38.875 90.375 36.9375 
Q 90.1875 35.015625 89.796875 33.015625 
z
" id="DejaVuSans-Oblique-109"/>
      <path d="M 10.59375 35.5 
L 73.1875 35.5 
L 73.1875 27.203125 
L 10.59375 27.203125 
z
" id="DejaVuSans-8722"/>
     </defs>
     <g transform="translate(58.5 812.205)rotate(-90)scale(0.65 -0.65)">
      <use transform="translate(0 0.684375)" xlink:href="#DejaVuSans-67"/>
      <use transform="translate(69.824219 0.684375)" xlink:href="#DejaVuSans-117"/>
      <use transform="translate(133.203125 0.684375)" xlink:href="#DejaVuSans-114"/>
      <use transform="translate(174.316406 0.684375)" xlink:href="#DejaVuSans-118"/>
      <use transform="translate(233.496094 0.684375)" xlink:href="#DejaVuSans-97"/>
      <use transform="translate(294.775391 0.684375)" xlink:href="#DejaVuSans-116"/>
      <use transform="translate(333.984375 0.684375)" xlink:href="#DejaVuSans-117"/>
      <use transform="translate(397.363281 0.684375)" xlink:href="#DejaVuSans-114"/>
      <use transform="translate(438.476562 0.684375)" xlink:href="#DejaVuSans-101"/>
      <use transform="translate(500 0.684375)" xlink:href="#DejaVuSans-32"/>
      <use transform="translate(531.787109 0.684375)" xlink:href="#DejaVuSans-69"/>
      <use transform="translate(594.970703 0.684375)" xlink:href="#DejaVuSans-114"/>
      <use transform="translate(636.083984 0.684375)" xlink:href="#DejaVuSans-114"/>
      <use transform="translate(677.197266 0.684375)" xlink:href="#DejaVuSans-111"/>
      <use transform="translate(738.378906 0.684375)" xlink:href="#DejaVuSans-114"/>
      <use transform="translate(779.492188 0.684375)" xlink:href="#DejaVuSans-32"/>
      <use transform="translate(811.279297 0.684375)" xlink:href="#DejaVuSans-40"/>
      <use transform="translate(850.292969 0.684375)" xlink:href="#DejaVuSans-Oblique-956"/>
      <use transform="translate(913.916016 0.684375)" xlink:href="#DejaVuSans-Oblique-109"/>
      <use transform="translate(1015.978021 38.965625)scale(0.7)" xlink:href="#DejaVuSans-8722"/>
      <use transform="translate(1074.630365 38.965625)scale(0.7)" xlink:href="#DejaVuSans-49"/>
      <use transform="translate(1121.900872 0.684375)" xlink:href="#DejaVuSans-41"/>
     </g>
    </g>
   </g>
   <g id="LineCollection_1">
    <path clip-path="url(#p0825e33288)" d="M 282.814381 510.129904 
L 282.814381 257.000994 
" style="fill:none;stroke:#d81920;stroke-width:6;"/>
    <path clip-path="url(#p0825e33288)" d="M 315.279835 489.833977 
L 315.279835 282.490463 
" style="fill:none;stroke:#d81920;stroke-width:6;"/>
    <path clip-path="url(#p0825e33288)" d="M 347.74529 508.384633 
L 347.74529 271.99868 
" style="fill:none;stroke:#d81920;stroke-width:6;"/>
    <path clip-path="url(#p0825e33288)" d="M 380.210744 293.720625 
L 380.210744 59.451812 
" style="fill:none;stroke:#d81920;stroke-width:6;"/>
    <path clip-path="url(#p0825e33288)" d="M 412.676199 452.644202 
L 412.676199 194.17574 
" style="fill:none;stroke:#d81920;stroke-width:6;"/>
    <path clip-path="url(#p0825e33288)" d="M 445.141653 709.781971 
L 445.141653 526.83958 
" style="fill:none;stroke:#d81920;stroke-width:6;"/>
    <path clip-path="url(#p0825e33288)" d="M 477.607108 566.368098 
L 477.607108 289.555444 
" style="fill:none;stroke:#d81920;stroke-width:6;"/>
    <path clip-path="url(#p0825e33288)" d="M 510.072563 697.971242 
L 510.072563 564.597972 
" style="fill:none;stroke:#d81920;stroke-width:6;"/>
    <path clip-path="url(#p0825e33288)" d="M 542.538017 659.564866 
L 542.538017 436.236292 
" style="fill:none;stroke:#d81920;stroke-width:6;"/>
    <path clip-path="url(#p0825e33288)" d="M 575.003472 760.885005 
L 575.003472 584.4313 
" style="fill:none;stroke:#d81920;stroke-width:6;"/>
    <path clip-path="url(#p0825e33288)" d="M 607.468926 687.951243 
L 607.468926 519.938452 
" style="fill:none;stroke:#d81920;stroke-width:6;"/>
    <path clip-path="url(#p0825e33288)" d="M 639.934381 636.084645 
L 639.934381 455.907844 
" style="fill:none;stroke:#d81920;stroke-width:6;"/>
    <path clip-path="url(#p0825e33288)" d="M 672.399835 617.464172 
L 672.399835 558.966456 
" style="fill:none;stroke:#d81920;stroke-width:6;"/>
    <path clip-path="url(#p0825e33288)" d="M 704.86529 722.298596 
L 704.86529 599.329411 
" style="fill:none;stroke:#d81920;stroke-width:6;"/>
    <path clip-path="url(#p0825e33288)" d="M 737.330744 642.576808 
L 737.330744 537.730317 
" style="fill:none;stroke:#d81920;stroke-width:6;"/>
    <path clip-path="url(#p0825e33288)" d="M 769.796199 701.33315 
L 769.796199 592.670539 
" style="fill:none;stroke:#d81920;stroke-width:6;"/>
    <path clip-path="url(#p0825e33288)" d="M 802.261653 742.939895 
L 802.261653 661.445795 
" style="fill:none;stroke:#d81920;stroke-width:6;"/>
    <path clip-path="url(#p0825e33288)" d="M 834.727108 704.056287 
L 834.727108 576.606467 
" style="fill:none;stroke:#d81920;stroke-width:6;"/>
    <path clip-path="url(#p0825e33288)" d="M 867.192562 744.174292 
L 867.192562 635.883883 
" style="fill:none;stroke:#d81920;stroke-width:6;"/>
    <path clip-path="url(#p0825e33288)" d="M 899.658017 619.968916 
L 899.658017 573.131964 
" style="fill:none;stroke:#d81920;stroke-width:6;"/>
    <path clip-path="url(#p0825e33288)" d="M 932.123472 801.106377 
L 932.123472 712.865406 
" style="fill:none;stroke:#d81920;stroke-width:6;"/>
    <path clip-path="url(#p0825e33288)" d="M 964.588926 844.772704 
L 964.588926 780.480158 
" style="fill:none;stroke:#d81920;stroke-width:6;"/>
    <path clip-path="url(#p0825e33288)" d="M 997.054381 843.932403 
L 997.054381 748.087583 
" style="fill:none;stroke:#d81920;stroke-width:6;"/>
    <path clip-path="url(#p0825e33288)" d="M 1029.519835 780.254846 
L 1029.519835 684.759402 
" style="fill:none;stroke:#d81920;stroke-width:6;"/>
    <path clip-path="url(#p0825e33288)" d="M 1061.98529 782.055626 
L 1061.98529 620.886865 
" style="fill:none;stroke:#d81920;stroke-width:6;"/>
    <path clip-path="url(#p0825e33288)" d="M 1094.450744 815.284862 
L 1094.450744 725.85785 
" style="fill:none;stroke:#d81920;stroke-width:6;"/>
   </g>
   <g id="line2d_13">
    <path clip-path="url(#p0825e33288)" d="M 282.814381 383.565449 
L 315.279835 386.16222 
L 347.74529 390.191656 
L 380.210744 176.586218 
L 412.676199 323.409971 
L 445.141653 618.310776 
L 477.607108 427.961771 
L 510.072563 631.284607 
L 542.538017 547.900579 
L 575.003472 672.658153 
L 607.468926 603.944847 
L 639.934381 545.996245 
L 672.399835 588.215314 
L 704.86529 660.814003 
L 737.330744 590.153562 
L 769.796199 647.001844 
L 802.261653 702.192845 
L 834.727108 640.331377 
L 867.192562 690.029088 
L 899.658017 596.55044 
L 932.123472 756.985892 
L 964.588926 812.626431 
L 997.054381 796.009993 
L 1029.519835 732.507124 
L 1061.98529 701.471246 
L 1094.450744 770.571356 
" style="fill:none;stroke:#d81920;stroke-linecap:square;stroke-width:4;"/>
   </g>
   <g id="line2d_14">
    <defs>
     <path d="M 0 7.5 
C 1.989023 7.5 3.896849 6.709753 5.303301 5.303301 
C 6.709753 3.896849 7.5 1.989023 7.5 0 
C 7.5 -1.989023 6.709753 -3.896849 5.303301 -5.303301 
C 3.896849 -6.709753 1.989023 -7.5 0 -7.5 
C -1.989023 -7.5 -3.896849 -6.709753 -5.303301 -5.303301 
C -6.709753 -3.896849 -7.5 -1.989023 -7.5 0 
C -7.5 1.989023 -6.709753 3.896849 -5.303301 5.303301 
C -3.896849 6.709753 -1.989023 7.5 0 7.5 
z
" id="m80a0321e48" style="stroke:#d81920;"/>
    </defs>
    <g clip-path="url(#p0825e33288)">
     <use style="fill:#d81920;stroke:#d81920;" x="282.814381" xlink:href="#m80a0321e48" y="383.565449"/>
     <use style="fill:#d81920;stroke:#d81920;" x="315.279835" xlink:href="#m80a0321e48" y="386.16222"/>
     <use style="fill:#d81920;stroke:#d81920;" x="347.74529" xlink:href="#m80a0321e48" y="390.191656"/>
     <use style="fill:#d81920;stroke:#d81920;" x="380.210744" xlink:href="#m80a0321e48" y="176.586218"/>
     <use style="fill:#d81920;stroke:#d81920;" x="412.676199" xlink:href="#m80a0321e48" y="323.409971"/>
     <use style="fill:#d81920;stroke:#d81920;" x="445.141653" xlink:href="#m80a0321e48" y="618.310776"/>
     <use style="fill:#d81920;stroke:#d81920;" x="477.607108" xlink:href="#m80a0321e48" y="427.961771"/>
     <use style="fill:#d81920;stroke:#d81920;" x="510.072563" xlink:href="#m80a0321e48" y="631.284607"/>
     <use style="fill:#d81920;stroke:#d81920;" x="542.538017" xlink:href="#m80a0321e48" y="547.900579"/>
     <use style="fill:#d81920;stroke:#d81920;" x="575.003472" xlink:href="#m80a0321e48" y="672.658153"/>
     <use style="fill:#d81920;stroke:#d81920;" x="607.468926" xlink:href="#m80a0321e48" y="603.944847"/>
     <use style="fill:#d81920;stroke:#d81920;" x="639.934381" xlink:href="#m80a0321e48" y="545.996245"/>
     <use style="fill:#d81920;stroke:#d81920;" x="672.399835" xlink:href="#m80a0321e48" y="588.215314"/>
     <use style="fill:#d81920;stroke:#d81920;" x="704.86529" xlink:href="#m80a0321e48" y="660.814003"/>
     <use style="fill:#d81920;stroke:#d81920;" x="737.330744" xlink:href="#m80a0321e48" y="590.153562"/>
     <use style="fill:#d81920;stroke:#d81920;" x="769.796199" xlink:href="#m80a0321e48" y="647.001844"/>
     <use style="fill:#d81920;stroke:#d81920;" x="802.261653" xlink:href="#m80a0321e48" y="702.192845"/>
     <use style="fill:#d81920;stroke:#d81920;" x="834.727108" xlink:href="#m80a0321e48" y="640.331377"/>
     <use style="fill:#d81920;stroke:#d81920;" x="867.192562" xlink:href="#m80a0321e48" y="690.029088"/>
     <use style="fill:#d81920;stroke:#d81920;" x="899.658017" xlink:href="#m80a0321e48" y="596.55044"/>
     <use style="fill:#d81920;stroke:#d81920;" x="932.123472" xlink:href="#m80a0321e48" y="756.985892"/>
     <use style="fill:#d81920;stroke:#d81920;" x="964.588926" xlink:href="#m80a0321e48" y="812.626431"/>
     <use style="fill:#d81920;stroke:#d81920;" x="997.054381" xlink:href="#m80a0321e48" y="796.009993"/>
     <use style="fill:#d81920;stroke:#d81920;" x="1029.519835" xlink:href="#m80a0321e48" y="732.507124"/>
     <use style="fill:#d81920;stroke:#d81920;" x="1061.98529" xlink:href="#m80a0321e48" y="701.471246"/>
     <use style="fill:#d81920;stroke:#d81920;" x="1094.450744" xlink:href="#m80a0321e48" y="770.571356"/>
    </g>
   </g>
   <g id="patch_3">
    <path d="M 242.232563 869.76 
L 242.232563 -0 
" style="fill:none;stroke:#231f20;stroke-linecap:square;stroke-linejoin:miter;stroke-width:5;"/>
   </g>
   <g id="patch_4">
    <path d="M 242.232563 869.76 
L 1135.032563 869.76 
" style="fill:none;stroke:#231f20;stroke-linecap:square;stroke-linejoin:miter;stroke-width:5;"/>
   </g>
  </g>
 </g>
 <defs>
  <clipPath id="p0825e33288">
   <rect height="869.76" width="892.8" x="242.232563" y="-0"/>
  </clipPath>
 </defs>
</svg>
