<?xml version="1.0" encoding="utf-8" standalone="no"?>
<!DOCTYPE svg PUBLIC "-//W3C//DTD SVG 1.1//EN"
  "http://www.w3.org/Graphics/SVG/1.1/DTD/svg11.dtd">
<!-- Created with matplotlib (https://matplotlib.org/) -->
<svg height="547.165875pt" version="1.1" viewBox="0 0 987.67 547.165875" width="987.67pt" xmlns="http://www.w3.org/2000/svg" xmlns:xlink="http://www.w3.org/1999/xlink">
 <defs>
  <style type="text/css">
*{stroke-linecap:butt;stroke-linejoin:round;white-space:pre;}
  </style>
 </defs>
 <g id="figure_1">
  <g id="patch_1">
   <path d="M 0 547.165875 
L 987.67 547.165875 
L 987.67 0 
L 0 0 
z
" style="fill:none;"/>
  </g>
  <g id="axes_1">
   <g id="patch_2">
    <path d="M 94.87 477.655875 
L 987.67 477.655875 
L 987.67 42.775875 
L 94.87 42.775875 
z
" style="fill:none;"/>
   </g>
   <g id="matplotlib.axis_1">
    <g id="xtick_1">
     <g id="line2d_1">
      <defs>
       <path d="M 0 0 
L 0 -11.52 
" id="m37040768d3" style="stroke:#231f20;stroke-width:5;"/>
      </defs>
      <g>
       <use style="fill:#231f20;stroke:#231f20;stroke-width:5;" x="94.87" xlink:href="#m37040768d3" y="477.655875"/>
      </g>
     </g>
     <g id="text_1">
      <!-- 0 -->
      <defs>
       <path d="M 31.78125 66.40625 
Q 24.171875 66.40625 20.328125 58.90625 
Q 16.5 51.421875 16.5 36.375 
Q 16.5 21.390625 20.328125 13.890625 
Q 24.171875 6.390625 31.78125 6.390625 
Q 39.453125 6.390625 43.28125 13.890625 
Q 47.125 21.390625 47.125 36.375 
Q 47.125 51.421875 43.28125 58.90625 
Q 39.453125 66.40625 31.78125 66.40625 
z
M 31.78125 74.21875 
Q 44.046875 74.21875 50.515625 64.515625 
Q 56.984375 54.828125 56.984375 36.375 
Q 56.984375 17.96875 50.515625 8.265625 
Q 44.046875 -1.421875 31.78125 -1.421875 
Q 19.53125 -1.421875 13.0625 8.265625 
Q 6.59375 17.96875 6.59375 36.375 
Q 6.59375 54.828125 13.0625 64.515625 
Q 19.53125 74.21875 31.78125 74.21875 
z
" id="DejaVuSans-48"/>
      </defs>
      <g transform="translate(84.69 505.470875)scale(0.32 -0.32)">
       <use xlink:href="#DejaVuSans-48"/>
      </g>
     </g>
    </g>
    <g id="xtick_2">
     <g id="line2d_2">
      <g>
       <use style="fill:#231f20;stroke:#231f20;stroke-width:5;" x="213.91" xlink:href="#m37040768d3" y="477.655875"/>
      </g>
     </g>
     <g id="text_2">
      <!-- 2 -->
      <defs>
       <path d="M 19.1875 8.296875 
L 53.609375 8.296875 
L 53.609375 0 
L 7.328125 0 
L 7.328125 8.296875 
Q 12.9375 14.109375 22.625 23.890625 
Q 32.328125 33.6875 34.8125 36.53125 
Q 39.546875 41.84375 41.421875 45.53125 
Q 43.3125 49.21875 43.3125 52.78125 
Q 43.3125 58.59375 39.234375 62.25 
Q 35.15625 65.921875 28.609375 65.921875 
Q 23.96875 65.921875 18.8125 64.3125 
Q 13.671875 62.703125 7.8125 59.421875 
L 7.8125 69.390625 
Q 13.765625 71.78125 18.9375 73 
Q 24.125 74.21875 28.421875 74.21875 
Q 39.75 74.21875 46.484375 68.546875 
Q 53.21875 62.890625 53.21875 53.421875 
Q 53.21875 48.921875 51.53125 44.890625 
Q 49.859375 40.875 45.40625 35.40625 
Q 44.1875 33.984375 37.640625 27.21875 
Q 31.109375 20.453125 19.1875 8.296875 
z
" id="DejaVuSans-50"/>
      </defs>
      <g transform="translate(203.73 505.470875)scale(0.32 -0.32)">
       <use xlink:href="#DejaVuSans-50"/>
      </g>
     </g>
    </g>
    <g id="xtick_3">
     <g id="line2d_3">
      <g>
       <use style="fill:#231f20;stroke:#231f20;stroke-width:5;" x="332.95" xlink:href="#m37040768d3" y="477.655875"/>
      </g>
     </g>
     <g id="text_3">
      <!-- 4 -->
      <defs>
       <path d="M 37.796875 64.3125 
L 12.890625 25.390625 
L 37.796875 25.390625 
z
M 35.203125 72.90625 
L 47.609375 72.90625 
L 47.609375 25.390625 
L 58.015625 25.390625 
L 58.015625 17.1875 
L 47.609375 17.1875 
L 47.609375 0 
L 37.796875 0 
L 37.796875 17.1875 
L 4.890625 17.1875 
L 4.890625 26.703125 
z
" id="DejaVuSans-52"/>
      </defs>
      <g transform="translate(322.77 505.470875)scale(0.32 -0.32)">
       <use xlink:href="#DejaVuSans-52"/>
      </g>
     </g>
    </g>
    <g id="xtick_4">
     <g id="line2d_4">
      <g>
       <use style="fill:#231f20;stroke:#231f20;stroke-width:5;" x="451.99" xlink:href="#m37040768d3" y="477.655875"/>
      </g>
     </g>
     <g id="text_4">
      <!-- 6 -->
      <defs>
       <path d="M 33.015625 40.375 
Q 26.375 40.375 22.484375 35.828125 
Q 18.609375 31.296875 18.609375 23.390625 
Q 18.609375 15.53125 22.484375 10.953125 
Q 26.375 6.390625 33.015625 6.390625 
Q 39.65625 6.390625 43.53125 10.953125 
Q 47.40625 15.53125 47.40625 23.390625 
Q 47.40625 31.296875 43.53125 35.828125 
Q 39.65625 40.375 33.015625 40.375 
z
M 52.59375 71.296875 
L 52.59375 62.3125 
Q 48.875 64.0625 45.09375 64.984375 
Q 41.3125 65.921875 37.59375 65.921875 
Q 27.828125 65.921875 22.671875 59.328125 
Q 17.53125 52.734375 16.796875 39.40625 
Q 19.671875 43.65625 24.015625 45.921875 
Q 28.375 48.1875 33.59375 48.1875 
Q 44.578125 48.1875 50.953125 41.515625 
Q 57.328125 34.859375 57.328125 23.390625 
Q 57.328125 12.15625 50.6875 5.359375 
Q 44.046875 -1.421875 33.015625 -1.421875 
Q 20.359375 -1.421875 13.671875 8.265625 
Q 6.984375 17.96875 6.984375 36.375 
Q 6.984375 53.65625 15.1875 63.9375 
Q 23.390625 74.21875 37.203125 74.21875 
Q 40.921875 74.21875 44.703125 73.484375 
Q 48.484375 72.75 52.59375 71.296875 
z
" id="DejaVuSans-54"/>
      </defs>
      <g transform="translate(441.81 505.470875)scale(0.32 -0.32)">
       <use xlink:href="#DejaVuSans-54"/>
      </g>
     </g>
    </g>
    <g id="xtick_5">
     <g id="line2d_5">
      <g>
       <use style="fill:#231f20;stroke:#231f20;stroke-width:5;" x="571.03" xlink:href="#m37040768d3" y="477.655875"/>
      </g>
     </g>
     <g id="text_5">
      <!-- 8 -->
      <defs>
       <path d="M 31.78125 34.625 
Q 24.75 34.625 20.71875 30.859375 
Q 16.703125 27.09375 16.703125 20.515625 
Q 16.703125 13.921875 20.71875 10.15625 
Q 24.75 6.390625 31.78125 6.390625 
Q 38.8125 6.390625 42.859375 10.171875 
Q 46.921875 13.96875 46.921875 20.515625 
Q 46.921875 27.09375 42.890625 30.859375 
Q 38.875 34.625 31.78125 34.625 
z
M 21.921875 38.8125 
Q 15.578125 40.375 12.03125 44.71875 
Q 8.5 49.078125 8.5 55.328125 
Q 8.5 64.0625 14.71875 69.140625 
Q 20.953125 74.21875 31.78125 74.21875 
Q 42.671875 74.21875 48.875 69.140625 
Q 55.078125 64.0625 55.078125 55.328125 
Q 55.078125 49.078125 51.53125 44.71875 
Q 48 40.375 41.703125 38.8125 
Q 48.828125 37.15625 52.796875 32.3125 
Q 56.78125 27.484375 56.78125 20.515625 
Q 56.78125 9.90625 50.3125 4.234375 
Q 43.84375 -1.421875 31.78125 -1.421875 
Q 19.734375 -1.421875 13.25 4.234375 
Q 6.78125 9.90625 6.78125 20.515625 
Q 6.78125 27.484375 10.78125 32.3125 
Q 14.796875 37.15625 21.921875 38.8125 
z
M 18.3125 54.390625 
Q 18.3125 48.734375 21.84375 45.5625 
Q 25.390625 42.390625 31.78125 42.390625 
Q 38.140625 42.390625 41.71875 45.5625 
Q 45.3125 48.734375 45.3125 54.390625 
Q 45.3125 60.0625 41.71875 63.234375 
Q 38.140625 66.40625 31.78125 66.40625 
Q 25.390625 66.40625 21.84375 63.234375 
Q 18.3125 60.0625 18.3125 54.390625 
z
" id="DejaVuSans-56"/>
      </defs>
      <g transform="translate(560.85 505.470875)scale(0.32 -0.32)">
       <use xlink:href="#DejaVuSans-56"/>
      </g>
     </g>
    </g>
    <g id="xtick_6">
     <g id="line2d_6">
      <g>
       <use style="fill:#231f20;stroke:#231f20;stroke-width:5;" x="690.07" xlink:href="#m37040768d3" y="477.655875"/>
      </g>
     </g>
     <g id="text_6">
      <!-- 10 -->
      <defs>
       <path d="M 12.40625 8.296875 
L 28.515625 8.296875 
L 28.515625 63.921875 
L 10.984375 60.40625 
L 10.984375 69.390625 
L 28.421875 72.90625 
L 38.28125 72.90625 
L 38.28125 8.296875 
L 54.390625 8.296875 
L 54.390625 0 
L 12.40625 0 
z
" id="DejaVuSans-49"/>
      </defs>
      <g transform="translate(669.71 505.470875)scale(0.32 -0.32)">
       <use xlink:href="#DejaVuSans-49"/>
       <use x="63.623047" xlink:href="#DejaVuSans-48"/>
      </g>
     </g>
    </g>
    <g id="xtick_7">
     <g id="line2d_7">
      <g>
       <use style="fill:#231f20;stroke:#231f20;stroke-width:5;" x="809.11" xlink:href="#m37040768d3" y="477.655875"/>
      </g>
     </g>
     <g id="text_7">
      <!-- 12 -->
      <g transform="translate(788.75 505.470875)scale(0.32 -0.32)">
       <use xlink:href="#DejaVuSans-49"/>
       <use x="63.623047" xlink:href="#DejaVuSans-50"/>
      </g>
     </g>
    </g>
    <g id="xtick_8">
     <g id="line2d_8">
      <g>
       <use style="fill:#231f20;stroke:#231f20;stroke-width:5;" x="928.15" xlink:href="#m37040768d3" y="477.655875"/>
      </g>
     </g>
     <g id="text_8">
      <!-- 14 -->
      <g transform="translate(907.79 505.470875)scale(0.32 -0.32)">
       <use xlink:href="#DejaVuSans-49"/>
       <use x="63.623047" xlink:href="#DejaVuSans-52"/>
      </g>
     </g>
    </g>
    <g id="text_9">
     <!-- $x$ Coordinate ($μm$) -->
     <defs>
      <path d="M 60.015625 54.6875 
L 34.90625 27.875 
L 50.296875 0 
L 39.984375 0 
L 28.421875 21.6875 
L 8.296875 0 
L -2.59375 0 
L 24.3125 28.8125 
L 10.015625 54.6875 
L 20.3125 54.6875 
L 30.8125 34.90625 
L 49.125 54.6875 
z
" id="DejaVuSans-Oblique-120"/>
      <path id="DejaVuSans-32"/>
      <path d="M 64.40625 67.28125 
L 64.40625 56.890625 
Q 59.421875 61.53125 53.78125 63.8125 
Q 48.140625 66.109375 41.796875 66.109375 
Q 29.296875 66.109375 22.65625 58.46875 
Q 16.015625 50.828125 16.015625 36.375 
Q 16.015625 21.96875 22.65625 14.328125 
Q 29.296875 6.6875 41.796875 6.6875 
Q 48.140625 6.6875 53.78125 8.984375 
Q 59.421875 11.28125 64.40625 15.921875 
L 64.40625 5.609375 
Q 59.234375 2.09375 53.4375 0.328125 
Q 47.65625 -1.421875 41.21875 -1.421875 
Q 24.65625 -1.421875 15.125 8.703125 
Q 5.609375 18.84375 5.609375 36.375 
Q 5.609375 53.953125 15.125 64.078125 
Q 24.65625 74.21875 41.21875 74.21875 
Q 47.75 74.21875 53.53125 72.484375 
Q 59.328125 70.75 64.40625 67.28125 
z
" id="DejaVuSans-67"/>
      <path d="M 30.609375 48.390625 
Q 23.390625 48.390625 19.1875 42.75 
Q 14.984375 37.109375 14.984375 27.296875 
Q 14.984375 17.484375 19.15625 11.84375 
Q 23.34375 6.203125 30.609375 6.203125 
Q 37.796875 6.203125 41.984375 11.859375 
Q 46.1875 17.53125 46.1875 27.296875 
Q 46.1875 37.015625 41.984375 42.703125 
Q 37.796875 48.390625 30.609375 48.390625 
z
M 30.609375 56 
Q 42.328125 56 49.015625 48.375 
Q 55.71875 40.765625 55.71875 27.296875 
Q 55.71875 13.875 49.015625 6.21875 
Q 42.328125 -1.421875 30.609375 -1.421875 
Q 18.84375 -1.421875 12.171875 6.21875 
Q 5.515625 13.875 5.515625 27.296875 
Q 5.515625 40.765625 12.171875 48.375 
Q 18.84375 56 30.609375 56 
z
" id="DejaVuSans-111"/>
      <path d="M 41.109375 46.296875 
Q 39.59375 47.171875 37.8125 47.578125 
Q 36.03125 48 33.890625 48 
Q 26.265625 48 22.1875 43.046875 
Q 18.109375 38.09375 18.109375 28.8125 
L 18.109375 0 
L 9.078125 0 
L 9.078125 54.6875 
L 18.109375 54.6875 
L 18.109375 46.1875 
Q 20.953125 51.171875 25.484375 53.578125 
Q 30.03125 56 36.53125 56 
Q 37.453125 56 38.578125 55.875 
Q 39.703125 55.765625 41.0625 55.515625 
z
" id="DejaVuSans-114"/>
      <path d="M 45.40625 46.390625 
L 45.40625 75.984375 
L 54.390625 75.984375 
L 54.390625 0 
L 45.40625 0 
L 45.40625 8.203125 
Q 42.578125 3.328125 38.25 0.953125 
Q 33.9375 -1.421875 27.875 -1.421875 
Q 17.96875 -1.421875 11.734375 6.484375 
Q 5.515625 14.40625 5.515625 27.296875 
Q 5.515625 40.1875 11.734375 48.09375 
Q 17.96875 56 27.875 56 
Q 33.9375 56 38.25 53.625 
Q 42.578125 51.265625 45.40625 46.390625 
z
M 14.796875 27.296875 
Q 14.796875 17.390625 18.875 11.75 
Q 22.953125 6.109375 30.078125 6.109375 
Q 37.203125 6.109375 41.296875 11.75 
Q 45.40625 17.390625 45.40625 27.296875 
Q 45.40625 37.203125 41.296875 42.84375 
Q 37.203125 48.484375 30.078125 48.484375 
Q 22.953125 48.484375 18.875 42.84375 
Q 14.796875 37.203125 14.796875 27.296875 
z
" id="DejaVuSans-100"/>
      <path d="M 9.421875 54.6875 
L 18.40625 54.6875 
L 18.40625 0 
L 9.421875 0 
z
M 9.421875 75.984375 
L 18.40625 75.984375 
L 18.40625 64.59375 
L 9.421875 64.59375 
z
" id="DejaVuSans-105"/>
      <path d="M 54.890625 33.015625 
L 54.890625 0 
L 45.90625 0 
L 45.90625 32.71875 
Q 45.90625 40.484375 42.875 44.328125 
Q 39.84375 48.1875 33.796875 48.1875 
Q 26.515625 48.1875 22.3125 43.546875 
Q 18.109375 38.921875 18.109375 30.90625 
L 18.109375 0 
L 9.078125 0 
L 9.078125 54.6875 
L 18.109375 54.6875 
L 18.109375 46.1875 
Q 21.34375 51.125 25.703125 53.5625 
Q 30.078125 56 35.796875 56 
Q 45.21875 56 50.046875 50.171875 
Q 54.890625 44.34375 54.890625 33.015625 
z
" id="DejaVuSans-110"/>
      <path d="M 34.28125 27.484375 
Q 23.390625 27.484375 19.1875 25 
Q 14.984375 22.515625 14.984375 16.5 
Q 14.984375 11.71875 18.140625 8.90625 
Q 21.296875 6.109375 26.703125 6.109375 
Q 34.1875 6.109375 38.703125 11.40625 
Q 43.21875 16.703125 43.21875 25.484375 
L 43.21875 27.484375 
z
M 52.203125 31.203125 
L 52.203125 0 
L 43.21875 0 
L 43.21875 8.296875 
Q 40.140625 3.328125 35.546875 0.953125 
Q 30.953125 -1.421875 24.3125 -1.421875 
Q 15.921875 -1.421875 10.953125 3.296875 
Q 6 8.015625 6 15.921875 
Q 6 25.140625 12.171875 29.828125 
Q 18.359375 34.515625 30.609375 34.515625 
L 43.21875 34.515625 
L 43.21875 35.40625 
Q 43.21875 41.609375 39.140625 45 
Q 35.0625 48.390625 27.6875 48.390625 
Q 23 48.390625 18.546875 47.265625 
Q 14.109375 46.140625 10.015625 43.890625 
L 10.015625 52.203125 
Q 14.9375 54.109375 19.578125 55.046875 
Q 24.21875 56 28.609375 56 
Q 40.484375 56 46.34375 49.84375 
Q 52.203125 43.703125 52.203125 31.203125 
z
" id="DejaVuSans-97"/>
      <path d="M 18.3125 70.21875 
L 18.3125 54.6875 
L 36.8125 54.6875 
L 36.8125 47.703125 
L 18.3125 47.703125 
L 18.3125 18.015625 
Q 18.3125 11.328125 20.140625 9.421875 
Q 21.96875 7.515625 27.59375 7.515625 
L 36.8125 7.515625 
L 36.8125 0 
L 27.59375 0 
Q 17.1875 0 13.234375 3.875 
Q 9.28125 7.765625 9.28125 18.015625 
L 9.28125 47.703125 
L 2.6875 47.703125 
L 2.6875 54.6875 
L 9.28125 54.6875 
L 9.28125 70.21875 
z
" id="DejaVuSans-116"/>
      <path d="M 56.203125 29.59375 
L 56.203125 25.203125 
L 14.890625 25.203125 
Q 15.484375 15.921875 20.484375 11.0625 
Q 25.484375 6.203125 34.421875 6.203125 
Q 39.59375 6.203125 44.453125 7.46875 
Q 49.3125 8.734375 54.109375 11.28125 
L 54.109375 2.78125 
Q 49.265625 0.734375 44.1875 -0.34375 
Q 39.109375 -1.421875 33.890625 -1.421875 
Q 20.796875 -1.421875 13.15625 6.1875 
Q 5.515625 13.8125 5.515625 26.8125 
Q 5.515625 40.234375 12.765625 48.109375 
Q 20.015625 56 32.328125 56 
Q 43.359375 56 49.78125 48.890625 
Q 56.203125 41.796875 56.203125 29.59375 
z
M 47.21875 32.234375 
Q 47.125 39.59375 43.09375 43.984375 
Q 39.0625 48.390625 32.421875 48.390625 
Q 24.90625 48.390625 20.390625 44.140625 
Q 15.875 39.890625 15.1875 32.171875 
z
" id="DejaVuSans-101"/>
      <path d="M 31 75.875 
Q 24.46875 64.65625 21.28125 53.65625 
Q 18.109375 42.671875 18.109375 31.390625 
Q 18.109375 20.125 21.3125 9.0625 
Q 24.515625 -2 31 -13.1875 
L 23.1875 -13.1875 
Q 15.875 -1.703125 12.234375 9.375 
Q 8.59375 20.453125 8.59375 31.390625 
Q 8.59375 42.28125 12.203125 53.3125 
Q 15.828125 64.359375 23.1875 75.875 
z
" id="DejaVuSans-40"/>
      <path d="M -1.3125 -20.796875 
L 13.375 54.6875 
L 22.40625 54.6875 
L 15.765625 20.65625 
Q 15.578125 19.625 15.421875 18.359375 
Q 15.28125 17.09375 15.28125 15.828125 
Q 15.28125 11.28125 18.140625 8.828125 
Q 21 6.390625 26.3125 6.390625 
Q 33.546875 6.390625 37.984375 10.484375 
Q 42.4375 14.59375 44 22.796875 
L 50.203125 54.6875 
L 59.1875 54.6875 
L 51.03125 12.640625 
Q 50.828125 11.71875 50.75 11.03125 
Q 50.6875 10.359375 50.6875 9.8125 
Q 50.6875 8.296875 51.296875 7.59375 
Q 51.90625 6.890625 53.21875 6.890625 
Q 53.71875 6.890625 54.5625 7.125 
Q 55.421875 7.375 56.984375 8.015625 
L 55.609375 0.78125 
Q 53.46875 -0.296875 51.515625 -0.859375 
Q 49.5625 -1.421875 47.703125 -1.421875 
Q 44.484375 -1.421875 42.65625 0.625 
Q 40.828125 2.6875 40.828125 6.296875 
Q 38.09375 2.390625 34.296875 0.484375 
Q 30.515625 -1.421875 25.390625 -1.421875 
Q 20.84375 -1.421875 17.453125 0.671875 
Q 14.0625 2.78125 12.984375 6.203125 
L 7.71875 -20.796875 
z
" id="DejaVuSans-Oblique-956"/>
      <path d="M 89.796875 33.015625 
L 83.40625 0 
L 74.421875 0 
L 80.71875 32.71875 
Q 81.109375 34.8125 81.296875 36.328125 
Q 81.5 37.84375 81.5 38.921875 
Q 81.5 43.3125 79.046875 45.75 
Q 76.609375 48.1875 72.21875 48.1875 
Q 65.671875 48.1875 60.546875 43.28125 
Q 55.421875 38.375 53.90625 30.515625 
L 47.90625 0 
L 38.921875 0 
L 45.3125 32.71875 
Q 45.703125 34.515625 45.890625 36.046875 
Q 46.09375 37.59375 46.09375 38.8125 
Q 46.09375 43.265625 43.65625 45.71875 
Q 41.21875 48.1875 36.921875 48.1875 
Q 30.28125 48.1875 25.140625 43.28125 
Q 20.015625 38.375 18.5 30.515625 
L 12.5 0 
L 3.515625 0 
L 14.203125 54.6875 
L 23.1875 54.6875 
L 21.484375 46.1875 
Q 25.140625 50.984375 30.046875 53.484375 
Q 34.96875 56 40.578125 56 
Q 46.53125 56 50.359375 52.875 
Q 54.203125 49.75 54.984375 44.1875 
Q 59.078125 49.953125 64.46875 52.96875 
Q 69.875 56 75.875 56 
Q 82.90625 56 86.734375 51.953125 
Q 90.578125 47.90625 90.578125 40.484375 
Q 90.578125 38.875 90.375 36.9375 
Q 90.1875 35.015625 89.796875 33.015625 
z
" id="DejaVuSans-Oblique-109"/>
      <path d="M 8.015625 75.875 
L 15.828125 75.875 
Q 23.140625 64.359375 26.78125 53.3125 
Q 30.421875 42.28125 30.421875 31.390625 
Q 30.421875 20.453125 26.78125 9.375 
Q 23.140625 -1.703125 15.828125 -13.1875 
L 8.015625 -13.1875 
Q 14.5 -2 17.703125 9.0625 
Q 20.90625 20.125 20.90625 31.390625 
Q 20.90625 42.671875 17.703125 53.65625 
Q 14.5 64.65625 8.015625 75.875 
z
" id="DejaVuSans-41"/>
     </defs>
     <g transform="translate(395.35 540.445875)scale(0.32 -0.32)">
      <use transform="translate(0 0.015625)" xlink:href="#DejaVuSans-Oblique-120"/>
      <use transform="translate(59.179688 0.015625)" xlink:href="#DejaVuSans-32"/>
      <use transform="translate(90.966797 0.015625)" xlink:href="#DejaVuSans-67"/>
      <use transform="translate(160.791016 0.015625)" xlink:href="#DejaVuSans-111"/>
      <use transform="translate(221.972656 0.015625)" xlink:href="#DejaVuSans-111"/>
      <use transform="translate(283.154297 0.015625)" xlink:href="#DejaVuSans-114"/>
      <use transform="translate(324.267578 0.015625)" xlink:href="#DejaVuSans-100"/>
      <use transform="translate(387.744141 0.015625)" xlink:href="#DejaVuSans-105"/>
      <use transform="translate(415.527344 0.015625)" xlink:href="#DejaVuSans-110"/>
      <use transform="translate(478.90625 0.015625)" xlink:href="#DejaVuSans-97"/>
      <use transform="translate(540.185547 0.015625)" xlink:href="#DejaVuSans-116"/>
      <use transform="translate(579.394531 0.015625)" xlink:href="#DejaVuSans-101"/>
      <use transform="translate(640.917969 0.015625)" xlink:href="#DejaVuSans-32"/>
      <use transform="translate(672.705078 0.015625)" xlink:href="#DejaVuSans-40"/>
      <use transform="translate(711.71875 0.015625)" xlink:href="#DejaVuSans-Oblique-956"/>
      <use transform="translate(775.341797 0.015625)" xlink:href="#DejaVuSans-Oblique-109"/>
      <use transform="translate(872.753906 0.015625)" xlink:href="#DejaVuSans-41"/>
     </g>
    </g>
   </g>
   <g id="matplotlib.axis_2">
    <g id="ytick_1">
     <g id="line2d_9">
      <path clip-path="url(#p40ed515fc2)" d="M 94.87 445.442542 
L 987.67 445.442542 
" style="fill:none;stroke:#231f20;stroke-linecap:square;stroke-opacity:0.2;stroke-width:4;"/>
     </g>
     <g id="line2d_10">
      <defs>
       <path d="M 0 0 
L 11.52 0 
" id="mb95b77890a" style="stroke:#231f20;stroke-width:5;"/>
      </defs>
      <g>
       <use style="fill:#231f20;stroke:#231f20;stroke-width:5;" x="94.87" xlink:href="#mb95b77890a" y="445.442542"/>
      </g>
     </g>
     <g id="text_10">
      <!-- 0.0 -->
      <defs>
       <path d="M 10.6875 12.40625 
L 21 12.40625 
L 21 0 
L 10.6875 0 
z
" id="DejaVuSans-46"/>
      </defs>
      <g transform="translate(40.48 457.600042)scale(0.32 -0.32)">
       <use xlink:href="#DejaVuSans-48"/>
       <use x="63.623047" xlink:href="#DejaVuSans-46"/>
       <use x="95.410156" xlink:href="#DejaVuSans-48"/>
      </g>
     </g>
    </g>
    <g id="ytick_2">
     <g id="line2d_11">
      <path clip-path="url(#p40ed515fc2)" d="M 94.87 284.375875 
L 987.67 284.375875 
" style="fill:none;stroke:#231f20;stroke-linecap:square;stroke-opacity:0.2;stroke-width:4;"/>
     </g>
     <g id="line2d_12">
      <g>
       <use style="fill:#231f20;stroke:#231f20;stroke-width:5;" x="94.87" xlink:href="#mb95b77890a" y="284.375875"/>
      </g>
     </g>
     <g id="text_11">
      <!-- 0.5 -->
      <defs>
       <path d="M 10.796875 72.90625 
L 49.515625 72.90625 
L 49.515625 64.59375 
L 19.828125 64.59375 
L 19.828125 46.734375 
Q 21.96875 47.46875 24.109375 47.828125 
Q 26.265625 48.1875 28.421875 48.1875 
Q 40.625 48.1875 47.75 41.5 
Q 54.890625 34.8125 54.890625 23.390625 
Q 54.890625 11.625 47.5625 5.09375 
Q 40.234375 -1.421875 26.90625 -1.421875 
Q 22.3125 -1.421875 17.546875 -0.640625 
Q 12.796875 0.140625 7.71875 1.703125 
L 7.71875 11.625 
Q 12.109375 9.234375 16.796875 8.0625 
Q 21.484375 6.890625 26.703125 6.890625 
Q 35.15625 6.890625 40.078125 11.328125 
Q 45.015625 15.765625 45.015625 23.390625 
Q 45.015625 31 40.078125 35.4375 
Q 35.15625 39.890625 26.703125 39.890625 
Q 22.75 39.890625 18.8125 39.015625 
Q 14.890625 38.140625 10.796875 36.28125 
z
" id="DejaVuSans-53"/>
      </defs>
      <g transform="translate(40.48 296.533375)scale(0.32 -0.32)">
       <use xlink:href="#DejaVuSans-48"/>
       <use x="63.623047" xlink:href="#DejaVuSans-46"/>
       <use x="95.410156" xlink:href="#DejaVuSans-53"/>
      </g>
     </g>
    </g>
    <g id="ytick_3">
     <g id="line2d_13">
      <path clip-path="url(#p40ed515fc2)" d="M 94.87 123.309208 
L 987.67 123.309208 
" style="fill:none;stroke:#231f20;stroke-linecap:square;stroke-opacity:0.2;stroke-width:4;"/>
     </g>
     <g id="line2d_14">
      <g>
       <use style="fill:#231f20;stroke:#231f20;stroke-width:5;" x="94.87" xlink:href="#mb95b77890a" y="123.309208"/>
      </g>
     </g>
     <g id="text_12">
      <!-- 1.0 -->
      <g transform="translate(40.48 135.466708)scale(0.32 -0.32)">
       <use xlink:href="#DejaVuSans-49"/>
       <use x="63.623047" xlink:href="#DejaVuSans-46"/>
       <use x="95.410156" xlink:href="#DejaVuSans-48"/>
      </g>
     </g>
    </g>
    <g id="text_13">
     <!-- |Curvature| ($μm^{-1}$) -->
     <defs>
      <path d="M 21 76.421875 
L 21 -23.578125 
L 12.703125 -23.578125 
L 12.703125 76.421875 
z
" id="DejaVuSans-124"/>
      <path d="M 8.5 21.578125 
L 8.5 54.6875 
L 17.484375 54.6875 
L 17.484375 21.921875 
Q 17.484375 14.15625 20.5 10.265625 
Q 23.53125 6.390625 29.59375 6.390625 
Q 36.859375 6.390625 41.078125 11.03125 
Q 45.3125 15.671875 45.3125 23.6875 
L 45.3125 54.6875 
L 54.296875 54.6875 
L 54.296875 0 
L 45.3125 0 
L 45.3125 8.40625 
Q 42.046875 3.421875 37.71875 1 
Q 33.40625 -1.421875 27.6875 -1.421875 
Q 18.265625 -1.421875 13.375 4.4375 
Q 8.5 10.296875 8.5 21.578125 
z
M 31.109375 56 
z
" id="DejaVuSans-117"/>
      <path d="M 2.984375 54.6875 
L 12.5 54.6875 
L 29.59375 8.796875 
L 46.6875 54.6875 
L 56.203125 54.6875 
L 35.6875 0 
L 23.484375 0 
z
" id="DejaVuSans-118"/>
      <path d="M 10.59375 35.5 
L 73.1875 35.5 
L 73.1875 27.203125 
L 10.59375 27.203125 
z
" id="DejaVuSans-8722"/>
     </defs>
     <g transform="translate(28.8 412.055875)rotate(-90)scale(0.32 -0.32)">
      <use transform="translate(0 0.684375)" xlink:href="#DejaVuSans-124"/>
      <use transform="translate(33.691406 0.684375)" xlink:href="#DejaVuSans-67"/>
      <use transform="translate(103.515625 0.684375)" xlink:href="#DejaVuSans-117"/>
      <use transform="translate(166.894531 0.684375)" xlink:href="#DejaVuSans-114"/>
      <use transform="translate(208.007812 0.684375)" xlink:href="#DejaVuSans-118"/>
      <use transform="translate(267.1875 0.684375)" xlink:href="#DejaVuSans-97"/>
      <use transform="translate(328.466797 0.684375)" xlink:href="#DejaVuSans-116"/>
      <use transform="translate(367.675781 0.684375)" xlink:href="#DejaVuSans-117"/>
      <use transform="translate(431.054688 0.684375)" xlink:href="#DejaVuSans-114"/>
      <use transform="translate(472.167969 0.684375)" xlink:href="#DejaVuSans-101"/>
      <use transform="translate(533.691406 0.684375)" xlink:href="#DejaVuSans-124"/>
      <use transform="translate(567.382812 0.684375)" xlink:href="#DejaVuSans-32"/>
      <use transform="translate(599.169922 0.684375)" xlink:href="#DejaVuSans-40"/>
      <use transform="translate(638.183594 0.684375)" xlink:href="#DejaVuSans-Oblique-956"/>
      <use transform="translate(701.806641 0.684375)" xlink:href="#DejaVuSans-Oblique-109"/>
      <use transform="translate(803.868646 38.965625)scale(0.7)" xlink:href="#DejaVuSans-8722"/>
      <use transform="translate(862.52099 38.965625)scale(0.7)" xlink:href="#DejaVuSans-49"/>
      <use transform="translate(909.791497 0.684375)" xlink:href="#DejaVuSans-41"/>
     </g>
    </g>
   </g>
   <g id="line2d_15">
    <path clip-path="url(#p40ed515fc2)" d="M 94.87 445.442542 
L 987.67 445.442542 
" style="fill:none;stroke:#bcbec0;stroke-linecap:square;"/>
   </g>
   <g id="line2d_16">
    <path clip-path="url(#p40ed515fc2)" d="M 94.87 445.413467 
L 97.2508 445.161456 
L 99.0364 444.908744 
L 100.822 444.695955 
L 103.2028 444.434166 
L 106.1788 444.034019 
L 107.3692 443.895142 
L 114.5116 442.992614 
L 115.702 442.844484 
L 119.2732 442.388256 
L 121.654 442.058404 
L 122.8444 441.901406 
L 133.558 440.353834 
L 135.9388 439.990917 
L 137.1292 439.798596 
L 138.3196 439.598466 
L 140.1052 439.318669 
L 141.2956 439.098441 
L 144.2716 438.628833 
L 145.462 438.378187 
L 148.438 437.841636 
L 150.8188 437.354684 
L 153.7948 436.826868 
L 154.9852 436.488478 
L 160.9372 435.224336 
L 166.294 433.870453 
L 169.27 433.098891 
L 170.4604 432.826353 
L 180.5788 429.557472 
L 181.174 429.29816 
L 182.3644 429.032739 
L 184.7452 428.051913 
L 185.3404 427.905979 
L 186.5308 427.300549 
L 187.7212 426.986511 
L 188.9116 426.334529 
L 190.102 425.996051 
L 191.2924 425.292707 
L 192.4828 424.92724 
L 193.6732 424.167128 
L 194.8636 423.771808 
L 195.4588 423.365838 
L 196.6492 422.948845 
L 197.8396 422.080225 
L 199.03 421.627773 
L 199.6252 421.162648 
L 200.8156 420.684394 
L 201.4108 420.192535 
L 202.6012 419.686576 
L 203.1964 419.166001 
L 204.3868 418.630273 
L 204.982 418.07883 
L 206.1724 417.511088 
L 206.7676 416.926439 
L 207.958 416.324246 
L 208.5532 415.703847 
L 209.7436 415.064551 
L 210.3388 414.405638 
L 211.5292 413.726355 
L 212.1244 413.025919 
L 213.3148 412.30351 
L 213.91 411.558275 
L 216.2908 409.995725 
L 216.886 409.17651 
L 219.2668 407.457134 
L 219.862 406.554815 
L 221.0524 405.622556 
L 221.6476 404.659157 
L 224.0284 402.633874 
L 224.6236 401.56932 
L 228.1948 398.150743 
L 228.79 396.931088 
L 231.1708 394.361599 
L 231.766 393.008189 
L 235.3372 388.650264 
L 235.9324 387.091533 
L 239.5036 382.06595 
L 240.694 380.266306 
L 241.2892 378.400225 
L 244.2652 373.417141 
L 246.646 369.096911 
L 247.2412 367.976908 
L 247.8364 365.653153 
L 250.8124 359.444396 
L 253.1932 354.060072 
L 255.574 348.26733 
L 257.3596 343.652179 
L 257.9548 340.424042 
L 260.9308 331.814519 
L 263.3116 324.372654 
L 265.6924 316.400552 
L 268.0732 307.876626 
L 270.454 298.78414 
L 273.43 286.622725 
L 277.0012 270.817636 
L 280.5724 253.77471 
L 284.7388 232.517298 
L 289.5004 206.987891 
L 291.286 197.258178 
L 293.0716 190.776159 
L 297.8332 165.430894 
L 301.4044 147.823946 
L 303.7852 137.218142 
L 306.166 127.817754 
L 307.9516 123.647554 
L 309.7372 118.190716 
L 310.9276 115.054612 
L 312.118 112.37369 
L 313.3084 110.168307 
L 313.9036 109.186849 
L 315.094 107.724176 
L 316.2844 106.77331 
L 317.4748 106.341851 
L 318.6652 106.433294 
L 320.4508 107.046968 
L 321.6412 108.178044 
L 322.8316 109.817626 
L 324.022 111.952914 
L 325.8076 116.104392 
L 326.998 119.396557 
L 328.1884 123.112473 
L 329.3788 127.225505 
L 331.1644 134.036197 
L 332.3548 139.017389 
L 334.1404 144.289621 
L 337.1164 158.553905 
L 340.0924 173.891487 
L 346.6396 209.376901 
L 348.4252 219.056001 
L 350.2108 225.438995 
L 354.9724 250.119295 
L 358.5436 267.439926 
L 362.1148 283.542566 
L 365.686 298.349693 
L 369.2572 311.851651 
L 372.2332 322.115451 
L 374.614 329.731977 
L 376.3996 335.120371 
L 376.9948 338.546327 
L 379.9708 346.577821 
L 382.3516 352.509839 
L 384.7324 358.023393 
L 387.1132 363.146337 
L 387.7084 364.380383 
L 388.3036 366.759258 
L 391.2796 372.327457 
L 394.2556 377.426175 
L 394.8508 379.335049 
L 398.422 384.66262 
L 399.6124 386.313961 
L 400.2076 387.907071 
L 403.7788 392.35944 
L 404.374 393.741631 
L 407.9452 397.609795 
L 408.5404 398.812392 
L 412.1116 402.18308 
L 412.7068 403.232703 
L 415.0876 405.229562 
L 415.6828 406.179434 
L 416.8732 407.098601 
L 417.4684 407.988248 
L 419.8492 409.683478 
L 420.4444 410.491191 
L 422.8252 412.03181 
L 423.4204 412.766591 
L 424.6108 413.478869 
L 425.206 414.169489 
L 426.3964 414.839256 
L 426.9916 415.488944 
L 428.182 416.119295 
L 428.7772 416.73102 
L 429.9676 417.324799 
L 430.5628 417.901286 
L 431.7532 418.461108 
L 432.3484 419.004865 
L 433.5388 419.533134 
L 434.134 420.046466 
L 435.3244 420.545393 
L 435.9196 421.030423 
L 437.11 421.502044 
L 437.7052 421.960726 
L 438.8956 422.406916 
L 440.086 423.263536 
L 441.2764 423.674779 
L 441.8716 424.075158 
L 443.062 424.465042 
L 444.2524 425.21472 
L 445.4428 425.57518 
L 446.6332 426.26891 
L 447.8236 426.602772 
L 449.014 427.245881 
L 450.2044 427.555656 
L 451.3948 428.152887 
L 452.5852 428.440812 
L 454.3708 429.264461 
L 455.5612 429.52632 
L 457.3468 430.2765 
L 458.5372 430.515351 
L 461.5132 431.632825 
L 463.2988 432.04672 
L 466.2748 433.007872 
L 468.0604 433.365326 
L 472.822 434.660832 
L 478.1788 435.901191 
L 488.8924 438.052075 
L 491.8684 438.57426 
L 493.0588 438.818331 
L 495.4396 439.202284 
L 497.2252 439.560132 
L 500.2012 439.958573 
L 503.1772 440.500463 
L 505.558 440.775955 
L 506.7484 440.984547 
L 509.7244 441.419232 
L 510.9148 441.598401 
L 517.462 442.489149 
L 518.6524 442.655873 
L 521.0332 442.965152 
L 524.6044 443.401149 
L 526.39 443.641838 
L 527.5804 443.797507 
L 532.342 444.396055 
L 534.7228 444.679167 
L 540.0796 445.322327 
L 541.8652 445.372676 
L 547.8172 444.621691 
L 567.4588 442.157066 
L 569.8396 441.804064 
L 571.03 441.635756 
L 587.1004 439.217336 
L 588.2908 438.992753 
L 591.862 438.42955 
L 593.0524 438.169784 
L 596.0284 437.613094 
L 597.814 437.211633 
L 603.1708 436.205518 
L 604.3612 435.834205 
L 610.3132 434.44059 
L 612.0988 434.048966 
L 613.2892 433.80533 
L 618.0508 432.372394 
L 619.2412 432.075874 
L 620.4316 431.770855 
L 623.4076 430.791827 
L 624.0028 430.677656 
L 626.9788 429.583357 
L 627.574 429.4555 
L 629.9548 428.511193 
L 630.55 428.370763 
L 631.7404 427.788432 
L 632.9308 427.486513 
L 635.3116 426.368191 
L 635.9068 426.20151 
L 637.0972 425.508921 
L 638.2876 425.149107 
L 638.8828 424.779872 
L 640.0732 424.400891 
L 641.2636 423.612333 
L 642.454 423.202043 
L 643.0492 422.78058 
L 644.2396 422.347548 
L 645.43 421.445119 
L 646.6204 420.974851 
L 647.2156 420.491267 
L 648.406 419.993884 
L 649.0012 419.4822 
L 650.1916 418.95569 
L 650.7868 418.413807 
L 651.9772 417.855981 
L 652.5724 417.281618 
L 653.7628 416.690098 
L 654.358 416.080776 
L 655.5484 415.452978 
L 656.1436 414.806002 
L 657.334 414.139113 
L 657.9292 413.451549 
L 660.31 412.011167 
L 660.9052 411.256649 
L 662.0956 410.478051 
L 662.6908 409.674426 
L 665.0716 407.988109 
L 665.6668 407.103312 
L 666.8572 406.189276 
L 667.4524 405.244832 
L 669.8332 403.259781 
L 670.4284 402.21657 
L 673.9996 398.867374 
L 674.5948 397.672757 
L 676.9756 395.156457 
L 677.5708 393.831285 
L 681.142 389.565203 
L 681.7372 388.039624 
L 685.3084 383.121818 
L 686.4988 381.36105 
L 687.094 379.53541 
L 690.07 374.660848 
L 691.8556 371.530594 
L 692.4508 369.339663 
L 695.4268 363.486068 
L 697.8076 358.409376 
L 700.1884 352.94639 
L 700.7836 351.530212 
L 701.3788 348.592628 
L 704.3548 340.750473 
L 706.7356 333.961368 
L 709.1164 326.674856 
L 711.4972 318.865336 
L 713.878 310.510078 
L 716.2588 301.590695 
L 719.2348 289.648431 
L 722.806 274.102232 
L 726.3772 257.299854 
L 730.5436 236.273017 
L 734.71 214.124729 
L 740.662 181.786625 
L 742.4476 175.424419 
L 746.0188 157.027293 
L 748.9948 142.973062 
L 750.7804 135.253044 
L 753.1612 126.121188 
L 754.9468 120.295686 
L 755.542 118.48833 
L 757.3276 115.303224 
L 759.1132 111.442437 
L 759.7084 110.313502 
L 760.8988 108.547059 
L 762.0892 107.285901 
L 763.2796 106.540043 
L 764.47 106.315472 
L 765.6604 106.614037 
L 766.8508 107.433414 
L 769.8268 110.604778 
L 771.6124 114.33151 
L 772.8028 117.355841 
L 773.9932 120.818855 
L 775.1836 124.69534 
L 776.9692 131.181987 
L 779.35 141.072233 
L 782.326 154.021393 
L 783.5164 157.913512 
L 787.0876 176.395456 
L 801.3724 252.470495 
L 803.158 258.322409 
L 806.7292 275.091159 
L 810.3004 290.595943 
L 813.8716 304.793623 
L 817.4428 317.698831 
L 818.038 321.72178 
L 821.014 331.178177 
L 823.3948 338.180632 
L 825.7756 344.699852 
L 828.1564 350.763796 
L 830.5372 356.40076 
L 832.3228 360.376983 
L 832.918 362.900563 
L 835.894 368.807246 
L 838.2748 373.165109 
L 840.0604 376.239029 
L 840.6556 378.190445 
L 844.2268 383.636028 
L 845.4172 385.323683 
L 846.0124 386.951685 
L 849.5836 391.500716 
L 850.1788 392.912624 
L 853.75 396.863093 
L 854.3452 398.090993 
L 856.726 400.423737 
L 857.3212 401.531782 
L 860.8924 404.640458 
L 861.4876 405.609471 
L 862.678 406.547039 
L 863.2732 407.454377 
L 865.654 409.182976 
L 866.2492 410.006424 
L 868.63 411.576743 
L 869.2252 412.325538 
L 870.4156 413.051304 
L 871.0108 413.754907 
L 872.2012 414.437174 
L 872.7964 415.098899 
L 873.9868 415.740842 
L 874.582 416.363734 
L 876.9628 417.555127 
L 877.558 418.124941 
L 878.7484 418.678331 
L 879.9388 419.738175 
L 881.1292 420.245741 
L 881.7244 420.739105 
L 882.9148 421.218767 
L 883.51 421.685209 
L 884.7004 422.138891 
L 885.2956 422.580256 
L 886.486 423.009728 
L 887.6764 423.834612 
L 888.8668 424.230792 
L 889.462 424.616617 
L 890.6524 424.992436 
L 891.8428 425.715376 
L 893.0332 426.063127 
L 894.2236 426.732677 
L 895.414 427.055035 
L 896.6044 427.676238 
L 897.7948 427.975582 
L 899.5804 428.831385 
L 900.7708 429.103304 
L 902.5564 429.88185 
L 903.7468 430.129588 
L 906.1276 431.066276 
L 907.9132 431.504274 
L 910.8892 432.519874 
L 912.6748 432.897015 
L 917.4364 434.261178 
L 919.222 434.644894 
L 920.4124 434.867048 
L 928.7452 436.781201 
L 945.4108 439.789576 
L 946.6012 439.983767 
L 948.982 440.408391 
L 951.3628 440.689422 
L 952.5532 440.902109 
L 954.934 441.250628 
L 956.1244 441.391462 
L 957.91 441.701919 
L 968.6236 443.119778 
L 971.0044 443.43612 
L 987.0748 445.365692 
L 987.0748 445.365692 
" style="fill:none;stroke:#1368b3;stroke-linecap:square;stroke-width:4;"/>
   </g>
   <g id="line2d_17">
    <path clip-path="url(#p40ed515fc2)" d="M 115.702 437.3855 
L 128.2012 435.956908 
L 136.534 434.816664 
L 144.8668 433.491898 
L 152.6044 432.065903 
L 160.9372 430.272929 
L 169.27 428.157781 
L 177.6028 425.644637 
L 184.15 423.317529 
L 188.9116 421.418163 
L 193.078 419.582622 
L 197.2444 417.567262 
L 200.8156 415.680338 
L 204.982 413.274341 
L 209.1484 410.622425 
L 213.3148 407.695888 
L 216.886 404.949474 
L 221.0524 401.424724 
L 225.2188 397.523373 
L 228.79 393.858793 
L 232.9564 389.139099 
L 237.1228 383.907305 
L 240.694 378.992931 
L 244.8604 372.659045 
L 249.0268 365.646555 
L 252.598 359.073704 
L 256.7644 350.634507 
L 260.9308 341.347246 
L 264.502 332.69981 
L 268.6684 321.71855 
L 272.8348 309.80387 
L 276.406 298.876537 
L 280.5724 285.30674 
L 285.334 268.89333 
L 290.0956 251.780466 
L 301.9996 208.812374 
L 306.166 195.185419 
L 309.7372 184.67798 
L 313.3084 175.657557 
L 316.2844 169.403925 
L 319.2604 164.858478 
L 319.8556 163.959705 
L 321.046 162.838952 
L 323.4268 160.797603 
L 324.022 160.557079 
L 326.998 160.05038 
L 327.5932 160.198354 
L 330.5692 161.751019 
L 331.1644 162.291483 
L 334.1404 165.829456 
L 335.3308 167.823693 
L 338.3068 173.390116 
L 341.878 181.950112 
L 345.4492 192.111884 
L 349.6156 205.563777 
L 353.782 220.119292 
L 359.734 241.870493 
L 367.4716 270.046613 
L 372.2332 286.580071 
L 375.8044 298.322198 
L 379.9708 311.163689 
L 384.1372 323.082676 
L 387.7084 332.569287 
L 390.6844 339.952603 
L 394.2556 348.193905 
L 397.2316 354.573591 
L 400.8028 361.661748 
L 403.7788 367.129397 
L 407.35 373.188809 
L 410.326 377.852453 
L 413.302 382.189307 
L 416.8732 386.985092 
L 419.8492 390.674441 
L 423.4204 394.757734 
L 426.3964 397.897353 
L 429.9676 401.378322 
L 432.9436 404.054347 
L 436.5148 407.0286 
L 439.4908 409.315191 
L 442.4668 411.446993 
L 446.038 413.824314 
L 449.6092 416.013334 
L 455.5612 419.281166 
L 461.5132 422.143348 
L 468.0604 424.892061 
L 474.0124 427.090504 
L 480.5596 429.223392 
L 487.1068 431.107994 
L 493.0588 432.636261 
L 499.606 434.145315 
L 508.534 435.962333 
L 518.6524 437.762518 
L 531.1516 439.704255 
L 545.4364 441.691677 
L 562.6972 444.100795 
L 571.03 445.352183 
L 572.8156 445.086902 
L 583.5292 443.130879 
L 593.0524 441.17232 
L 600.1948 439.512008 
L 606.742 437.800927 
L 613.2892 435.863511 
L 619.2412 433.849022 
L 624.598 431.793592 
L 628.7644 430.007176 
L 633.526 427.725186 
L 638.2876 425.146387 
L 643.0492 422.213839 
L 647.2156 419.299195 
L 650.1916 417.010509 
L 653.1676 414.52209 
L 657.334 410.616342 
L 660.31 407.534186 
L 662.6908 404.85096 
L 665.0716 401.965805 
L 667.4524 398.862062 
L 669.8332 395.521915 
L 672.214 391.926383 
L 675.19 387.033954 
L 677.5708 382.778224 
L 679.9516 378.195461 
L 682.9276 371.952171 
L 685.3084 366.530084 
L 688.2844 359.152582 
L 690.6652 352.754472 
L 693.6412 344.067562 
L 696.022 336.55815 
L 698.998 326.397441 
L 701.974 315.367073 
L 704.3548 305.905016 
L 707.3308 293.245123 
L 710.3068 279.694264 
L 713.2828 265.295404 
L 716.854 247.036881 
L 720.4252 227.906232 
L 731.734 166.181462 
L 734.71 151.339438 
L 737.0908 140.559502 
L 738.2812 135.421864 
L 741.2572 124.215033 
L 744.2332 115.316152 
L 747.2092 109.051867 
L 750.1852 105.701803 
L 751.9708 105.518885 
L 753.1612 105.430225 
L 753.7564 105.809426 
L 756.1372 108.130867 
L 756.7324 108.944787 
L 759.7084 114.851067 
L 763.2796 125.430694 
L 766.2556 136.369694 
L 770.422 154.576604 
L 773.9932 171.753527 
L 779.9452 201.960821 
L 786.4924 235.004129 
L 791.254 257.56505 
L 794.23 270.833622 
L 797.8012 285.759136 
L 800.7772 297.371753 
L 804.3484 310.233557 
L 807.9196 321.993292 
L 811.4908 332.700697 
L 815.062 342.420289 
L 818.6332 351.224474 
L 822.7996 360.399297 
L 826.3708 367.474672 
L 829.942 373.868299 
L 834.1084 380.52219 
L 837.6796 385.657898 
L 841.846 391.010287 
L 846.0124 395.781385 
L 850.1788 400.039842 
L 853.75 403.33823 
L 857.9164 406.79828 
L 862.678 410.312398 
L 866.8444 413.060183 
L 871.0108 415.534514 
L 875.1772 417.767073 
L 879.9388 420.05676 
L 884.7004 422.10448 
L 888.8668 423.717905 
L 893.6284 425.387115 
L 898.39 426.889517 
L 903.1516 428.244708 
L 908.5084 429.620152 
L 917.4364 431.587 
L 924.5788 432.923708 
L 932.9116 434.279777 
L 943.6252 435.738361 
L 954.3388 436.948632 
L 965.6476 438.012515 
L 971.5996 438.500346 
L 971.5996 438.500346 
" style="fill:none;stroke:#d81920;stroke-linecap:square;stroke-width:4;"/>
   </g>
   <g id="patch_3">
    <path d="M 94.87 477.655875 
L 94.87 42.775875 
" style="fill:none;stroke:#231f20;stroke-linecap:square;stroke-linejoin:miter;stroke-width:5;"/>
   </g>
   <g id="patch_4">
    <path d="M 94.87 477.655875 
L 987.67 477.655875 
" style="fill:none;stroke:#231f20;stroke-linecap:square;stroke-linejoin:miter;stroke-width:5;"/>
   </g>
   <g id="text_14">
    <!-- dataset_type = variable_snr | image_id = 25 | curve_id = 23 | Feature Name = snr | Feature Value = 25 |  -->
    <defs>
     <path d="M 44.28125 53.078125 
L 44.28125 44.578125 
Q 40.484375 46.53125 36.375 47.5 
Q 32.28125 48.484375 27.875 48.484375 
Q 21.1875 48.484375 17.84375 46.4375 
Q 14.5 44.390625 14.5 40.28125 
Q 14.5 37.15625 16.890625 35.375 
Q 19.28125 33.59375 26.515625 31.984375 
L 29.59375 31.296875 
Q 39.15625 29.25 43.1875 25.515625 
Q 47.21875 21.78125 47.21875 15.09375 
Q 47.21875 7.46875 41.1875 3.015625 
Q 35.15625 -1.421875 24.609375 -1.421875 
Q 20.21875 -1.421875 15.453125 -0.5625 
Q 10.6875 0.296875 5.421875 2 
L 5.421875 11.28125 
Q 10.40625 8.6875 15.234375 7.390625 
Q 20.0625 6.109375 24.8125 6.109375 
Q 31.15625 6.109375 34.5625 8.28125 
Q 37.984375 10.453125 37.984375 14.40625 
Q 37.984375 18.0625 35.515625 20.015625 
Q 33.0625 21.96875 24.703125 23.78125 
L 21.578125 24.515625 
Q 13.234375 26.265625 9.515625 29.90625 
Q 5.8125 33.546875 5.8125 39.890625 
Q 5.8125 47.609375 11.28125 51.796875 
Q 16.75 56 26.8125 56 
Q 31.78125 56 36.171875 55.265625 
Q 40.578125 54.546875 44.28125 53.078125 
z
" id="DejaVuSans-115"/>
     <path d="M 50.984375 -16.609375 
L 50.984375 -23.578125 
L -0.984375 -23.578125 
L -0.984375 -16.609375 
z
" id="DejaVuSans-95"/>
     <path d="M 32.171875 -5.078125 
Q 28.375 -14.84375 24.75 -17.8125 
Q 21.140625 -20.796875 15.09375 -20.796875 
L 7.90625 -20.796875 
L 7.90625 -13.28125 
L 13.1875 -13.28125 
Q 16.890625 -13.28125 18.9375 -11.515625 
Q 21 -9.765625 23.484375 -3.21875 
L 25.09375 0.875 
L 2.984375 54.6875 
L 12.5 54.6875 
L 29.59375 11.921875 
L 46.6875 54.6875 
L 56.203125 54.6875 
z
" id="DejaVuSans-121"/>
     <path d="M 18.109375 8.203125 
L 18.109375 -20.796875 
L 9.078125 -20.796875 
L 9.078125 54.6875 
L 18.109375 54.6875 
L 18.109375 46.390625 
Q 20.953125 51.265625 25.265625 53.625 
Q 29.59375 56 35.59375 56 
Q 45.5625 56 51.78125 48.09375 
Q 58.015625 40.1875 58.015625 27.296875 
Q 58.015625 14.40625 51.78125 6.484375 
Q 45.5625 -1.421875 35.59375 -1.421875 
Q 29.59375 -1.421875 25.265625 0.953125 
Q 20.953125 3.328125 18.109375 8.203125 
z
M 48.6875 27.296875 
Q 48.6875 37.203125 44.609375 42.84375 
Q 40.53125 48.484375 33.40625 48.484375 
Q 26.265625 48.484375 22.1875 42.84375 
Q 18.109375 37.203125 18.109375 27.296875 
Q 18.109375 17.390625 22.1875 11.75 
Q 26.265625 6.109375 33.40625 6.109375 
Q 40.53125 6.109375 44.609375 11.75 
Q 48.6875 17.390625 48.6875 27.296875 
z
" id="DejaVuSans-112"/>
     <path d="M 10.59375 45.40625 
L 73.1875 45.40625 
L 73.1875 37.203125 
L 10.59375 37.203125 
z
M 10.59375 25.484375 
L 73.1875 25.484375 
L 73.1875 17.1875 
L 10.59375 17.1875 
z
" id="DejaVuSans-61"/>
     <path d="M 48.6875 27.296875 
Q 48.6875 37.203125 44.609375 42.84375 
Q 40.53125 48.484375 33.40625 48.484375 
Q 26.265625 48.484375 22.1875 42.84375 
Q 18.109375 37.203125 18.109375 27.296875 
Q 18.109375 17.390625 22.1875 11.75 
Q 26.265625 6.109375 33.40625 6.109375 
Q 40.53125 6.109375 44.609375 11.75 
Q 48.6875 17.390625 48.6875 27.296875 
z
M 18.109375 46.390625 
Q 20.953125 51.265625 25.265625 53.625 
Q 29.59375 56 35.59375 56 
Q 45.5625 56 51.78125 48.09375 
Q 58.015625 40.1875 58.015625 27.296875 
Q 58.015625 14.40625 51.78125 6.484375 
Q 45.5625 -1.421875 35.59375 -1.421875 
Q 29.59375 -1.421875 25.265625 0.953125 
Q 20.953125 3.328125 18.109375 8.203125 
L 18.109375 0 
L 9.078125 0 
L 9.078125 75.984375 
L 18.109375 75.984375 
z
" id="DejaVuSans-98"/>
     <path d="M 9.421875 75.984375 
L 18.40625 75.984375 
L 18.40625 0 
L 9.421875 0 
z
" id="DejaVuSans-108"/>
     <path d="M 52 44.1875 
Q 55.375 50.25 60.0625 53.125 
Q 64.75 56 71.09375 56 
Q 79.640625 56 84.28125 50.015625 
Q 88.921875 44.046875 88.921875 33.015625 
L 88.921875 0 
L 79.890625 0 
L 79.890625 32.71875 
Q 79.890625 40.578125 77.09375 44.375 
Q 74.3125 48.1875 68.609375 48.1875 
Q 61.625 48.1875 57.5625 43.546875 
Q 53.515625 38.921875 53.515625 30.90625 
L 53.515625 0 
L 44.484375 0 
L 44.484375 32.71875 
Q 44.484375 40.625 41.703125 44.40625 
Q 38.921875 48.1875 33.109375 48.1875 
Q 26.21875 48.1875 22.15625 43.53125 
Q 18.109375 38.875 18.109375 30.90625 
L 18.109375 0 
L 9.078125 0 
L 9.078125 54.6875 
L 18.109375 54.6875 
L 18.109375 46.1875 
Q 21.1875 51.21875 25.484375 53.609375 
Q 29.78125 56 35.6875 56 
Q 41.65625 56 45.828125 52.96875 
Q 50 49.953125 52 44.1875 
z
" id="DejaVuSans-109"/>
     <path d="M 45.40625 27.984375 
Q 45.40625 37.75 41.375 43.109375 
Q 37.359375 48.484375 30.078125 48.484375 
Q 22.859375 48.484375 18.828125 43.109375 
Q 14.796875 37.75 14.796875 27.984375 
Q 14.796875 18.265625 18.828125 12.890625 
Q 22.859375 7.515625 30.078125 7.515625 
Q 37.359375 7.515625 41.375 12.890625 
Q 45.40625 18.265625 45.40625 27.984375 
z
M 54.390625 6.78125 
Q 54.390625 -7.171875 48.1875 -13.984375 
Q 42 -20.796875 29.203125 -20.796875 
Q 24.46875 -20.796875 20.265625 -20.09375 
Q 16.0625 -19.390625 12.109375 -17.921875 
L 12.109375 -9.1875 
Q 16.0625 -11.328125 19.921875 -12.34375 
Q 23.78125 -13.375 27.78125 -13.375 
Q 36.625 -13.375 41.015625 -8.765625 
Q 45.40625 -4.15625 45.40625 5.171875 
L 45.40625 9.625 
Q 42.625 4.78125 38.28125 2.390625 
Q 33.9375 0 27.875 0 
Q 17.828125 0 11.671875 7.65625 
Q 5.515625 15.328125 5.515625 27.984375 
Q 5.515625 40.671875 11.671875 48.328125 
Q 17.828125 56 27.875 56 
Q 33.9375 56 38.28125 53.609375 
Q 42.625 51.21875 45.40625 46.390625 
L 45.40625 54.6875 
L 54.390625 54.6875 
z
" id="DejaVuSans-103"/>
     <path d="M 48.78125 52.59375 
L 48.78125 44.1875 
Q 44.96875 46.296875 41.140625 47.34375 
Q 37.3125 48.390625 33.40625 48.390625 
Q 24.65625 48.390625 19.8125 42.84375 
Q 14.984375 37.3125 14.984375 27.296875 
Q 14.984375 17.28125 19.8125 11.734375 
Q 24.65625 6.203125 33.40625 6.203125 
Q 37.3125 6.203125 41.140625 7.25 
Q 44.96875 8.296875 48.78125 10.40625 
L 48.78125 2.09375 
Q 45.015625 0.34375 40.984375 -0.53125 
Q 36.96875 -1.421875 32.421875 -1.421875 
Q 20.0625 -1.421875 12.78125 6.34375 
Q 5.515625 14.109375 5.515625 27.296875 
Q 5.515625 40.671875 12.859375 48.328125 
Q 20.21875 56 33.015625 56 
Q 37.15625 56 41.109375 55.140625 
Q 45.0625 54.296875 48.78125 52.59375 
z
" id="DejaVuSans-99"/>
     <path d="M 40.578125 39.3125 
Q 47.65625 37.796875 51.625 33 
Q 55.609375 28.21875 55.609375 21.1875 
Q 55.609375 10.40625 48.1875 4.484375 
Q 40.765625 -1.421875 27.09375 -1.421875 
Q 22.515625 -1.421875 17.65625 -0.515625 
Q 12.796875 0.390625 7.625 2.203125 
L 7.625 11.71875 
Q 11.71875 9.328125 16.59375 8.109375 
Q 21.484375 6.890625 26.8125 6.890625 
Q 36.078125 6.890625 40.9375 10.546875 
Q 45.796875 14.203125 45.796875 21.1875 
Q 45.796875 27.640625 41.28125 31.265625 
Q 36.765625 34.90625 28.71875 34.90625 
L 20.21875 34.90625 
L 20.21875 43.015625 
L 29.109375 43.015625 
Q 36.375 43.015625 40.234375 45.921875 
Q 44.09375 48.828125 44.09375 54.296875 
Q 44.09375 59.90625 40.109375 62.90625 
Q 36.140625 65.921875 28.71875 65.921875 
Q 24.65625 65.921875 20.015625 65.03125 
Q 15.375 64.15625 9.8125 62.3125 
L 9.8125 71.09375 
Q 15.4375 72.65625 20.34375 73.4375 
Q 25.25 74.21875 29.59375 74.21875 
Q 40.828125 74.21875 47.359375 69.109375 
Q 53.90625 64.015625 53.90625 55.328125 
Q 53.90625 49.265625 50.4375 45.09375 
Q 46.96875 40.921875 40.578125 39.3125 
z
" id="DejaVuSans-51"/>
     <path d="M 9.8125 72.90625 
L 51.703125 72.90625 
L 51.703125 64.59375 
L 19.671875 64.59375 
L 19.671875 43.109375 
L 48.578125 43.109375 
L 48.578125 34.8125 
L 19.671875 34.8125 
L 19.671875 0 
L 9.8125 0 
z
" id="DejaVuSans-70"/>
     <path d="M 9.8125 72.90625 
L 23.09375 72.90625 
L 55.421875 11.921875 
L 55.421875 72.90625 
L 64.984375 72.90625 
L 64.984375 0 
L 51.703125 0 
L 19.390625 60.984375 
L 19.390625 0 
L 9.8125 0 
z
" id="DejaVuSans-78"/>
     <path d="M 28.609375 0 
L 0.78125 72.90625 
L 11.078125 72.90625 
L 34.1875 11.53125 
L 57.328125 72.90625 
L 67.578125 72.90625 
L 39.796875 0 
z
" id="DejaVuSans-86"/>
    </defs>
    <g transform="translate(222.74125 9.170625)scale(0.12 -0.12)">
     <use xlink:href="#DejaVuSans-100"/>
     <use x="63.476562" xlink:href="#DejaVuSans-97"/>
     <use x="124.755859" xlink:href="#DejaVuSans-116"/>
     <use x="163.964844" xlink:href="#DejaVuSans-97"/>
     <use x="225.244141" xlink:href="#DejaVuSans-115"/>
     <use x="277.34375" xlink:href="#DejaVuSans-101"/>
     <use x="338.867188" xlink:href="#DejaVuSans-116"/>
     <use x="378.076172" xlink:href="#DejaVuSans-95"/>
     <use x="428.076172" xlink:href="#DejaVuSans-116"/>
     <use x="467.285156" xlink:href="#DejaVuSans-121"/>
     <use x="526.464844" xlink:href="#DejaVuSans-112"/>
     <use x="589.941406" xlink:href="#DejaVuSans-101"/>
     <use x="651.464844" xlink:href="#DejaVuSans-32"/>
     <use x="683.251953" xlink:href="#DejaVuSans-61"/>
     <use x="767.041016" xlink:href="#DejaVuSans-32"/>
     <use x="798.828125" xlink:href="#DejaVuSans-118"/>
     <use x="858.007812" xlink:href="#DejaVuSans-97"/>
     <use x="919.287109" xlink:href="#DejaVuSans-114"/>
     <use x="960.400391" xlink:href="#DejaVuSans-105"/>
     <use x="988.183594" xlink:href="#DejaVuSans-97"/>
     <use x="1049.462891" xlink:href="#DejaVuSans-98"/>
     <use x="1112.939453" xlink:href="#DejaVuSans-108"/>
     <use x="1140.722656" xlink:href="#DejaVuSans-101"/>
     <use x="1202.246094" xlink:href="#DejaVuSans-95"/>
     <use x="1252.246094" xlink:href="#DejaVuSans-115"/>
     <use x="1304.345703" xlink:href="#DejaVuSans-110"/>
     <use x="1367.724609" xlink:href="#DejaVuSans-114"/>
     <use x="1408.837891" xlink:href="#DejaVuSans-32"/>
     <use x="1440.625" xlink:href="#DejaVuSans-124"/>
     <use x="1474.316406" xlink:href="#DejaVuSans-32"/>
     <use x="1506.103516" xlink:href="#DejaVuSans-105"/>
     <use x="1533.886719" xlink:href="#DejaVuSans-109"/>
     <use x="1631.298828" xlink:href="#DejaVuSans-97"/>
     <use x="1692.578125" xlink:href="#DejaVuSans-103"/>
     <use x="1756.054688" xlink:href="#DejaVuSans-101"/>
     <use x="1817.578125" xlink:href="#DejaVuSans-95"/>
     <use x="1867.578125" xlink:href="#DejaVuSans-105"/>
     <use x="1895.361328" xlink:href="#DejaVuSans-100"/>
     <use x="1958.837891" xlink:href="#DejaVuSans-32"/>
     <use x="1990.625" xlink:href="#DejaVuSans-61"/>
     <use x="2074.414062" xlink:href="#DejaVuSans-32"/>
     <use x="2106.201172" xlink:href="#DejaVuSans-50"/>
     <use x="2169.824219" xlink:href="#DejaVuSans-53"/>
     <use x="2233.447266" xlink:href="#DejaVuSans-32"/>
     <use x="2265.234375" xlink:href="#DejaVuSans-124"/>
     <use x="2298.925781" xlink:href="#DejaVuSans-32"/>
     <use x="2330.712891" xlink:href="#DejaVuSans-99"/>
     <use x="2385.693359" xlink:href="#DejaVuSans-117"/>
     <use x="2449.072266" xlink:href="#DejaVuSans-114"/>
     <use x="2490.185547" xlink:href="#DejaVuSans-118"/>
     <use x="2549.365234" xlink:href="#DejaVuSans-101"/>
     <use x="2610.888672" xlink:href="#DejaVuSans-95"/>
     <use x="2660.888672" xlink:href="#DejaVuSans-105"/>
     <use x="2688.671875" xlink:href="#DejaVuSans-100"/>
     <use x="2752.148438" xlink:href="#DejaVuSans-32"/>
     <use x="2783.935547" xlink:href="#DejaVuSans-61"/>
     <use x="2867.724609" xlink:href="#DejaVuSans-32"/>
     <use x="2899.511719" xlink:href="#DejaVuSans-50"/>
     <use x="2963.134766" xlink:href="#DejaVuSans-51"/>
     <use x="3026.757812" xlink:href="#DejaVuSans-32"/>
     <use x="3058.544922" xlink:href="#DejaVuSans-124"/>
     <use x="3092.236328" xlink:href="#DejaVuSans-32"/>
     <use x="3124.023438" xlink:href="#DejaVuSans-70"/>
     <use x="3181.464844" xlink:href="#DejaVuSans-101"/>
     <use x="3242.988281" xlink:href="#DejaVuSans-97"/>
     <use x="3304.267578" xlink:href="#DejaVuSans-116"/>
     <use x="3343.476562" xlink:href="#DejaVuSans-117"/>
     <use x="3406.855469" xlink:href="#DejaVuSans-114"/>
     <use x="3447.9375" xlink:href="#DejaVuSans-101"/>
     <use x="3509.460938" xlink:href="#DejaVuSans-32"/>
     <use x="3541.248047" xlink:href="#DejaVuSans-78"/>
     <use x="3616.052734" xlink:href="#DejaVuSans-97"/>
     <use x="3677.332031" xlink:href="#DejaVuSans-109"/>
     <use x="3774.744141" xlink:href="#DejaVuSans-101"/>
     <use x="3836.267578" xlink:href="#DejaVuSans-32"/>
     <use x="3868.054688" xlink:href="#DejaVuSans-61"/>
     <use x="3951.84375" xlink:href="#DejaVuSans-32"/>
     <use x="3983.630859" xlink:href="#DejaVuSans-115"/>
     <use x="4035.730469" xlink:href="#DejaVuSans-110"/>
     <use x="4099.109375" xlink:href="#DejaVuSans-114"/>
     <use x="4140.222656" xlink:href="#DejaVuSans-32"/>
     <use x="4172.009766" xlink:href="#DejaVuSans-124"/>
     <use x="4205.701172" xlink:href="#DejaVuSans-32"/>
     <use x="4237.488281" xlink:href="#DejaVuSans-70"/>
     <use x="4294.929688" xlink:href="#DejaVuSans-101"/>
     <use x="4356.453125" xlink:href="#DejaVuSans-97"/>
     <use x="4417.732422" xlink:href="#DejaVuSans-116"/>
     <use x="4456.941406" xlink:href="#DejaVuSans-117"/>
     <use x="4520.320312" xlink:href="#DejaVuSans-114"/>
     <use x="4561.402344" xlink:href="#DejaVuSans-101"/>
     <use x="4622.925781" xlink:href="#DejaVuSans-32"/>
     <use x="4654.712891" xlink:href="#DejaVuSans-86"/>
     <use x="4723.011719" xlink:href="#DejaVuSans-97"/>
     <use x="4784.291016" xlink:href="#DejaVuSans-108"/>
     <use x="4812.074219" xlink:href="#DejaVuSans-117"/>
     <use x="4875.453125" xlink:href="#DejaVuSans-101"/>
     <use x="4936.976562" xlink:href="#DejaVuSans-32"/>
     <use x="4968.763672" xlink:href="#DejaVuSans-61"/>
     <use x="5052.552734" xlink:href="#DejaVuSans-32"/>
     <use x="5084.339844" xlink:href="#DejaVuSans-50"/>
     <use x="5147.962891" xlink:href="#DejaVuSans-53"/>
     <use x="5211.585938" xlink:href="#DejaVuSans-32"/>
     <use x="5243.373047" xlink:href="#DejaVuSans-124"/>
     <use x="5277.064453" xlink:href="#DejaVuSans-32"/>
    </g>
    <!-- Absolute Error = 0.05105979482466992 um^-1 | Pearson Coefficient = 0.970772446172349 |  -->
    <defs>
     <path d="M 34.1875 63.1875 
L 20.796875 26.90625 
L 47.609375 26.90625 
z
M 28.609375 72.90625 
L 39.796875 72.90625 
L 67.578125 0 
L 57.328125 0 
L 50.6875 18.703125 
L 17.828125 18.703125 
L 11.1875 0 
L 0.78125 0 
z
" id="DejaVuSans-65"/>
     <path d="M 9.8125 72.90625 
L 55.90625 72.90625 
L 55.90625 64.59375 
L 19.671875 64.59375 
L 19.671875 43.015625 
L 54.390625 43.015625 
L 54.390625 34.71875 
L 19.671875 34.71875 
L 19.671875 8.296875 
L 56.78125 8.296875 
L 56.78125 0 
L 9.8125 0 
z
" id="DejaVuSans-69"/>
     <path d="M 10.984375 1.515625 
L 10.984375 10.5 
Q 14.703125 8.734375 18.5 7.8125 
Q 22.3125 6.890625 25.984375 6.890625 
Q 35.75 6.890625 40.890625 13.453125 
Q 46.046875 20.015625 46.78125 33.40625 
Q 43.953125 29.203125 39.59375 26.953125 
Q 35.25 24.703125 29.984375 24.703125 
Q 19.046875 24.703125 12.671875 31.3125 
Q 6.296875 37.9375 6.296875 49.421875 
Q 6.296875 60.640625 12.9375 67.421875 
Q 19.578125 74.21875 30.609375 74.21875 
Q 43.265625 74.21875 49.921875 64.515625 
Q 56.59375 54.828125 56.59375 36.375 
Q 56.59375 19.140625 48.40625 8.859375 
Q 40.234375 -1.421875 26.421875 -1.421875 
Q 22.703125 -1.421875 18.890625 -0.6875 
Q 15.09375 0.046875 10.984375 1.515625 
z
M 30.609375 32.421875 
Q 37.25 32.421875 41.125 36.953125 
Q 45.015625 41.5 45.015625 49.421875 
Q 45.015625 57.28125 41.125 61.84375 
Q 37.25 66.40625 30.609375 66.40625 
Q 23.96875 66.40625 20.09375 61.84375 
Q 16.21875 57.28125 16.21875 49.421875 
Q 16.21875 41.5 20.09375 36.953125 
Q 23.96875 32.421875 30.609375 32.421875 
z
" id="DejaVuSans-57"/>
     <path d="M 8.203125 72.90625 
L 55.078125 72.90625 
L 55.078125 68.703125 
L 28.609375 0 
L 18.3125 0 
L 43.21875 64.59375 
L 8.203125 64.59375 
z
" id="DejaVuSans-55"/>
     <path d="M 46.6875 72.90625 
L 73.1875 45.703125 
L 63.375 45.703125 
L 41.890625 64.984375 
L 20.40625 45.703125 
L 10.59375 45.703125 
L 37.109375 72.90625 
z
" id="DejaVuSans-94"/>
     <path d="M 4.890625 31.390625 
L 31.203125 31.390625 
L 31.203125 23.390625 
L 4.890625 23.390625 
z
" id="DejaVuSans-45"/>
     <path d="M 19.671875 64.796875 
L 19.671875 37.40625 
L 32.078125 37.40625 
Q 38.96875 37.40625 42.71875 40.96875 
Q 46.484375 44.53125 46.484375 51.125 
Q 46.484375 57.671875 42.71875 61.234375 
Q 38.96875 64.796875 32.078125 64.796875 
z
M 9.8125 72.90625 
L 32.078125 72.90625 
Q 44.34375 72.90625 50.609375 67.359375 
Q 56.890625 61.8125 56.890625 51.125 
Q 56.890625 40.328125 50.609375 34.8125 
Q 44.34375 29.296875 32.078125 29.296875 
L 19.671875 29.296875 
L 19.671875 0 
L 9.8125 0 
z
" id="DejaVuSans-80"/>
     <path d="M 37.109375 75.984375 
L 37.109375 68.5 
L 28.515625 68.5 
Q 23.6875 68.5 21.796875 66.546875 
Q 19.921875 64.59375 19.921875 59.515625 
L 19.921875 54.6875 
L 34.71875 54.6875 
L 34.71875 47.703125 
L 19.921875 47.703125 
L 19.921875 0 
L 10.890625 0 
L 10.890625 47.703125 
L 2.296875 47.703125 
L 2.296875 54.6875 
L 10.890625 54.6875 
L 10.890625 58.5 
Q 10.890625 67.625 15.140625 71.796875 
Q 19.390625 75.984375 28.609375 75.984375 
z
" id="DejaVuSans-102"/>
    </defs>
    <g transform="translate(254.54125 23.00475)scale(0.12 -0.12)">
     <use xlink:href="#DejaVuSans-65"/>
     <use x="68.408203" xlink:href="#DejaVuSans-98"/>
     <use x="131.884766" xlink:href="#DejaVuSans-115"/>
     <use x="183.984375" xlink:href="#DejaVuSans-111"/>
     <use x="245.166016" xlink:href="#DejaVuSans-108"/>
     <use x="272.949219" xlink:href="#DejaVuSans-117"/>
     <use x="336.328125" xlink:href="#DejaVuSans-116"/>
     <use x="375.537109" xlink:href="#DejaVuSans-101"/>
     <use x="437.060547" xlink:href="#DejaVuSans-32"/>
     <use x="468.847656" xlink:href="#DejaVuSans-69"/>
     <use x="532.03125" xlink:href="#DejaVuSans-114"/>
     <use x="573.128906" xlink:href="#DejaVuSans-114"/>
     <use x="614.210938" xlink:href="#DejaVuSans-111"/>
     <use x="675.392578" xlink:href="#DejaVuSans-114"/>
     <use x="716.505859" xlink:href="#DejaVuSans-32"/>
     <use x="748.292969" xlink:href="#DejaVuSans-61"/>
     <use x="832.082031" xlink:href="#DejaVuSans-32"/>
     <use x="863.869141" xlink:href="#DejaVuSans-48"/>
     <use x="927.492188" xlink:href="#DejaVuSans-46"/>
     <use x="959.279297" xlink:href="#DejaVuSans-48"/>
     <use x="1022.902344" xlink:href="#DejaVuSans-53"/>
     <use x="1086.525391" xlink:href="#DejaVuSans-49"/>
     <use x="1150.148438" xlink:href="#DejaVuSans-48"/>
     <use x="1213.771484" xlink:href="#DejaVuSans-53"/>
     <use x="1277.394531" xlink:href="#DejaVuSans-57"/>
     <use x="1341.017578" xlink:href="#DejaVuSans-55"/>
     <use x="1404.640625" xlink:href="#DejaVuSans-57"/>
     <use x="1468.263672" xlink:href="#DejaVuSans-52"/>
     <use x="1531.886719" xlink:href="#DejaVuSans-56"/>
     <use x="1595.509766" xlink:href="#DejaVuSans-50"/>
     <use x="1659.132812" xlink:href="#DejaVuSans-52"/>
     <use x="1722.755859" xlink:href="#DejaVuSans-54"/>
     <use x="1786.378906" xlink:href="#DejaVuSans-54"/>
     <use x="1850.001953" xlink:href="#DejaVuSans-57"/>
     <use x="1913.625" xlink:href="#DejaVuSans-57"/>
     <use x="1977.248047" xlink:href="#DejaVuSans-50"/>
     <use x="2040.871094" xlink:href="#DejaVuSans-32"/>
     <use x="2072.658203" xlink:href="#DejaVuSans-117"/>
     <use x="2136.037109" xlink:href="#DejaVuSans-109"/>
     <use x="2233.449219" xlink:href="#DejaVuSans-94"/>
     <use x="2317.238281" xlink:href="#DejaVuSans-45"/>
     <use x="2353.322266" xlink:href="#DejaVuSans-49"/>
     <use x="2416.945312" xlink:href="#DejaVuSans-32"/>
     <use x="2448.732422" xlink:href="#DejaVuSans-124"/>
     <use x="2482.423828" xlink:href="#DejaVuSans-32"/>
     <use x="2514.210938" xlink:href="#DejaVuSans-80"/>
     <use x="2574.466797" xlink:href="#DejaVuSans-101"/>
     <use x="2635.990234" xlink:href="#DejaVuSans-97"/>
     <use x="2697.269531" xlink:href="#DejaVuSans-114"/>
     <use x="2738.382812" xlink:href="#DejaVuSans-115"/>
     <use x="2790.482422" xlink:href="#DejaVuSans-111"/>
     <use x="2851.664062" xlink:href="#DejaVuSans-110"/>
     <use x="2915.042969" xlink:href="#DejaVuSans-32"/>
     <use x="2946.830078" xlink:href="#DejaVuSans-67"/>
     <use x="3016.654297" xlink:href="#DejaVuSans-111"/>
     <use x="3077.835938" xlink:href="#DejaVuSans-101"/>
     <use x="3139.359375" xlink:href="#DejaVuSans-102"/>
     <use x="3174.564453" xlink:href="#DejaVuSans-102"/>
     <use x="3209.769531" xlink:href="#DejaVuSans-105"/>
     <use x="3237.552734" xlink:href="#DejaVuSans-99"/>
     <use x="3292.533203" xlink:href="#DejaVuSans-105"/>
     <use x="3320.316406" xlink:href="#DejaVuSans-101"/>
     <use x="3381.839844" xlink:href="#DejaVuSans-110"/>
     <use x="3445.21875" xlink:href="#DejaVuSans-116"/>
     <use x="3484.427734" xlink:href="#DejaVuSans-32"/>
     <use x="3516.214844" xlink:href="#DejaVuSans-61"/>
     <use x="3600.003906" xlink:href="#DejaVuSans-32"/>
     <use x="3631.791016" xlink:href="#DejaVuSans-48"/>
     <use x="3695.414062" xlink:href="#DejaVuSans-46"/>
     <use x="3727.201172" xlink:href="#DejaVuSans-57"/>
     <use x="3790.824219" xlink:href="#DejaVuSans-55"/>
     <use x="3854.447266" xlink:href="#DejaVuSans-48"/>
     <use x="3918.070312" xlink:href="#DejaVuSans-55"/>
     <use x="3981.693359" xlink:href="#DejaVuSans-55"/>
     <use x="4045.316406" xlink:href="#DejaVuSans-50"/>
     <use x="4108.939453" xlink:href="#DejaVuSans-52"/>
     <use x="4172.5625" xlink:href="#DejaVuSans-52"/>
     <use x="4236.185547" xlink:href="#DejaVuSans-54"/>
     <use x="4299.808594" xlink:href="#DejaVuSans-49"/>
     <use x="4363.431641" xlink:href="#DejaVuSans-55"/>
     <use x="4427.054688" xlink:href="#DejaVuSans-50"/>
     <use x="4490.677734" xlink:href="#DejaVuSans-51"/>
     <use x="4554.300781" xlink:href="#DejaVuSans-52"/>
     <use x="4617.923828" xlink:href="#DejaVuSans-57"/>
     <use x="4681.546875" xlink:href="#DejaVuSans-32"/>
     <use x="4713.333984" xlink:href="#DejaVuSans-124"/>
     <use x="4747.025391" xlink:href="#DejaVuSans-32"/>
    </g>
    <!-- Filename = /home/hadim/.data/Kappa/sine_curve/variable_snr/snr_25_dB.tif -->
    <defs>
     <path d="M 25.390625 72.90625 
L 33.6875 72.90625 
L 8.296875 -9.28125 
L 0 -9.28125 
z
" id="DejaVuSans-47"/>
     <path d="M 54.890625 33.015625 
L 54.890625 0 
L 45.90625 0 
L 45.90625 32.71875 
Q 45.90625 40.484375 42.875 44.328125 
Q 39.84375 48.1875 33.796875 48.1875 
Q 26.515625 48.1875 22.3125 43.546875 
Q 18.109375 38.921875 18.109375 30.90625 
L 18.109375 0 
L 9.078125 0 
L 9.078125 75.984375 
L 18.109375 75.984375 
L 18.109375 46.1875 
Q 21.34375 51.125 25.703125 53.5625 
Q 30.078125 56 35.796875 56 
Q 45.21875 56 50.046875 50.171875 
Q 54.890625 44.34375 54.890625 33.015625 
z
" id="DejaVuSans-104"/>
     <path d="M 9.8125 72.90625 
L 19.671875 72.90625 
L 19.671875 42.09375 
L 52.390625 72.90625 
L 65.09375 72.90625 
L 28.90625 38.921875 
L 67.671875 0 
L 54.6875 0 
L 19.671875 35.109375 
L 19.671875 0 
L 9.8125 0 
z
" id="DejaVuSans-75"/>
     <path d="M 19.671875 34.8125 
L 19.671875 8.109375 
L 35.5 8.109375 
Q 43.453125 8.109375 47.28125 11.40625 
Q 51.125 14.703125 51.125 21.484375 
Q 51.125 28.328125 47.28125 31.5625 
Q 43.453125 34.8125 35.5 34.8125 
z
M 19.671875 64.796875 
L 19.671875 42.828125 
L 34.28125 42.828125 
Q 41.5 42.828125 45.03125 45.53125 
Q 48.578125 48.25 48.578125 53.8125 
Q 48.578125 59.328125 45.03125 62.0625 
Q 41.5 64.796875 34.28125 64.796875 
z
M 9.8125 72.90625 
L 35.015625 72.90625 
Q 46.296875 72.90625 52.390625 68.21875 
Q 58.5 63.53125 58.5 54.890625 
Q 58.5 48.1875 55.375 44.234375 
Q 52.25 40.28125 46.1875 39.3125 
Q 53.46875 37.75 57.5 32.78125 
Q 61.53125 27.828125 61.53125 20.40625 
Q 61.53125 10.640625 54.890625 5.3125 
Q 48.25 0 35.984375 0 
L 9.8125 0 
z
" id="DejaVuSans-66"/>
    </defs>
    <g transform="translate(312.964375 36.775875)scale(0.12 -0.12)">
     <use xlink:href="#DejaVuSans-70"/>
     <use x="57.410156" xlink:href="#DejaVuSans-105"/>
     <use x="85.193359" xlink:href="#DejaVuSans-108"/>
     <use x="112.976562" xlink:href="#DejaVuSans-101"/>
     <use x="174.5" xlink:href="#DejaVuSans-110"/>
     <use x="237.878906" xlink:href="#DejaVuSans-97"/>
     <use x="299.158203" xlink:href="#DejaVuSans-109"/>
     <use x="396.570312" xlink:href="#DejaVuSans-101"/>
     <use x="458.09375" xlink:href="#DejaVuSans-32"/>
     <use x="489.880859" xlink:href="#DejaVuSans-61"/>
     <use x="573.669922" xlink:href="#DejaVuSans-32"/>
     <use x="605.457031" xlink:href="#DejaVuSans-47"/>
     <use x="639.148438" xlink:href="#DejaVuSans-104"/>
     <use x="702.527344" xlink:href="#DejaVuSans-111"/>
     <use x="763.708984" xlink:href="#DejaVuSans-109"/>
     <use x="861.121094" xlink:href="#DejaVuSans-101"/>
     <use x="922.644531" xlink:href="#DejaVuSans-47"/>
     <use x="956.335938" xlink:href="#DejaVuSans-104"/>
     <use x="1019.714844" xlink:href="#DejaVuSans-97"/>
     <use x="1080.994141" xlink:href="#DejaVuSans-100"/>
     <use x="1144.470703" xlink:href="#DejaVuSans-105"/>
     <use x="1172.253906" xlink:href="#DejaVuSans-109"/>
     <use x="1269.666016" xlink:href="#DejaVuSans-47"/>
     <use x="1303.357422" xlink:href="#DejaVuSans-46"/>
     <use x="1335.144531" xlink:href="#DejaVuSans-100"/>
     <use x="1398.621094" xlink:href="#DejaVuSans-97"/>
     <use x="1459.900391" xlink:href="#DejaVuSans-116"/>
     <use x="1499.109375" xlink:href="#DejaVuSans-97"/>
     <use x="1560.388672" xlink:href="#DejaVuSans-47"/>
     <use x="1594.080078" xlink:href="#DejaVuSans-75"/>
     <use x="1659.640625" xlink:href="#DejaVuSans-97"/>
     <use x="1720.919922" xlink:href="#DejaVuSans-112"/>
     <use x="1784.396484" xlink:href="#DejaVuSans-112"/>
     <use x="1847.873047" xlink:href="#DejaVuSans-97"/>
     <use x="1909.152344" xlink:href="#DejaVuSans-47"/>
     <use x="1942.84375" xlink:href="#DejaVuSans-115"/>
     <use x="1994.943359" xlink:href="#DejaVuSans-105"/>
     <use x="2022.726562" xlink:href="#DejaVuSans-110"/>
     <use x="2086.105469" xlink:href="#DejaVuSans-101"/>
     <use x="2147.628906" xlink:href="#DejaVuSans-95"/>
     <use x="2197.628906" xlink:href="#DejaVuSans-99"/>
     <use x="2252.609375" xlink:href="#DejaVuSans-117"/>
     <use x="2315.988281" xlink:href="#DejaVuSans-114"/>
     <use x="2357.101562" xlink:href="#DejaVuSans-118"/>
     <use x="2416.28125" xlink:href="#DejaVuSans-101"/>
     <use x="2477.804688" xlink:href="#DejaVuSans-47"/>
     <use x="2511.496094" xlink:href="#DejaVuSans-118"/>
     <use x="2570.675781" xlink:href="#DejaVuSans-97"/>
     <use x="2631.955078" xlink:href="#DejaVuSans-114"/>
     <use x="2673.068359" xlink:href="#DejaVuSans-105"/>
     <use x="2700.851562" xlink:href="#DejaVuSans-97"/>
     <use x="2762.130859" xlink:href="#DejaVuSans-98"/>
     <use x="2825.607422" xlink:href="#DejaVuSans-108"/>
     <use x="2853.390625" xlink:href="#DejaVuSans-101"/>
     <use x="2914.914062" xlink:href="#DejaVuSans-95"/>
     <use x="2964.914062" xlink:href="#DejaVuSans-115"/>
     <use x="3017.013672" xlink:href="#DejaVuSans-110"/>
     <use x="3080.392578" xlink:href="#DejaVuSans-114"/>
     <use x="3121.505859" xlink:href="#DejaVuSans-47"/>
     <use x="3155.197266" xlink:href="#DejaVuSans-115"/>
     <use x="3207.296875" xlink:href="#DejaVuSans-110"/>
     <use x="3270.675781" xlink:href="#DejaVuSans-114"/>
     <use x="3311.789062" xlink:href="#DejaVuSans-95"/>
     <use x="3361.789062" xlink:href="#DejaVuSans-50"/>
     <use x="3425.412109" xlink:href="#DejaVuSans-53"/>
     <use x="3489.035156" xlink:href="#DejaVuSans-95"/>
     <use x="3539.035156" xlink:href="#DejaVuSans-100"/>
     <use x="3602.511719" xlink:href="#DejaVuSans-66"/>
     <use x="3671.115234" xlink:href="#DejaVuSans-46"/>
     <use x="3702.902344" xlink:href="#DejaVuSans-116"/>
     <use x="3742.111328" xlink:href="#DejaVuSans-105"/>
     <use x="3769.894531" xlink:href="#DejaVuSans-102"/>
    </g>
   </g>
  </g>
 </g>
 <defs>
  <clipPath id="p40ed515fc2">
   <rect height="434.88" width="892.8" x="94.87" y="42.775875"/>
  </clipPath>
 </defs>
</svg>
