<?xml version="1.0" encoding="utf-8" standalone="no"?>
<!DOCTYPE svg PUBLIC "-//W3C//DTD SVG 1.1//EN"
  "http://www.w3.org/Graphics/SVG/1.1/DTD/svg11.dtd">
<!-- Created with matplotlib (https://matplotlib.org/) -->
<svg height="517.635884pt" version="1.1" viewBox="0 0 1003.571701 517.635884" width="1003.571701pt" xmlns="http://www.w3.org/2000/svg" xmlns:xlink="http://www.w3.org/1999/xlink">
 <defs>
  <style type="text/css">
*{stroke-linecap:butt;stroke-linejoin:round;}
  </style>
 </defs>
 <g id="figure_1">
  <g id="patch_1">
   <path d="M 0 517.635884 
L 1003.571701 517.635884 
L 1003.571701 0 
L 0 0 
z
" style="fill:none;"/>
  </g>
  <g id="axes_1">
   <g id="line2d_1">
    <path clip-path="url(#pf3fea9d706)" d="M 66.259711 162.548983 
L 67.435927 161.341789 
L 68.762036 160.301318 
L 70.210099 159.43844 
L 71.84639 158.725724 
L 73.559013 158.22308 
L 75.319771 157.930253 
L 77.201907 157.84499 
L 79.081019 157.982629 
L 80.932262 158.333591 
L 82.826693 158.920802 
L 84.643534 159.71645 
L 86.363621 160.704135 
L 88.047936 161.929058 
L 89.592369 163.326321 
L 90.984599 164.875372 
L 92.269544 166.638783 
L 93.369054 168.523467 
L 94.31459 170.599388 
L 95.048493 172.759282 
L 95.570023 174.980093 
L 95.889354 177.338963 
L 95.98273 179.71757 
L 95.855723 182.094666 
L 95.496745 184.548196 
L 94.915815 186.958888 
L 94.123575 189.308673 
L 93.08792 191.670497 
L 91.849999 193.932924 
L 90.42416 196.081927 
L 88.760341 198.180572 
L 86.926385 200.132347 
L 84.938981 201.927687 
L 82.733599 203.615998 
L 80.399191 205.120937 
L 77.953529 206.437462 
L 75.321648 207.598704 
L 72.60745 208.551913 
L 69.828696 209.296353 
L 66.904232 209.847405 
L 63.946651 210.177644 
L 60.972791 210.290221 
L 57.899508 210.182341 
L 54.84208 209.852145 
L 51.815708 209.30613 
L 48.739197 208.523804 
L 45.725022 207.527873 
L 42.786222 206.32756 
L 39.847079 204.885919 
L 37.012469 203.248226 
L 34.292927 201.425779 
L 31.62122 199.36702 
L 29.090628 197.137047 
L 26.708997 194.748603 
L 24.420015 192.137783 
L 22.302216 189.386255 
L 20.307865 186.423617 
L 18.504441 183.341006 
L 16.895314 180.152639 
L 15.446463 176.780074 
L 14.206977 173.32505 
L 13.177531 169.801713 
L 12.338713 166.126372 
L 11.720232 162.407585 
L 11.320282 158.658974 
L 11.134403 154.794357 
L 11.17266 150.925442 
L 11.431023 147.064955 
L 11.919849 143.126855 
L 12.629911 139.222558 
L 13.555253 135.363594 
L 14.72049 131.466511 
L 16.097982 127.639281 
L 17.680168 123.892016 
L 19.504995 120.146061 
L 21.527738 116.503147 
L 23.739545 112.971809 
L 26.190492 109.480125 
L 28.820428 106.121171 
L 31.61953 102.901809 
L 34.648567 99.758489 
L 37.833879 96.773622 
L 41.164978 93.952354 
L 44.711728 91.240843 
L 48.389058 88.709224 
L 52.186098 86.360934 
L 56.180103 84.15287 
L 60.276792 82.14168 
L 64.465173 80.329133 
L 68.828134 78.6836 
L 73.264425 77.247408 
L 77.85949 75.996909 
L 82.508446 74.964587 
L 87.200394 74.149585 
L 92.023485 73.540385 
L 96.869563 73.1544 
L 101.728196 72.989327 
L 106.688518 73.045801 
L 111.641242 73.326225 
L 116.576569 73.826985 
L 121.582971 74.560663 
L 126.552047 75.514987 
L 131.47477 76.68518 
L 136.437406 78.095365 
L 141.334318 79.719167 
L 146.157356 81.550804 
L 150.989163 83.625349 
L 155.728574 85.90311 
L 160.368396 88.377452 
L 164.986369 91.093669 
L 169.487325 93.999699 
L 173.865087 97.088214 
L 178.19136 100.413868 
L 182.378311 103.913319 
L 186.420812 107.578698 
L 190.383553 111.473065 
L 194.187183 115.522992 
L 197.827637 119.720218 
L 201.361763 124.135174 
L 204.719646 128.685626 
L 207.898283 133.363057 
L 210.946007 138.244187 
L 213.803103 143.239301 
L 216.467614 148.339756 
L 218.978834 153.627448 
L 221.287832 159.006532 
L 223.427603 164.561598 
L 225.356635 170.193322 
L 227.074639 175.892974 
L 228.604983 181.748455 
L 229.917608 187.656563 
L 231.013186 193.608749 
L 231.905302 199.695101 
L 232.57549 205.809877 
L 233.025322 211.944809 
L 233.258576 218.191069 
L 233.268366 224.441683 
L 233.057101 230.68874 
L 232.618841 237.023439 
L 231.958137 243.33882 
L 231.078162 249.627405 
L 229.963457 255.979407 
L 228.62974 262.289064 
L 227.080877 268.54939 
L 225.292182 274.848655 
L 223.290163 281.083411 
L 221.079305 287.247212 
L 218.626069 293.425496 
L 215.967286 299.518156 
L 213.10798 305.51933 
L 210.006215 311.510797 
L 206.708585 317.396742 
L 203.22058 323.171913 
L 199.492383 328.913683 
L 195.579725 334.531385 
L 191.488487 340.020402 
L 187.161542 345.453023 
L 182.663073 350.744496 
L 177.999278 355.890855 
L 173.106337 360.958703 
L 168.056153 365.869883 
L 162.780873 370.686845 
L 157.357213 375.336114 
L 151.791837 379.814782 
L 146.011277 384.178765 
L 140.0987 388.362153 
L 134.060904 392.362704 
L 127.819502 396.2294 
L 121.463295 399.904335 
L 114.999152 403.385922 
L 108.344479 406.715885 
L 101.592879 409.844673 
L 94.751234 412.771339 
L 87.733459 415.530099 
L 80.637131 418.080024 
L 73.469084 420.420787 
L 66.140463 422.578913 
L 58.751987 424.522284 
L 51.310394 426.251167 
L 43.724769 427.784287 
L 36.098155 429.098441 
L 28.633961 430.16908 
L 28.633961 430.16908 
" style="fill:none;stroke:#1368b3;stroke-linecap:square;stroke-width:6;"/>
   </g>
   <g id="line2d_2">
    <path clip-path="url(#pf3fea9d706)" d="M 68.298304 156.468067 
L 72.823293 156.511232 
L 72.823293 156.511232 
L 76.960095 156.797315 
L 76.960095 156.797315 
L 80.720191 157.31211 
L 80.720191 157.31211 
L 84.115067 158.041411 
L 84.115067 158.041411 
L 87.156205 158.971013 
L 87.156205 158.971013 
L 89.85509 160.086708 
L 89.85509 160.086708 
L 92.223204 161.374292 
L 92.223204 161.374292 
L 93.78913 162.444235 
L 93.78913 162.444235 
L 95.180302 163.596881 
L 95.180302 163.596881 
L 96.401564 164.826236 
L 96.401564 164.826236 
L 97.457761 166.126308 
L 97.457761 166.126308 
L 98.617631 167.959382 
L 98.617631 167.959382 
L 99.504148 169.893313 
L 99.504148 169.893313 
L 100.128796 171.913895 
L 100.128796 171.913895 
L 100.50306 174.006922 
L 100.50306 174.006922 
L 100.638422 176.158189 
L 100.638422 176.158189 
L 100.546366 178.353488 
L 100.546366 178.353488 
L 100.238375 180.578615 
L 100.238375 180.578615 
L 99.725934 182.819362 
L 99.725934 182.819362 
L 99.020526 185.061523 
L 99.020526 185.061523 
L 97.8849 187.844572 
L 97.8849 187.844572 
L 96.488135 190.579889 
L 96.488135 190.579889 
L 94.85266 193.239726 
L 94.85266 193.239726 
L 93.000903 195.796337 
L 93.000903 195.796337 
L 90.955293 198.221977 
L 90.955293 198.221977 
L 88.73826 200.488898 
L 88.73826 200.488898 
L 86.372233 202.569355 
L 86.372233 202.569355 
L 83.879639 204.435601 
L 83.879639 204.435601 
L 81.282908 206.05989 
L 81.282908 206.05989 
L 79.145617 207.166467 
L 79.145617 207.166467 
L 76.967499 208.08628 
L 76.967499 208.08628 
L 74.757851 208.811496 
L 74.757851 208.811496 
L 72.521765 209.346562 
L 72.521765 209.346562 
L 70.263846 209.697331 
L 70.263846 209.697331 
L 67.417763 209.885548 
L 67.417763 209.885548 
L 64.553761 209.806389 
L 64.553761 209.806389 
L 61.680837 209.47129 
L 61.680837 209.47129 
L 58.807988 208.891689 
L 58.807988 208.891689 
L 55.94421 208.079022 
L 55.94421 208.079022 
L 53.098501 207.044727 
L 53.098501 207.044727 
L 50.279857 205.800238 
L 50.279857 205.800238 
L 47.497276 204.356995 
L 47.497276 204.356995 
L 44.218448 202.378848 
L 44.218448 202.378848 
L 41.020052 200.150724 
L 41.020052 200.150724 
L 37.917635 197.692387 
L 37.917635 197.692387 
L 34.926742 195.023598 
L 34.926742 195.023598 
L 32.062921 192.164121 
L 32.062921 192.164121 
L 29.341718 189.133718 
L 29.341718 189.133718 
L 26.778681 185.952151 
L 26.778681 185.952151 
L 24.389354 182.639184 
L 24.389354 182.639184 
L 22.189285 179.214579 
L 22.189285 179.214579 
L 20.194022 175.698098 
L 20.194022 175.698098 
L 18.419109 172.109505 
L 18.419109 172.109505 
L 16.880094 168.468562 
L 16.880094 168.468562 
L 15.592161 164.794735 
L 15.592161 164.794735 
L 14.56215 161.100664 
L 14.56215 161.100664 
L 13.788559 157.392164 
L 13.788559 157.392164 
L 13.269522 153.674752 
L 13.269522 153.674752 
L 13.003175 149.953946 
L 13.003175 149.953946 
L 12.987651 146.235265 
L 12.987651 146.235265 
L 13.221087 142.524225 
L 13.221087 142.524225 
L 13.701616 138.826346 
L 13.701616 138.826346 
L 14.427373 135.147144 
L 14.427373 135.147144 
L 15.396493 131.492137 
L 15.396493 131.492137 
L 16.60711 127.866844 
L 16.60711 127.866844 
L 18.05736 124.276781 
L 18.05736 124.276781 
L 19.745377 120.727468 
L 19.745377 120.727468 
L 21.669296 117.224421 
L 21.669296 117.224421 
L 23.827251 113.773158 
L 23.827251 113.773158 
L 26.217378 110.379198 
L 26.217378 110.379198 
L 28.83781 107.048058 
L 28.83781 107.048058 
L 31.686684 103.785256 
L 31.686684 103.785256 
L 34.762133 100.59631 
L 34.762133 100.59631 
L 38.062292 97.486737 
L 38.062292 97.486737 
L 41.585295 94.462056 
L 41.585295 94.462056 
L 45.329272 91.527795 
L 45.329272 91.527795 
L 49.289923 88.69328 
L 49.289923 88.69328 
L 53.457003 85.977145 
L 53.457003 85.977145 
L 57.819376 83.399421 
L 57.819376 83.399421 
L 62.3659 80.980142 
L 62.3659 80.980142 
L 67.085439 78.739342 
L 67.085439 78.739342 
L 71.966852 76.697051 
L 71.966852 76.697051 
L 76.999002 74.873305 
L 76.999002 74.873305 
L 81.299569 73.534912 
L 81.299569 73.534912 
L 85.690634 72.373791 
L 85.690634 72.373791 
L 90.165749 71.401534 
L 90.165749 71.401534 
L 94.718468 70.629735 
L 94.718468 70.629735 
L 99.342347 70.069986 
L 99.342347 70.069986 
L 104.030937 69.733881 
L 104.030937 69.733881 
L 108.777794 69.633013 
L 108.777794 69.633013 
L 113.576472 69.778976 
L 113.576472 69.778976 
L 118.420524 70.183361 
L 118.420524 70.183361 
L 123.303504 70.857763 
L 123.303504 70.857763 
L 128.218967 71.813774 
L 128.218967 71.813774 
L 132.170392 72.789132 
L 132.170392 72.789132 
L 136.135181 73.958076 
L 136.135181 73.958076 
L 140.110032 75.32654 
L 140.110032 75.32654 
L 144.091645 76.900461 
L 144.091645 76.900461 
L 148.076719 78.685775 
L 148.076719 78.685775 
L 152.061956 80.688417 
L 152.061956 80.688417 
L 156.044053 82.914322 
L 156.044053 82.914322 
L 160.019593 85.369173 
L 160.019593 85.369173 
L 163.982453 88.052817 
L 163.982453 88.052817 
L 167.923808 90.959266 
L 167.923808 90.959266 
L 171.834711 94.082277 
L 171.834711 94.082277 
L 175.706219 97.415611 
L 175.706219 97.415611 
L 179.529387 100.953024 
L 179.529387 100.953024 
L 183.29527 104.688276 
L 183.29527 104.688276 
L 186.994924 108.615124 
L 186.994924 108.615124 
L 190.619404 112.727327 
L 190.619404 112.727327 
L 194.159767 117.018644 
L 194.159767 117.018644 
L 197.607066 121.482833 
L 197.607066 121.482833 
L 200.952358 126.113651 
L 200.952358 126.113651 
L 204.186699 130.904859 
L 204.186699 130.904859 
L 207.301143 135.850213 
L 207.301143 135.850213 
L 210.286746 140.943473 
L 210.286746 140.943473 
L 213.134563 146.178396 
L 213.134563 146.178396 
L 215.835651 151.548742 
L 215.835651 151.548742 
L 218.381064 157.048268 
L 218.381064 157.048268 
L 220.761858 162.670733 
L 220.761858 162.670733 
L 222.969088 168.409895 
L 222.969088 168.409895 
L 224.99381 174.259513 
L 224.99381 174.259513 
L 226.82708 180.213344 
L 226.82708 180.213344 
L 228.459952 186.265149 
L 228.459952 186.265149 
L 229.883482 192.408683 
L 229.883482 192.408683 
L 231.088726 198.637707 
L 231.088726 198.637707 
L 232.066739 204.945979 
L 232.066739 204.945979 
L 232.808576 211.327256 
L 232.808576 211.327256 
L 233.305294 217.775298 
L 233.305294 217.775298 
L 233.547947 224.283862 
L 233.547947 224.283862 
L 233.527591 230.846707 
L 233.527591 230.846707 
L 233.235281 237.457592 
L 233.235281 237.457592 
L 232.662073 244.110274 
L 232.662073 244.110274 
L 231.799185 250.798443 
L 231.799185 250.798443 
L 230.641565 257.51419 
L 230.641565 257.51419 
L 229.187895 264.248005 
L 229.187895 264.248005 
L 227.437018 270.990313 
L 227.437018 270.990313 
L 225.387777 277.731535 
L 225.387777 277.731535 
L 223.039015 284.462095 
L 223.039015 284.462095 
L 220.389576 291.172416 
L 220.389576 291.172416 
L 217.438302 297.852919 
L 217.438302 297.852919 
L 214.184036 304.494027 
L 214.184036 304.494027 
L 210.625622 311.086164 
L 210.625622 311.086164 
L 207.756518 315.992368 
L 207.756518 315.992368 
L 204.715192 320.861597 
L 204.715192 320.861597 
L 201.501156 325.689812 
L 201.501156 325.689812 
L 198.113921 330.472972 
L 198.113921 330.472972 
L 194.553 335.207036 
L 194.553 335.207036 
L 190.817905 339.887964 
L 190.817905 339.887964 
L 186.908147 344.511716 
L 186.908147 344.511716 
L 182.823239 349.074251 
L 182.823239 349.074251 
L 178.562692 353.571529 
L 178.562692 353.571529 
L 174.126018 357.999509 
L 174.126018 357.999509 
L 169.51273 362.354151 
L 169.51273 362.354151 
L 164.722339 366.631415 
L 164.722339 366.631415 
L 159.754358 370.82726 
L 159.754358 370.82726 
L 154.608297 374.937645 
L 154.608297 374.937645 
L 149.28367 378.958531 
L 149.28367 378.958531 
L 143.779987 382.885876 
L 143.779987 382.885876 
L 138.096762 386.715641 
L 138.096762 386.715641 
L 132.233505 390.443785 
L 132.233505 390.443785 
L 126.18973 394.066268 
L 126.18973 394.066268 
L 119.964947 397.579048 
L 119.964947 397.579048 
L 113.558669 400.978086 
L 113.558669 400.978086 
L 106.970408 404.259342 
L 106.970408 404.259342 
L 100.199676 407.418774 
L 100.199676 407.418774 
L 93.245984 410.452343 
L 93.245984 410.452343 
L 86.108845 413.356008 
L 86.108845 413.356008 
L 78.787771 416.125728 
L 78.787771 416.125728 
L 71.282272 418.757464 
L 71.282272 418.757464 
L 63.591863 421.247174 
L 63.591863 421.247174 
L 55.716054 423.590819 
L 55.716054 423.590819 
L 50.362273 425.070106 
L 50.362273 425.070106 
" style="fill:none;stroke:#d81920;stroke-linecap:square;stroke-width:6;"/>
   </g>
  </g>
  <g id="axes_2">
   <g id="patch_2">
    <path d="M 468.021941 448.195884 
L 1003.571701 448.195884 
L 1003.571701 51.60621 
L 468.021941 51.60621 
z
" style="fill:none;"/>
   </g>
   <g id="matplotlib.axis_1">
    <g id="xtick_1">
     <g id="line2d_3">
      <defs>
       <path d="M 0 0 
L 0 -11.52 
" id="m146eb976a1" style="stroke:#231f20;stroke-width:3.84;"/>
      </defs>
      <g>
       <use style="fill:#231f20;stroke:#231f20;stroke-width:3.84;" x="573.219215" xlink:href="#m146eb976a1" y="448.195884"/>
      </g>
     </g>
     <g id="text_1">
      <!-- −5.0 -->
      <defs>
       <path d="M 10.59375 35.5 
L 73.1875 35.5 
L 73.1875 27.203125 
L 10.59375 27.203125 
z
" id="DejaVuSans-8722"/>
       <path d="M 10.796875 72.90625 
L 49.515625 72.90625 
L 49.515625 64.59375 
L 19.828125 64.59375 
L 19.828125 46.734375 
Q 21.96875 47.46875 24.109375 47.828125 
Q 26.265625 48.1875 28.421875 48.1875 
Q 40.625 48.1875 47.75 41.5 
Q 54.890625 34.8125 54.890625 23.390625 
Q 54.890625 11.625 47.5625 5.09375 
Q 40.234375 -1.421875 26.90625 -1.421875 
Q 22.3125 -1.421875 17.546875 -0.640625 
Q 12.796875 0.140625 7.71875 1.703125 
L 7.71875 11.625 
Q 12.109375 9.234375 16.796875 8.0625 
Q 21.484375 6.890625 26.703125 6.890625 
Q 35.15625 6.890625 40.078125 11.328125 
Q 45.015625 15.765625 45.015625 23.390625 
Q 45.015625 31 40.078125 35.4375 
Q 35.15625 39.890625 26.703125 39.890625 
Q 22.75 39.890625 18.8125 39.015625 
Q 14.890625 38.140625 10.796875 36.28125 
z
" id="DejaVuSans-53"/>
       <path d="M 10.6875 12.40625 
L 21 12.40625 
L 21 0 
L 10.6875 0 
z
" id="DejaVuSans-46"/>
       <path d="M 31.78125 66.40625 
Q 24.171875 66.40625 20.328125 58.90625 
Q 16.5 51.421875 16.5 36.375 
Q 16.5 21.390625 20.328125 13.890625 
Q 24.171875 6.390625 31.78125 6.390625 
Q 39.453125 6.390625 43.28125 13.890625 
Q 47.125 21.390625 47.125 36.375 
Q 47.125 51.421875 43.28125 58.90625 
Q 39.453125 66.40625 31.78125 66.40625 
z
M 31.78125 74.21875 
Q 44.046875 74.21875 50.515625 64.515625 
Q 56.984375 54.828125 56.984375 36.375 
Q 56.984375 17.96875 50.515625 8.265625 
Q 44.046875 -1.421875 31.78125 -1.421875 
Q 19.53125 -1.421875 13.0625 8.265625 
Q 6.59375 17.96875 6.59375 36.375 
Q 6.59375 54.828125 13.0625 64.515625 
Q 19.53125 74.21875 31.78125 74.21875 
z
" id="DejaVuSans-48"/>
      </defs>
      <g transform="translate(534.366715 476.010884)scale(0.32 -0.32)">
       <use xlink:href="#DejaVuSans-8722"/>
       <use x="83.789062" xlink:href="#DejaVuSans-53"/>
       <use x="147.412109" xlink:href="#DejaVuSans-46"/>
       <use x="179.199219" xlink:href="#DejaVuSans-48"/>
      </g>
     </g>
    </g>
    <g id="xtick_2">
     <g id="line2d_4">
      <g>
       <use style="fill:#231f20;stroke:#231f20;stroke-width:3.84;" x="692.761573" xlink:href="#m146eb976a1" y="448.195884"/>
      </g>
     </g>
     <g id="text_2">
      <!-- −2.5 -->
      <defs>
       <path d="M 19.1875 8.296875 
L 53.609375 8.296875 
L 53.609375 0 
L 7.328125 0 
L 7.328125 8.296875 
Q 12.9375 14.109375 22.625 23.890625 
Q 32.328125 33.6875 34.8125 36.53125 
Q 39.546875 41.84375 41.421875 45.53125 
Q 43.3125 49.21875 43.3125 52.78125 
Q 43.3125 58.59375 39.234375 62.25 
Q 35.15625 65.921875 28.609375 65.921875 
Q 23.96875 65.921875 18.8125 64.3125 
Q 13.671875 62.703125 7.8125 59.421875 
L 7.8125 69.390625 
Q 13.765625 71.78125 18.9375 73 
Q 24.125 74.21875 28.421875 74.21875 
Q 39.75 74.21875 46.484375 68.546875 
Q 53.21875 62.890625 53.21875 53.421875 
Q 53.21875 48.921875 51.53125 44.890625 
Q 49.859375 40.875 45.40625 35.40625 
Q 44.1875 33.984375 37.640625 27.21875 
Q 31.109375 20.453125 19.1875 8.296875 
z
" id="DejaVuSans-50"/>
      </defs>
      <g transform="translate(653.909073 476.010884)scale(0.32 -0.32)">
       <use xlink:href="#DejaVuSans-8722"/>
       <use x="83.789062" xlink:href="#DejaVuSans-50"/>
       <use x="147.412109" xlink:href="#DejaVuSans-46"/>
       <use x="179.199219" xlink:href="#DejaVuSans-53"/>
      </g>
     </g>
    </g>
    <g id="xtick_3">
     <g id="line2d_5">
      <g>
       <use style="fill:#231f20;stroke:#231f20;stroke-width:3.84;" x="812.30393" xlink:href="#m146eb976a1" y="448.195884"/>
      </g>
     </g>
     <g id="text_3">
      <!-- 0.0 -->
      <g transform="translate(786.85893 476.010884)scale(0.32 -0.32)">
       <use xlink:href="#DejaVuSans-48"/>
       <use x="63.623047" xlink:href="#DejaVuSans-46"/>
       <use x="95.410156" xlink:href="#DejaVuSans-48"/>
      </g>
     </g>
    </g>
    <g id="xtick_4">
     <g id="line2d_6">
      <g>
       <use style="fill:#231f20;stroke:#231f20;stroke-width:3.84;" x="931.846287" xlink:href="#m146eb976a1" y="448.195884"/>
      </g>
     </g>
     <g id="text_4">
      <!-- 2.5 -->
      <g transform="translate(906.401287 476.010884)scale(0.32 -0.32)">
       <use xlink:href="#DejaVuSans-50"/>
       <use x="63.623047" xlink:href="#DejaVuSans-46"/>
       <use x="95.410156" xlink:href="#DejaVuSans-53"/>
      </g>
     </g>
    </g>
    <g id="text_5">
     <!-- Tangential Angle (radian) -->
     <defs>
      <path d="M -0.296875 72.90625 
L 61.375 72.90625 
L 61.375 64.59375 
L 35.5 64.59375 
L 35.5 0 
L 25.59375 0 
L 25.59375 64.59375 
L -0.296875 64.59375 
z
" id="DejaVuSans-84"/>
      <path d="M 34.28125 27.484375 
Q 23.390625 27.484375 19.1875 25 
Q 14.984375 22.515625 14.984375 16.5 
Q 14.984375 11.71875 18.140625 8.90625 
Q 21.296875 6.109375 26.703125 6.109375 
Q 34.1875 6.109375 38.703125 11.40625 
Q 43.21875 16.703125 43.21875 25.484375 
L 43.21875 27.484375 
z
M 52.203125 31.203125 
L 52.203125 0 
L 43.21875 0 
L 43.21875 8.296875 
Q 40.140625 3.328125 35.546875 0.953125 
Q 30.953125 -1.421875 24.3125 -1.421875 
Q 15.921875 -1.421875 10.953125 3.296875 
Q 6 8.015625 6 15.921875 
Q 6 25.140625 12.171875 29.828125 
Q 18.359375 34.515625 30.609375 34.515625 
L 43.21875 34.515625 
L 43.21875 35.40625 
Q 43.21875 41.609375 39.140625 45 
Q 35.0625 48.390625 27.6875 48.390625 
Q 23 48.390625 18.546875 47.265625 
Q 14.109375 46.140625 10.015625 43.890625 
L 10.015625 52.203125 
Q 14.9375 54.109375 19.578125 55.046875 
Q 24.21875 56 28.609375 56 
Q 40.484375 56 46.34375 49.84375 
Q 52.203125 43.703125 52.203125 31.203125 
z
" id="DejaVuSans-97"/>
      <path d="M 54.890625 33.015625 
L 54.890625 0 
L 45.90625 0 
L 45.90625 32.71875 
Q 45.90625 40.484375 42.875 44.328125 
Q 39.84375 48.1875 33.796875 48.1875 
Q 26.515625 48.1875 22.3125 43.546875 
Q 18.109375 38.921875 18.109375 30.90625 
L 18.109375 0 
L 9.078125 0 
L 9.078125 54.6875 
L 18.109375 54.6875 
L 18.109375 46.1875 
Q 21.34375 51.125 25.703125 53.5625 
Q 30.078125 56 35.796875 56 
Q 45.21875 56 50.046875 50.171875 
Q 54.890625 44.34375 54.890625 33.015625 
z
" id="DejaVuSans-110"/>
      <path d="M 45.40625 27.984375 
Q 45.40625 37.75 41.375 43.109375 
Q 37.359375 48.484375 30.078125 48.484375 
Q 22.859375 48.484375 18.828125 43.109375 
Q 14.796875 37.75 14.796875 27.984375 
Q 14.796875 18.265625 18.828125 12.890625 
Q 22.859375 7.515625 30.078125 7.515625 
Q 37.359375 7.515625 41.375 12.890625 
Q 45.40625 18.265625 45.40625 27.984375 
z
M 54.390625 6.78125 
Q 54.390625 -7.171875 48.1875 -13.984375 
Q 42 -20.796875 29.203125 -20.796875 
Q 24.46875 -20.796875 20.265625 -20.09375 
Q 16.0625 -19.390625 12.109375 -17.921875 
L 12.109375 -9.1875 
Q 16.0625 -11.328125 19.921875 -12.34375 
Q 23.78125 -13.375 27.78125 -13.375 
Q 36.625 -13.375 41.015625 -8.765625 
Q 45.40625 -4.15625 45.40625 5.171875 
L 45.40625 9.625 
Q 42.625 4.78125 38.28125 2.390625 
Q 33.9375 0 27.875 0 
Q 17.828125 0 11.671875 7.65625 
Q 5.515625 15.328125 5.515625 27.984375 
Q 5.515625 40.671875 11.671875 48.328125 
Q 17.828125 56 27.875 56 
Q 33.9375 56 38.28125 53.609375 
Q 42.625 51.21875 45.40625 46.390625 
L 45.40625 54.6875 
L 54.390625 54.6875 
z
" id="DejaVuSans-103"/>
      <path d="M 56.203125 29.59375 
L 56.203125 25.203125 
L 14.890625 25.203125 
Q 15.484375 15.921875 20.484375 11.0625 
Q 25.484375 6.203125 34.421875 6.203125 
Q 39.59375 6.203125 44.453125 7.46875 
Q 49.3125 8.734375 54.109375 11.28125 
L 54.109375 2.78125 
Q 49.265625 0.734375 44.1875 -0.34375 
Q 39.109375 -1.421875 33.890625 -1.421875 
Q 20.796875 -1.421875 13.15625 6.1875 
Q 5.515625 13.8125 5.515625 26.8125 
Q 5.515625 40.234375 12.765625 48.109375 
Q 20.015625 56 32.328125 56 
Q 43.359375 56 49.78125 48.890625 
Q 56.203125 41.796875 56.203125 29.59375 
z
M 47.21875 32.234375 
Q 47.125 39.59375 43.09375 43.984375 
Q 39.0625 48.390625 32.421875 48.390625 
Q 24.90625 48.390625 20.390625 44.140625 
Q 15.875 39.890625 15.1875 32.171875 
z
" id="DejaVuSans-101"/>
      <path d="M 18.3125 70.21875 
L 18.3125 54.6875 
L 36.8125 54.6875 
L 36.8125 47.703125 
L 18.3125 47.703125 
L 18.3125 18.015625 
Q 18.3125 11.328125 20.140625 9.421875 
Q 21.96875 7.515625 27.59375 7.515625 
L 36.8125 7.515625 
L 36.8125 0 
L 27.59375 0 
Q 17.1875 0 13.234375 3.875 
Q 9.28125 7.765625 9.28125 18.015625 
L 9.28125 47.703125 
L 2.6875 47.703125 
L 2.6875 54.6875 
L 9.28125 54.6875 
L 9.28125 70.21875 
z
" id="DejaVuSans-116"/>
      <path d="M 9.421875 54.6875 
L 18.40625 54.6875 
L 18.40625 0 
L 9.421875 0 
z
M 9.421875 75.984375 
L 18.40625 75.984375 
L 18.40625 64.59375 
L 9.421875 64.59375 
z
" id="DejaVuSans-105"/>
      <path d="M 9.421875 75.984375 
L 18.40625 75.984375 
L 18.40625 0 
L 9.421875 0 
z
" id="DejaVuSans-108"/>
      <path id="DejaVuSans-32"/>
      <path d="M 34.1875 63.1875 
L 20.796875 26.90625 
L 47.609375 26.90625 
z
M 28.609375 72.90625 
L 39.796875 72.90625 
L 67.578125 0 
L 57.328125 0 
L 50.6875 18.703125 
L 17.828125 18.703125 
L 11.1875 0 
L 0.78125 0 
z
" id="DejaVuSans-65"/>
      <path d="M 31 75.875 
Q 24.46875 64.65625 21.28125 53.65625 
Q 18.109375 42.671875 18.109375 31.390625 
Q 18.109375 20.125 21.3125 9.0625 
Q 24.515625 -2 31 -13.1875 
L 23.1875 -13.1875 
Q 15.875 -1.703125 12.234375 9.375 
Q 8.59375 20.453125 8.59375 31.390625 
Q 8.59375 42.28125 12.203125 53.3125 
Q 15.828125 64.359375 23.1875 75.875 
z
" id="DejaVuSans-40"/>
      <path d="M 41.109375 46.296875 
Q 39.59375 47.171875 37.8125 47.578125 
Q 36.03125 48 33.890625 48 
Q 26.265625 48 22.1875 43.046875 
Q 18.109375 38.09375 18.109375 28.8125 
L 18.109375 0 
L 9.078125 0 
L 9.078125 54.6875 
L 18.109375 54.6875 
L 18.109375 46.1875 
Q 20.953125 51.171875 25.484375 53.578125 
Q 30.03125 56 36.53125 56 
Q 37.453125 56 38.578125 55.875 
Q 39.703125 55.765625 41.0625 55.515625 
z
" id="DejaVuSans-114"/>
      <path d="M 45.40625 46.390625 
L 45.40625 75.984375 
L 54.390625 75.984375 
L 54.390625 0 
L 45.40625 0 
L 45.40625 8.203125 
Q 42.578125 3.328125 38.25 0.953125 
Q 33.9375 -1.421875 27.875 -1.421875 
Q 17.96875 -1.421875 11.734375 6.484375 
Q 5.515625 14.40625 5.515625 27.296875 
Q 5.515625 40.1875 11.734375 48.09375 
Q 17.96875 56 27.875 56 
Q 33.9375 56 38.25 53.625 
Q 42.578125 51.265625 45.40625 46.390625 
z
M 14.796875 27.296875 
Q 14.796875 17.390625 18.875 11.75 
Q 22.953125 6.109375 30.078125 6.109375 
Q 37.203125 6.109375 41.296875 11.75 
Q 45.40625 17.390625 45.40625 27.296875 
Q 45.40625 37.203125 41.296875 42.84375 
Q 37.203125 48.484375 30.078125 48.484375 
Q 22.953125 48.484375 18.875 42.84375 
Q 14.796875 37.203125 14.796875 27.296875 
z
" id="DejaVuSans-100"/>
      <path d="M 8.015625 75.875 
L 15.828125 75.875 
Q 23.140625 64.359375 26.78125 53.3125 
Q 30.421875 42.28125 30.421875 31.390625 
Q 30.421875 20.453125 26.78125 9.375 
Q 23.140625 -1.703125 15.828125 -13.1875 
L 8.015625 -13.1875 
Q 14.5 -2 17.703125 9.0625 
Q 20.90625 20.125 20.90625 31.390625 
Q 20.90625 42.671875 17.703125 53.65625 
Q 14.5 64.65625 8.015625 75.875 
z
" id="DejaVuSans-41"/>
     </defs>
     <g transform="translate(531.891821 510.980884)scale(0.32 -0.32)">
      <use xlink:href="#DejaVuSans-84"/>
      <use x="60.833984" xlink:href="#DejaVuSans-97"/>
      <use x="122.113281" xlink:href="#DejaVuSans-110"/>
      <use x="185.492188" xlink:href="#DejaVuSans-103"/>
      <use x="248.96875" xlink:href="#DejaVuSans-101"/>
      <use x="310.492188" xlink:href="#DejaVuSans-110"/>
      <use x="373.871094" xlink:href="#DejaVuSans-116"/>
      <use x="413.080078" xlink:href="#DejaVuSans-105"/>
      <use x="440.863281" xlink:href="#DejaVuSans-97"/>
      <use x="502.142578" xlink:href="#DejaVuSans-108"/>
      <use x="529.925781" xlink:href="#DejaVuSans-32"/>
      <use x="561.712891" xlink:href="#DejaVuSans-65"/>
      <use x="630.121094" xlink:href="#DejaVuSans-110"/>
      <use x="693.5" xlink:href="#DejaVuSans-103"/>
      <use x="756.976562" xlink:href="#DejaVuSans-108"/>
      <use x="784.759766" xlink:href="#DejaVuSans-101"/>
      <use x="846.283203" xlink:href="#DejaVuSans-32"/>
      <use x="878.070312" xlink:href="#DejaVuSans-40"/>
      <use x="917.083984" xlink:href="#DejaVuSans-114"/>
      <use x="958.197266" xlink:href="#DejaVuSans-97"/>
      <use x="1019.476562" xlink:href="#DejaVuSans-100"/>
      <use x="1082.953125" xlink:href="#DejaVuSans-105"/>
      <use x="1110.736328" xlink:href="#DejaVuSans-97"/>
      <use x="1172.015625" xlink:href="#DejaVuSans-110"/>
      <use x="1235.394531" xlink:href="#DejaVuSans-41"/>
     </g>
    </g>
   </g>
   <g id="matplotlib.axis_2">
    <g id="ytick_1">
     <g id="line2d_7">
      <path clip-path="url(#pb9aee8da6b)" d="M 468.021941 427.753117 
L 1003.571701 427.753117 
" style="fill:none;stroke:#231f20;stroke-linecap:square;stroke-opacity:0.2;stroke-width:4;"/>
     </g>
     <g id="line2d_8">
      <defs>
       <path d="M 0 0 
L 11.52 0 
" id="m0a7110f067" style="stroke:#231f20;stroke-width:3.84;"/>
      </defs>
      <g>
       <use style="fill:#231f20;stroke:#231f20;stroke-width:3.84;" x="468.021941" xlink:href="#m0a7110f067" y="427.753117"/>
      </g>
     </g>
     <g id="text_6">
      <!-- 0 -->
      <g transform="translate(444.161941 439.910617)scale(0.32 -0.32)">
       <use xlink:href="#DejaVuSans-48"/>
      </g>
     </g>
    </g>
    <g id="ytick_2">
     <g id="line2d_9">
      <path clip-path="url(#pb9aee8da6b)" d="M 468.021941 264.210983 
L 1003.571701 264.210983 
" style="fill:none;stroke:#231f20;stroke-linecap:square;stroke-opacity:0.2;stroke-width:4;"/>
     </g>
     <g id="line2d_10">
      <g>
       <use style="fill:#231f20;stroke:#231f20;stroke-width:3.84;" x="468.021941" xlink:href="#m0a7110f067" y="264.210983"/>
      </g>
     </g>
     <g id="text_7">
      <!-- 2 -->
      <g transform="translate(444.161941 276.368483)scale(0.32 -0.32)">
       <use xlink:href="#DejaVuSans-50"/>
      </g>
     </g>
    </g>
    <g id="ytick_3">
     <g id="line2d_11">
      <path clip-path="url(#pb9aee8da6b)" d="M 468.021941 100.66885 
L 1003.571701 100.66885 
" style="fill:none;stroke:#231f20;stroke-linecap:square;stroke-opacity:0.2;stroke-width:4;"/>
     </g>
     <g id="line2d_12">
      <g>
       <use style="fill:#231f20;stroke:#231f20;stroke-width:3.84;" x="468.021941" xlink:href="#m0a7110f067" y="100.66885"/>
      </g>
     </g>
     <g id="text_8">
      <!-- 4 -->
      <defs>
       <path d="M 37.796875 64.3125 
L 12.890625 25.390625 
L 37.796875 25.390625 
z
M 35.203125 72.90625 
L 47.609375 72.90625 
L 47.609375 25.390625 
L 58.015625 25.390625 
L 58.015625 17.1875 
L 47.609375 17.1875 
L 47.609375 0 
L 37.796875 0 
L 37.796875 17.1875 
L 4.890625 17.1875 
L 4.890625 26.703125 
z
" id="DejaVuSans-52"/>
      </defs>
      <g transform="translate(444.161941 112.82635)scale(0.32 -0.32)">
       <use xlink:href="#DejaVuSans-52"/>
      </g>
     </g>
    </g>
    <g id="text_9">
     <!-- Curvature ($μm^{-1}$) -->
     <defs>
      <path d="M 64.40625 67.28125 
L 64.40625 56.890625 
Q 59.421875 61.53125 53.78125 63.8125 
Q 48.140625 66.109375 41.796875 66.109375 
Q 29.296875 66.109375 22.65625 58.46875 
Q 16.015625 50.828125 16.015625 36.375 
Q 16.015625 21.96875 22.65625 14.328125 
Q 29.296875 6.6875 41.796875 6.6875 
Q 48.140625 6.6875 53.78125 8.984375 
Q 59.421875 11.28125 64.40625 15.921875 
L 64.40625 5.609375 
Q 59.234375 2.09375 53.4375 0.328125 
Q 47.65625 -1.421875 41.21875 -1.421875 
Q 24.65625 -1.421875 15.125 8.703125 
Q 5.609375 18.84375 5.609375 36.375 
Q 5.609375 53.953125 15.125 64.078125 
Q 24.65625 74.21875 41.21875 74.21875 
Q 47.75 74.21875 53.53125 72.484375 
Q 59.328125 70.75 64.40625 67.28125 
z
" id="DejaVuSans-67"/>
      <path d="M 8.5 21.578125 
L 8.5 54.6875 
L 17.484375 54.6875 
L 17.484375 21.921875 
Q 17.484375 14.15625 20.5 10.265625 
Q 23.53125 6.390625 29.59375 6.390625 
Q 36.859375 6.390625 41.078125 11.03125 
Q 45.3125 15.671875 45.3125 23.6875 
L 45.3125 54.6875 
L 54.296875 54.6875 
L 54.296875 0 
L 45.3125 0 
L 45.3125 8.40625 
Q 42.046875 3.421875 37.71875 1 
Q 33.40625 -1.421875 27.6875 -1.421875 
Q 18.265625 -1.421875 13.375 4.4375 
Q 8.5 10.296875 8.5 21.578125 
z
M 31.109375 56 
z
" id="DejaVuSans-117"/>
      <path d="M 2.984375 54.6875 
L 12.5 54.6875 
L 29.59375 8.796875 
L 46.6875 54.6875 
L 56.203125 54.6875 
L 35.6875 0 
L 23.484375 0 
z
" id="DejaVuSans-118"/>
      <path d="M -1.3125 -20.796875 
L 13.375 54.6875 
L 22.40625 54.6875 
L 15.765625 20.65625 
Q 15.578125 19.625 15.421875 18.359375 
Q 15.28125 17.09375 15.28125 15.828125 
Q 15.28125 11.28125 18.140625 8.828125 
Q 21 6.390625 26.3125 6.390625 
Q 33.546875 6.390625 37.984375 10.484375 
Q 42.4375 14.59375 44 22.796875 
L 50.203125 54.6875 
L 59.1875 54.6875 
L 51.03125 12.640625 
Q 50.828125 11.71875 50.75 11.03125 
Q 50.6875 10.359375 50.6875 9.8125 
Q 50.6875 8.296875 51.296875 7.59375 
Q 51.90625 6.890625 53.21875 6.890625 
Q 53.71875 6.890625 54.5625 7.125 
Q 55.421875 7.375 56.984375 8.015625 
L 55.609375 0.78125 
Q 53.46875 -0.296875 51.515625 -0.859375 
Q 49.5625 -1.421875 47.703125 -1.421875 
Q 44.484375 -1.421875 42.65625 0.625 
Q 40.828125 2.6875 40.828125 6.296875 
Q 38.09375 2.390625 34.296875 0.484375 
Q 30.515625 -1.421875 25.390625 -1.421875 
Q 20.84375 -1.421875 17.453125 0.671875 
Q 14.0625 2.78125 12.984375 6.203125 
L 7.71875 -20.796875 
z
" id="DejaVuSans-Oblique-956"/>
      <path d="M 89.796875 33.015625 
L 83.40625 0 
L 74.421875 0 
L 80.71875 32.71875 
Q 81.109375 34.8125 81.296875 36.328125 
Q 81.5 37.84375 81.5 38.921875 
Q 81.5 43.3125 79.046875 45.75 
Q 76.609375 48.1875 72.21875 48.1875 
Q 65.671875 48.1875 60.546875 43.28125 
Q 55.421875 38.375 53.90625 30.515625 
L 47.90625 0 
L 38.921875 0 
L 45.3125 32.71875 
Q 45.703125 34.515625 45.890625 36.046875 
Q 46.09375 37.59375 46.09375 38.8125 
Q 46.09375 43.265625 43.65625 45.71875 
Q 41.21875 48.1875 36.921875 48.1875 
Q 30.28125 48.1875 25.140625 43.28125 
Q 20.015625 38.375 18.5 30.515625 
L 12.5 0 
L 3.515625 0 
L 14.203125 54.6875 
L 23.1875 54.6875 
L 21.484375 46.1875 
Q 25.140625 50.984375 30.046875 53.484375 
Q 34.96875 56 40.578125 56 
Q 46.53125 56 50.359375 52.875 
Q 54.203125 49.75 54.984375 44.1875 
Q 59.078125 49.953125 64.46875 52.96875 
Q 69.875 56 75.875 56 
Q 82.90625 56 86.734375 51.953125 
Q 90.578125 47.90625 90.578125 40.484375 
Q 90.578125 38.875 90.375 36.9375 
Q 90.1875 35.015625 89.796875 33.015625 
z
" id="DejaVuSans-Oblique-109"/>
      <path d="M 12.40625 8.296875 
L 28.515625 8.296875 
L 28.515625 63.921875 
L 10.984375 60.40625 
L 10.984375 69.390625 
L 28.421875 72.90625 
L 38.28125 72.90625 
L 38.28125 8.296875 
L 54.390625 8.296875 
L 54.390625 0 
L 12.40625 0 
z
" id="DejaVuSans-49"/>
     </defs>
     <g transform="translate(433.441941 391.021047)rotate(-90)scale(0.32 -0.32)">
      <use transform="translate(0 0.684375)" xlink:href="#DejaVuSans-67"/>
      <use transform="translate(69.824219 0.684375)" xlink:href="#DejaVuSans-117"/>
      <use transform="translate(133.203125 0.684375)" xlink:href="#DejaVuSans-114"/>
      <use transform="translate(174.316406 0.684375)" xlink:href="#DejaVuSans-118"/>
      <use transform="translate(233.496094 0.684375)" xlink:href="#DejaVuSans-97"/>
      <use transform="translate(294.775391 0.684375)" xlink:href="#DejaVuSans-116"/>
      <use transform="translate(333.984375 0.684375)" xlink:href="#DejaVuSans-117"/>
      <use transform="translate(397.363281 0.684375)" xlink:href="#DejaVuSans-114"/>
      <use transform="translate(438.476562 0.684375)" xlink:href="#DejaVuSans-101"/>
      <use transform="translate(500 0.684375)" xlink:href="#DejaVuSans-32"/>
      <use transform="translate(531.787109 0.684375)" xlink:href="#DejaVuSans-40"/>
      <use transform="translate(570.800781 0.684375)" xlink:href="#DejaVuSans-Oblique-956"/>
      <use transform="translate(634.423828 0.684375)" xlink:href="#DejaVuSans-Oblique-109"/>
      <use transform="translate(736.485833 38.965625)scale(0.7)" xlink:href="#DejaVuSans-8722"/>
      <use transform="translate(795.138177 38.965625)scale(0.7)" xlink:href="#DejaVuSans-49"/>
      <use transform="translate(842.408685 0.684375)" xlink:href="#DejaVuSans-41"/>
     </g>
    </g>
   </g>
   <g id="line2d_13">
    <path clip-path="url(#pb9aee8da6b)" d="M 484.6282 300.146137 
L 492.243687 306.22266 
L 499.859174 312.009825 
L 507.457805 317.509506 
L 515.34596 322.942456 
L 523.464289 328.254497 
L 531.470481 333.229428 
L 539.635569 338.04698 
L 548.175764 342.823347 
L 556.765216 347.370767 
L 565.604917 351.796581 
L 574.629772 356.063802 
L 583.78266 360.14677 
L 593.208859 364.108738 
L 602.83174 367.91397 
L 612.756586 371.600431 
L 623.055389 375.185875 
L 633.620499 378.626272 
L 644.499484 381.933735 
L 655.716062 385.110851 
L 667.395047 388.185061 
L 679.385219 391.110768 
L 691.870187 393.927542 
L 704.864244 396.629463 
L 718.350343 399.205694 
L 732.447298 401.670954 
L 747.200621 404.023321 
L 762.663268 406.261415 
L 778.878432 408.382038 
L 795.974026 410.391623 
L 814.051322 412.29029 
L 833.206077 414.076056 
L 853.566811 415.748697 
L 875.324298 417.310647 
L 898.681038 418.761961 
L 923.911894 420.103965 
L 951.321532 421.335869 
L 970.588619 422.081065 
L 970.588619 422.081065 
" style="fill:none;stroke:#1368b3;stroke-linecap:square;stroke-width:4;"/>
   </g>
   <g id="line2d_14">
    <path clip-path="url(#pb9aee8da6b)" d="M 812.30393 410.365264 
L 907.937815 408.517903 
L 1004.571701 406.42587 
L 1004.571701 406.42587 
" style="fill:none;stroke:#d81920;stroke-linecap:square;stroke-width:4;"/>
   </g>
   <g id="patch_3">
    <path d="M 468.021941 448.195884 
L 468.021941 51.60621 
" style="fill:none;stroke:#231f20;stroke-linecap:square;stroke-linejoin:miter;stroke-width:3.84;"/>
   </g>
   <g id="patch_4">
    <path d="M 468.021941 448.195884 
L 1003.571701 448.195884 
" style="fill:none;stroke:#231f20;stroke-linecap:square;stroke-linejoin:miter;stroke-width:3.84;"/>
   </g>
  </g>
  <g id="text_10">
   <!-- dataset_type = variable_initial_position | image_id = 1 | curve_id = 5 | Feature Name = variable_initial_position | Feature Value = 0.2 |  -->
   <defs>
    <path d="M 44.28125 53.078125 
L 44.28125 44.578125 
Q 40.484375 46.53125 36.375 47.5 
Q 32.28125 48.484375 27.875 48.484375 
Q 21.1875 48.484375 17.84375 46.4375 
Q 14.5 44.390625 14.5 40.28125 
Q 14.5 37.15625 16.890625 35.375 
Q 19.28125 33.59375 26.515625 31.984375 
L 29.59375 31.296875 
Q 39.15625 29.25 43.1875 25.515625 
Q 47.21875 21.78125 47.21875 15.09375 
Q 47.21875 7.46875 41.1875 3.015625 
Q 35.15625 -1.421875 24.609375 -1.421875 
Q 20.21875 -1.421875 15.453125 -0.5625 
Q 10.6875 0.296875 5.421875 2 
L 5.421875 11.28125 
Q 10.40625 8.6875 15.234375 7.390625 
Q 20.0625 6.109375 24.8125 6.109375 
Q 31.15625 6.109375 34.5625 8.28125 
Q 37.984375 10.453125 37.984375 14.40625 
Q 37.984375 18.0625 35.515625 20.015625 
Q 33.0625 21.96875 24.703125 23.78125 
L 21.578125 24.515625 
Q 13.234375 26.265625 9.515625 29.90625 
Q 5.8125 33.546875 5.8125 39.890625 
Q 5.8125 47.609375 11.28125 51.796875 
Q 16.75 56 26.8125 56 
Q 31.78125 56 36.171875 55.265625 
Q 40.578125 54.546875 44.28125 53.078125 
z
" id="DejaVuSans-115"/>
    <path d="M 50.984375 -16.609375 
L 50.984375 -23.578125 
L -0.984375 -23.578125 
L -0.984375 -16.609375 
z
" id="DejaVuSans-95"/>
    <path d="M 32.171875 -5.078125 
Q 28.375 -14.84375 24.75 -17.8125 
Q 21.140625 -20.796875 15.09375 -20.796875 
L 7.90625 -20.796875 
L 7.90625 -13.28125 
L 13.1875 -13.28125 
Q 16.890625 -13.28125 18.9375 -11.515625 
Q 21 -9.765625 23.484375 -3.21875 
L 25.09375 0.875 
L 2.984375 54.6875 
L 12.5 54.6875 
L 29.59375 11.921875 
L 46.6875 54.6875 
L 56.203125 54.6875 
z
" id="DejaVuSans-121"/>
    <path d="M 18.109375 8.203125 
L 18.109375 -20.796875 
L 9.078125 -20.796875 
L 9.078125 54.6875 
L 18.109375 54.6875 
L 18.109375 46.390625 
Q 20.953125 51.265625 25.265625 53.625 
Q 29.59375 56 35.59375 56 
Q 45.5625 56 51.78125 48.09375 
Q 58.015625 40.1875 58.015625 27.296875 
Q 58.015625 14.40625 51.78125 6.484375 
Q 45.5625 -1.421875 35.59375 -1.421875 
Q 29.59375 -1.421875 25.265625 0.953125 
Q 20.953125 3.328125 18.109375 8.203125 
z
M 48.6875 27.296875 
Q 48.6875 37.203125 44.609375 42.84375 
Q 40.53125 48.484375 33.40625 48.484375 
Q 26.265625 48.484375 22.1875 42.84375 
Q 18.109375 37.203125 18.109375 27.296875 
Q 18.109375 17.390625 22.1875 11.75 
Q 26.265625 6.109375 33.40625 6.109375 
Q 40.53125 6.109375 44.609375 11.75 
Q 48.6875 17.390625 48.6875 27.296875 
z
" id="DejaVuSans-112"/>
    <path d="M 10.59375 45.40625 
L 73.1875 45.40625 
L 73.1875 37.203125 
L 10.59375 37.203125 
z
M 10.59375 25.484375 
L 73.1875 25.484375 
L 73.1875 17.1875 
L 10.59375 17.1875 
z
" id="DejaVuSans-61"/>
    <path d="M 48.6875 27.296875 
Q 48.6875 37.203125 44.609375 42.84375 
Q 40.53125 48.484375 33.40625 48.484375 
Q 26.265625 48.484375 22.1875 42.84375 
Q 18.109375 37.203125 18.109375 27.296875 
Q 18.109375 17.390625 22.1875 11.75 
Q 26.265625 6.109375 33.40625 6.109375 
Q 40.53125 6.109375 44.609375 11.75 
Q 48.6875 17.390625 48.6875 27.296875 
z
M 18.109375 46.390625 
Q 20.953125 51.265625 25.265625 53.625 
Q 29.59375 56 35.59375 56 
Q 45.5625 56 51.78125 48.09375 
Q 58.015625 40.1875 58.015625 27.296875 
Q 58.015625 14.40625 51.78125 6.484375 
Q 45.5625 -1.421875 35.59375 -1.421875 
Q 29.59375 -1.421875 25.265625 0.953125 
Q 20.953125 3.328125 18.109375 8.203125 
L 18.109375 0 
L 9.078125 0 
L 9.078125 75.984375 
L 18.109375 75.984375 
z
" id="DejaVuSans-98"/>
    <path d="M 30.609375 48.390625 
Q 23.390625 48.390625 19.1875 42.75 
Q 14.984375 37.109375 14.984375 27.296875 
Q 14.984375 17.484375 19.15625 11.84375 
Q 23.34375 6.203125 30.609375 6.203125 
Q 37.796875 6.203125 41.984375 11.859375 
Q 46.1875 17.53125 46.1875 27.296875 
Q 46.1875 37.015625 41.984375 42.703125 
Q 37.796875 48.390625 30.609375 48.390625 
z
M 30.609375 56 
Q 42.328125 56 49.015625 48.375 
Q 55.71875 40.765625 55.71875 27.296875 
Q 55.71875 13.875 49.015625 6.21875 
Q 42.328125 -1.421875 30.609375 -1.421875 
Q 18.84375 -1.421875 12.171875 6.21875 
Q 5.515625 13.875 5.515625 27.296875 
Q 5.515625 40.765625 12.171875 48.375 
Q 18.84375 56 30.609375 56 
z
" id="DejaVuSans-111"/>
    <path d="M 21 76.421875 
L 21 -23.578125 
L 12.703125 -23.578125 
L 12.703125 76.421875 
z
" id="DejaVuSans-124"/>
    <path d="M 52 44.1875 
Q 55.375 50.25 60.0625 53.125 
Q 64.75 56 71.09375 56 
Q 79.640625 56 84.28125 50.015625 
Q 88.921875 44.046875 88.921875 33.015625 
L 88.921875 0 
L 79.890625 0 
L 79.890625 32.71875 
Q 79.890625 40.578125 77.09375 44.375 
Q 74.3125 48.1875 68.609375 48.1875 
Q 61.625 48.1875 57.5625 43.546875 
Q 53.515625 38.921875 53.515625 30.90625 
L 53.515625 0 
L 44.484375 0 
L 44.484375 32.71875 
Q 44.484375 40.625 41.703125 44.40625 
Q 38.921875 48.1875 33.109375 48.1875 
Q 26.21875 48.1875 22.15625 43.53125 
Q 18.109375 38.875 18.109375 30.90625 
L 18.109375 0 
L 9.078125 0 
L 9.078125 54.6875 
L 18.109375 54.6875 
L 18.109375 46.1875 
Q 21.1875 51.21875 25.484375 53.609375 
Q 29.78125 56 35.6875 56 
Q 41.65625 56 45.828125 52.96875 
Q 50 49.953125 52 44.1875 
z
" id="DejaVuSans-109"/>
    <path d="M 48.78125 52.59375 
L 48.78125 44.1875 
Q 44.96875 46.296875 41.140625 47.34375 
Q 37.3125 48.390625 33.40625 48.390625 
Q 24.65625 48.390625 19.8125 42.84375 
Q 14.984375 37.3125 14.984375 27.296875 
Q 14.984375 17.28125 19.8125 11.734375 
Q 24.65625 6.203125 33.40625 6.203125 
Q 37.3125 6.203125 41.140625 7.25 
Q 44.96875 8.296875 48.78125 10.40625 
L 48.78125 2.09375 
Q 45.015625 0.34375 40.984375 -0.53125 
Q 36.96875 -1.421875 32.421875 -1.421875 
Q 20.0625 -1.421875 12.78125 6.34375 
Q 5.515625 14.109375 5.515625 27.296875 
Q 5.515625 40.671875 12.859375 48.328125 
Q 20.21875 56 33.015625 56 
Q 37.15625 56 41.109375 55.140625 
Q 45.0625 54.296875 48.78125 52.59375 
z
" id="DejaVuSans-99"/>
    <path d="M 9.8125 72.90625 
L 51.703125 72.90625 
L 51.703125 64.59375 
L 19.671875 64.59375 
L 19.671875 43.109375 
L 48.578125 43.109375 
L 48.578125 34.8125 
L 19.671875 34.8125 
L 19.671875 0 
L 9.8125 0 
z
" id="DejaVuSans-70"/>
    <path d="M 9.8125 72.90625 
L 23.09375 72.90625 
L 55.421875 11.921875 
L 55.421875 72.90625 
L 64.984375 72.90625 
L 64.984375 0 
L 51.703125 0 
L 19.390625 60.984375 
L 19.390625 0 
L 9.8125 0 
z
" id="DejaVuSans-78"/>
    <path d="M 28.609375 0 
L 0.78125 72.90625 
L 11.078125 72.90625 
L 34.1875 11.53125 
L 57.328125 72.90625 
L 67.578125 72.90625 
L 39.796875 0 
z
" id="DejaVuSans-86"/>
   </defs>
   <g transform="translate(22.825066 9.205404)scale(0.12 -0.12)">
    <use xlink:href="#DejaVuSans-100"/>
    <use x="63.476562" xlink:href="#DejaVuSans-97"/>
    <use x="124.755859" xlink:href="#DejaVuSans-116"/>
    <use x="163.964844" xlink:href="#DejaVuSans-97"/>
    <use x="225.244141" xlink:href="#DejaVuSans-115"/>
    <use x="277.34375" xlink:href="#DejaVuSans-101"/>
    <use x="338.867188" xlink:href="#DejaVuSans-116"/>
    <use x="378.076172" xlink:href="#DejaVuSans-95"/>
    <use x="428.076172" xlink:href="#DejaVuSans-116"/>
    <use x="467.285156" xlink:href="#DejaVuSans-121"/>
    <use x="526.464844" xlink:href="#DejaVuSans-112"/>
    <use x="589.941406" xlink:href="#DejaVuSans-101"/>
    <use x="651.464844" xlink:href="#DejaVuSans-32"/>
    <use x="683.251953" xlink:href="#DejaVuSans-61"/>
    <use x="767.041016" xlink:href="#DejaVuSans-32"/>
    <use x="798.828125" xlink:href="#DejaVuSans-118"/>
    <use x="858.007812" xlink:href="#DejaVuSans-97"/>
    <use x="919.287109" xlink:href="#DejaVuSans-114"/>
    <use x="960.400391" xlink:href="#DejaVuSans-105"/>
    <use x="988.183594" xlink:href="#DejaVuSans-97"/>
    <use x="1049.462891" xlink:href="#DejaVuSans-98"/>
    <use x="1112.939453" xlink:href="#DejaVuSans-108"/>
    <use x="1140.722656" xlink:href="#DejaVuSans-101"/>
    <use x="1202.246094" xlink:href="#DejaVuSans-95"/>
    <use x="1252.246094" xlink:href="#DejaVuSans-105"/>
    <use x="1280.029297" xlink:href="#DejaVuSans-110"/>
    <use x="1343.408203" xlink:href="#DejaVuSans-105"/>
    <use x="1371.191406" xlink:href="#DejaVuSans-116"/>
    <use x="1410.400391" xlink:href="#DejaVuSans-105"/>
    <use x="1438.183594" xlink:href="#DejaVuSans-97"/>
    <use x="1499.462891" xlink:href="#DejaVuSans-108"/>
    <use x="1527.246094" xlink:href="#DejaVuSans-95"/>
    <use x="1577.246094" xlink:href="#DejaVuSans-112"/>
    <use x="1640.722656" xlink:href="#DejaVuSans-111"/>
    <use x="1701.904297" xlink:href="#DejaVuSans-115"/>
    <use x="1754.003906" xlink:href="#DejaVuSans-105"/>
    <use x="1781.787109" xlink:href="#DejaVuSans-116"/>
    <use x="1820.996094" xlink:href="#DejaVuSans-105"/>
    <use x="1848.779297" xlink:href="#DejaVuSans-111"/>
    <use x="1909.960938" xlink:href="#DejaVuSans-110"/>
    <use x="1973.339844" xlink:href="#DejaVuSans-32"/>
    <use x="2005.126953" xlink:href="#DejaVuSans-124"/>
    <use x="2038.818359" xlink:href="#DejaVuSans-32"/>
    <use x="2070.605469" xlink:href="#DejaVuSans-105"/>
    <use x="2098.388672" xlink:href="#DejaVuSans-109"/>
    <use x="2195.800781" xlink:href="#DejaVuSans-97"/>
    <use x="2257.080078" xlink:href="#DejaVuSans-103"/>
    <use x="2320.556641" xlink:href="#DejaVuSans-101"/>
    <use x="2382.080078" xlink:href="#DejaVuSans-95"/>
    <use x="2432.080078" xlink:href="#DejaVuSans-105"/>
    <use x="2459.863281" xlink:href="#DejaVuSans-100"/>
    <use x="2523.339844" xlink:href="#DejaVuSans-32"/>
    <use x="2555.126953" xlink:href="#DejaVuSans-61"/>
    <use x="2638.916016" xlink:href="#DejaVuSans-32"/>
    <use x="2670.703125" xlink:href="#DejaVuSans-49"/>
    <use x="2734.326172" xlink:href="#DejaVuSans-32"/>
    <use x="2766.113281" xlink:href="#DejaVuSans-124"/>
    <use x="2799.804688" xlink:href="#DejaVuSans-32"/>
    <use x="2831.591797" xlink:href="#DejaVuSans-99"/>
    <use x="2886.572266" xlink:href="#DejaVuSans-117"/>
    <use x="2949.951172" xlink:href="#DejaVuSans-114"/>
    <use x="2991.064453" xlink:href="#DejaVuSans-118"/>
    <use x="3050.244141" xlink:href="#DejaVuSans-101"/>
    <use x="3111.767578" xlink:href="#DejaVuSans-95"/>
    <use x="3161.767578" xlink:href="#DejaVuSans-105"/>
    <use x="3189.550781" xlink:href="#DejaVuSans-100"/>
    <use x="3253.027344" xlink:href="#DejaVuSans-32"/>
    <use x="3284.814453" xlink:href="#DejaVuSans-61"/>
    <use x="3368.603516" xlink:href="#DejaVuSans-32"/>
    <use x="3400.390625" xlink:href="#DejaVuSans-53"/>
    <use x="3464.013672" xlink:href="#DejaVuSans-32"/>
    <use x="3495.800781" xlink:href="#DejaVuSans-124"/>
    <use x="3529.492188" xlink:href="#DejaVuSans-32"/>
    <use x="3561.279297" xlink:href="#DejaVuSans-70"/>
    <use x="3618.720703" xlink:href="#DejaVuSans-101"/>
    <use x="3680.244141" xlink:href="#DejaVuSans-97"/>
    <use x="3741.523438" xlink:href="#DejaVuSans-116"/>
    <use x="3780.732422" xlink:href="#DejaVuSans-117"/>
    <use x="3844.111328" xlink:href="#DejaVuSans-114"/>
    <use x="3885.193359" xlink:href="#DejaVuSans-101"/>
    <use x="3946.716797" xlink:href="#DejaVuSans-32"/>
    <use x="3978.503906" xlink:href="#DejaVuSans-78"/>
    <use x="4053.308594" xlink:href="#DejaVuSans-97"/>
    <use x="4114.587891" xlink:href="#DejaVuSans-109"/>
    <use x="4212" xlink:href="#DejaVuSans-101"/>
    <use x="4273.523438" xlink:href="#DejaVuSans-32"/>
    <use x="4305.310547" xlink:href="#DejaVuSans-61"/>
    <use x="4389.099609" xlink:href="#DejaVuSans-32"/>
    <use x="4420.886719" xlink:href="#DejaVuSans-118"/>
    <use x="4480.066406" xlink:href="#DejaVuSans-97"/>
    <use x="4541.345703" xlink:href="#DejaVuSans-114"/>
    <use x="4582.458984" xlink:href="#DejaVuSans-105"/>
    <use x="4610.242188" xlink:href="#DejaVuSans-97"/>
    <use x="4671.521484" xlink:href="#DejaVuSans-98"/>
    <use x="4734.998047" xlink:href="#DejaVuSans-108"/>
    <use x="4762.78125" xlink:href="#DejaVuSans-101"/>
    <use x="4824.304688" xlink:href="#DejaVuSans-95"/>
    <use x="4874.304688" xlink:href="#DejaVuSans-105"/>
    <use x="4902.087891" xlink:href="#DejaVuSans-110"/>
    <use x="4965.466797" xlink:href="#DejaVuSans-105"/>
    <use x="4993.25" xlink:href="#DejaVuSans-116"/>
    <use x="5032.458984" xlink:href="#DejaVuSans-105"/>
    <use x="5060.242188" xlink:href="#DejaVuSans-97"/>
    <use x="5121.521484" xlink:href="#DejaVuSans-108"/>
    <use x="5149.304688" xlink:href="#DejaVuSans-95"/>
    <use x="5199.304688" xlink:href="#DejaVuSans-112"/>
    <use x="5262.78125" xlink:href="#DejaVuSans-111"/>
    <use x="5323.962891" xlink:href="#DejaVuSans-115"/>
    <use x="5376.0625" xlink:href="#DejaVuSans-105"/>
    <use x="5403.845703" xlink:href="#DejaVuSans-116"/>
    <use x="5443.054688" xlink:href="#DejaVuSans-105"/>
    <use x="5470.837891" xlink:href="#DejaVuSans-111"/>
    <use x="5532.019531" xlink:href="#DejaVuSans-110"/>
    <use x="5595.398438" xlink:href="#DejaVuSans-32"/>
    <use x="5627.185547" xlink:href="#DejaVuSans-124"/>
    <use x="5660.876953" xlink:href="#DejaVuSans-32"/>
    <use x="5692.664062" xlink:href="#DejaVuSans-70"/>
    <use x="5750.105469" xlink:href="#DejaVuSans-101"/>
    <use x="5811.628906" xlink:href="#DejaVuSans-97"/>
    <use x="5872.908203" xlink:href="#DejaVuSans-116"/>
    <use x="5912.117188" xlink:href="#DejaVuSans-117"/>
    <use x="5975.496094" xlink:href="#DejaVuSans-114"/>
    <use x="6016.578125" xlink:href="#DejaVuSans-101"/>
    <use x="6078.101562" xlink:href="#DejaVuSans-32"/>
    <use x="6109.888672" xlink:href="#DejaVuSans-86"/>
    <use x="6178.1875" xlink:href="#DejaVuSans-97"/>
    <use x="6239.466797" xlink:href="#DejaVuSans-108"/>
    <use x="6267.25" xlink:href="#DejaVuSans-117"/>
    <use x="6330.628906" xlink:href="#DejaVuSans-101"/>
    <use x="6392.152344" xlink:href="#DejaVuSans-32"/>
    <use x="6423.939453" xlink:href="#DejaVuSans-61"/>
    <use x="6507.728516" xlink:href="#DejaVuSans-32"/>
    <use x="6539.515625" xlink:href="#DejaVuSans-48"/>
    <use x="6603.138672" xlink:href="#DejaVuSans-46"/>
    <use x="6634.925781" xlink:href="#DejaVuSans-50"/>
    <use x="6698.548828" xlink:href="#DejaVuSans-32"/>
    <use x="6730.335938" xlink:href="#DejaVuSans-124"/>
    <use x="6764.027344" xlink:href="#DejaVuSans-32"/>
   </g>
   <!-- Absolute Error = 0.05650633389017121 um^-1 | Pearson Coefficient = 0.7395045162296316 |  -->
   <defs>
    <path d="M 9.8125 72.90625 
L 55.90625 72.90625 
L 55.90625 64.59375 
L 19.671875 64.59375 
L 19.671875 43.015625 
L 54.390625 43.015625 
L 54.390625 34.71875 
L 19.671875 34.71875 
L 19.671875 8.296875 
L 56.78125 8.296875 
L 56.78125 0 
L 9.8125 0 
z
" id="DejaVuSans-69"/>
    <path d="M 33.015625 40.375 
Q 26.375 40.375 22.484375 35.828125 
Q 18.609375 31.296875 18.609375 23.390625 
Q 18.609375 15.53125 22.484375 10.953125 
Q 26.375 6.390625 33.015625 6.390625 
Q 39.65625 6.390625 43.53125 10.953125 
Q 47.40625 15.53125 47.40625 23.390625 
Q 47.40625 31.296875 43.53125 35.828125 
Q 39.65625 40.375 33.015625 40.375 
z
M 52.59375 71.296875 
L 52.59375 62.3125 
Q 48.875 64.0625 45.09375 64.984375 
Q 41.3125 65.921875 37.59375 65.921875 
Q 27.828125 65.921875 22.671875 59.328125 
Q 17.53125 52.734375 16.796875 39.40625 
Q 19.671875 43.65625 24.015625 45.921875 
Q 28.375 48.1875 33.59375 48.1875 
Q 44.578125 48.1875 50.953125 41.515625 
Q 57.328125 34.859375 57.328125 23.390625 
Q 57.328125 12.15625 50.6875 5.359375 
Q 44.046875 -1.421875 33.015625 -1.421875 
Q 20.359375 -1.421875 13.671875 8.265625 
Q 6.984375 17.96875 6.984375 36.375 
Q 6.984375 53.65625 15.1875 63.9375 
Q 23.390625 74.21875 37.203125 74.21875 
Q 40.921875 74.21875 44.703125 73.484375 
Q 48.484375 72.75 52.59375 71.296875 
z
" id="DejaVuSans-54"/>
    <path d="M 40.578125 39.3125 
Q 47.65625 37.796875 51.625 33 
Q 55.609375 28.21875 55.609375 21.1875 
Q 55.609375 10.40625 48.1875 4.484375 
Q 40.765625 -1.421875 27.09375 -1.421875 
Q 22.515625 -1.421875 17.65625 -0.515625 
Q 12.796875 0.390625 7.625 2.203125 
L 7.625 11.71875 
Q 11.71875 9.328125 16.59375 8.109375 
Q 21.484375 6.890625 26.8125 6.890625 
Q 36.078125 6.890625 40.9375 10.546875 
Q 45.796875 14.203125 45.796875 21.1875 
Q 45.796875 27.640625 41.28125 31.265625 
Q 36.765625 34.90625 28.71875 34.90625 
L 20.21875 34.90625 
L 20.21875 43.015625 
L 29.109375 43.015625 
Q 36.375 43.015625 40.234375 45.921875 
Q 44.09375 48.828125 44.09375 54.296875 
Q 44.09375 59.90625 40.109375 62.90625 
Q 36.140625 65.921875 28.71875 65.921875 
Q 24.65625 65.921875 20.015625 65.03125 
Q 15.375 64.15625 9.8125 62.3125 
L 9.8125 71.09375 
Q 15.4375 72.65625 20.34375 73.4375 
Q 25.25 74.21875 29.59375 74.21875 
Q 40.828125 74.21875 47.359375 69.109375 
Q 53.90625 64.015625 53.90625 55.328125 
Q 53.90625 49.265625 50.4375 45.09375 
Q 46.96875 40.921875 40.578125 39.3125 
z
" id="DejaVuSans-51"/>
    <path d="M 31.78125 34.625 
Q 24.75 34.625 20.71875 30.859375 
Q 16.703125 27.09375 16.703125 20.515625 
Q 16.703125 13.921875 20.71875 10.15625 
Q 24.75 6.390625 31.78125 6.390625 
Q 38.8125 6.390625 42.859375 10.171875 
Q 46.921875 13.96875 46.921875 20.515625 
Q 46.921875 27.09375 42.890625 30.859375 
Q 38.875 34.625 31.78125 34.625 
z
M 21.921875 38.8125 
Q 15.578125 40.375 12.03125 44.71875 
Q 8.5 49.078125 8.5 55.328125 
Q 8.5 64.0625 14.71875 69.140625 
Q 20.953125 74.21875 31.78125 74.21875 
Q 42.671875 74.21875 48.875 69.140625 
Q 55.078125 64.0625 55.078125 55.328125 
Q 55.078125 49.078125 51.53125 44.71875 
Q 48 40.375 41.703125 38.8125 
Q 48.828125 37.15625 52.796875 32.3125 
Q 56.78125 27.484375 56.78125 20.515625 
Q 56.78125 9.90625 50.3125 4.234375 
Q 43.84375 -1.421875 31.78125 -1.421875 
Q 19.734375 -1.421875 13.25 4.234375 
Q 6.78125 9.90625 6.78125 20.515625 
Q 6.78125 27.484375 10.78125 32.3125 
Q 14.796875 37.15625 21.921875 38.8125 
z
M 18.3125 54.390625 
Q 18.3125 48.734375 21.84375 45.5625 
Q 25.390625 42.390625 31.78125 42.390625 
Q 38.140625 42.390625 41.71875 45.5625 
Q 45.3125 48.734375 45.3125 54.390625 
Q 45.3125 60.0625 41.71875 63.234375 
Q 38.140625 66.40625 31.78125 66.40625 
Q 25.390625 66.40625 21.84375 63.234375 
Q 18.3125 60.0625 18.3125 54.390625 
z
" id="DejaVuSans-56"/>
    <path d="M 10.984375 1.515625 
L 10.984375 10.5 
Q 14.703125 8.734375 18.5 7.8125 
Q 22.3125 6.890625 25.984375 6.890625 
Q 35.75 6.890625 40.890625 13.453125 
Q 46.046875 20.015625 46.78125 33.40625 
Q 43.953125 29.203125 39.59375 26.953125 
Q 35.25 24.703125 29.984375 24.703125 
Q 19.046875 24.703125 12.671875 31.3125 
Q 6.296875 37.9375 6.296875 49.421875 
Q 6.296875 60.640625 12.9375 67.421875 
Q 19.578125 74.21875 30.609375 74.21875 
Q 43.265625 74.21875 49.921875 64.515625 
Q 56.59375 54.828125 56.59375 36.375 
Q 56.59375 19.140625 48.40625 8.859375 
Q 40.234375 -1.421875 26.421875 -1.421875 
Q 22.703125 -1.421875 18.890625 -0.6875 
Q 15.09375 0.046875 10.984375 1.515625 
z
M 30.609375 32.421875 
Q 37.25 32.421875 41.125 36.953125 
Q 45.015625 41.5 45.015625 49.421875 
Q 45.015625 57.28125 41.125 61.84375 
Q 37.25 66.40625 30.609375 66.40625 
Q 23.96875 66.40625 20.09375 61.84375 
Q 16.21875 57.28125 16.21875 49.421875 
Q 16.21875 41.5 20.09375 36.953125 
Q 23.96875 32.421875 30.609375 32.421875 
z
" id="DejaVuSans-57"/>
    <path d="M 8.203125 72.90625 
L 55.078125 72.90625 
L 55.078125 68.703125 
L 28.609375 0 
L 18.3125 0 
L 43.21875 64.59375 
L 8.203125 64.59375 
z
" id="DejaVuSans-55"/>
    <path d="M 46.6875 72.90625 
L 73.1875 45.703125 
L 63.375 45.703125 
L 41.890625 64.984375 
L 20.40625 45.703125 
L 10.59375 45.703125 
L 37.109375 72.90625 
z
" id="DejaVuSans-94"/>
    <path d="M 4.890625 31.390625 
L 31.203125 31.390625 
L 31.203125 23.390625 
L 4.890625 23.390625 
z
" id="DejaVuSans-45"/>
    <path d="M 19.671875 64.796875 
L 19.671875 37.40625 
L 32.078125 37.40625 
Q 38.96875 37.40625 42.71875 40.96875 
Q 46.484375 44.53125 46.484375 51.125 
Q 46.484375 57.671875 42.71875 61.234375 
Q 38.96875 64.796875 32.078125 64.796875 
z
M 9.8125 72.90625 
L 32.078125 72.90625 
Q 44.34375 72.90625 50.609375 67.359375 
Q 56.890625 61.8125 56.890625 51.125 
Q 56.890625 40.328125 50.609375 34.8125 
Q 44.34375 29.296875 32.078125 29.296875 
L 19.671875 29.296875 
L 19.671875 0 
L 9.8125 0 
z
" id="DejaVuSans-80"/>
    <path d="M 37.109375 75.984375 
L 37.109375 68.5 
L 28.515625 68.5 
Q 23.6875 68.5 21.796875 66.546875 
Q 19.921875 64.59375 19.921875 59.515625 
L 19.921875 54.6875 
L 34.71875 54.6875 
L 34.71875 47.703125 
L 19.921875 47.703125 
L 19.921875 0 
L 10.890625 0 
L 10.890625 47.703125 
L 2.296875 47.703125 
L 2.296875 54.6875 
L 10.890625 54.6875 
L 10.890625 58.5 
Q 10.890625 67.625 15.140625 71.796875 
Q 19.390625 75.984375 28.609375 75.984375 
z
" id="DejaVuSans-102"/>
   </defs>
   <g transform="translate(140.025691 23.039529)scale(0.12 -0.12)">
    <use xlink:href="#DejaVuSans-65"/>
    <use x="68.408203" xlink:href="#DejaVuSans-98"/>
    <use x="131.884766" xlink:href="#DejaVuSans-115"/>
    <use x="183.984375" xlink:href="#DejaVuSans-111"/>
    <use x="245.166016" xlink:href="#DejaVuSans-108"/>
    <use x="272.949219" xlink:href="#DejaVuSans-117"/>
    <use x="336.328125" xlink:href="#DejaVuSans-116"/>
    <use x="375.537109" xlink:href="#DejaVuSans-101"/>
    <use x="437.060547" xlink:href="#DejaVuSans-32"/>
    <use x="468.847656" xlink:href="#DejaVuSans-69"/>
    <use x="532.03125" xlink:href="#DejaVuSans-114"/>
    <use x="573.128906" xlink:href="#DejaVuSans-114"/>
    <use x="614.210938" xlink:href="#DejaVuSans-111"/>
    <use x="675.392578" xlink:href="#DejaVuSans-114"/>
    <use x="716.505859" xlink:href="#DejaVuSans-32"/>
    <use x="748.292969" xlink:href="#DejaVuSans-61"/>
    <use x="832.082031" xlink:href="#DejaVuSans-32"/>
    <use x="863.869141" xlink:href="#DejaVuSans-48"/>
    <use x="927.492188" xlink:href="#DejaVuSans-46"/>
    <use x="959.279297" xlink:href="#DejaVuSans-48"/>
    <use x="1022.902344" xlink:href="#DejaVuSans-53"/>
    <use x="1086.525391" xlink:href="#DejaVuSans-54"/>
    <use x="1150.148438" xlink:href="#DejaVuSans-53"/>
    <use x="1213.771484" xlink:href="#DejaVuSans-48"/>
    <use x="1277.394531" xlink:href="#DejaVuSans-54"/>
    <use x="1341.017578" xlink:href="#DejaVuSans-51"/>
    <use x="1404.640625" xlink:href="#DejaVuSans-51"/>
    <use x="1468.263672" xlink:href="#DejaVuSans-51"/>
    <use x="1531.886719" xlink:href="#DejaVuSans-56"/>
    <use x="1595.509766" xlink:href="#DejaVuSans-57"/>
    <use x="1659.132812" xlink:href="#DejaVuSans-48"/>
    <use x="1722.755859" xlink:href="#DejaVuSans-49"/>
    <use x="1786.378906" xlink:href="#DejaVuSans-55"/>
    <use x="1850.001953" xlink:href="#DejaVuSans-49"/>
    <use x="1913.625" xlink:href="#DejaVuSans-50"/>
    <use x="1977.248047" xlink:href="#DejaVuSans-49"/>
    <use x="2040.871094" xlink:href="#DejaVuSans-32"/>
    <use x="2072.658203" xlink:href="#DejaVuSans-117"/>
    <use x="2136.037109" xlink:href="#DejaVuSans-109"/>
    <use x="2233.449219" xlink:href="#DejaVuSans-94"/>
    <use x="2317.238281" xlink:href="#DejaVuSans-45"/>
    <use x="2353.322266" xlink:href="#DejaVuSans-49"/>
    <use x="2416.945312" xlink:href="#DejaVuSans-32"/>
    <use x="2448.732422" xlink:href="#DejaVuSans-124"/>
    <use x="2482.423828" xlink:href="#DejaVuSans-32"/>
    <use x="2514.210938" xlink:href="#DejaVuSans-80"/>
    <use x="2574.466797" xlink:href="#DejaVuSans-101"/>
    <use x="2635.990234" xlink:href="#DejaVuSans-97"/>
    <use x="2697.269531" xlink:href="#DejaVuSans-114"/>
    <use x="2738.382812" xlink:href="#DejaVuSans-115"/>
    <use x="2790.482422" xlink:href="#DejaVuSans-111"/>
    <use x="2851.664062" xlink:href="#DejaVuSans-110"/>
    <use x="2915.042969" xlink:href="#DejaVuSans-32"/>
    <use x="2946.830078" xlink:href="#DejaVuSans-67"/>
    <use x="3016.654297" xlink:href="#DejaVuSans-111"/>
    <use x="3077.835938" xlink:href="#DejaVuSans-101"/>
    <use x="3139.359375" xlink:href="#DejaVuSans-102"/>
    <use x="3174.564453" xlink:href="#DejaVuSans-102"/>
    <use x="3209.769531" xlink:href="#DejaVuSans-105"/>
    <use x="3237.552734" xlink:href="#DejaVuSans-99"/>
    <use x="3292.533203" xlink:href="#DejaVuSans-105"/>
    <use x="3320.316406" xlink:href="#DejaVuSans-101"/>
    <use x="3381.839844" xlink:href="#DejaVuSans-110"/>
    <use x="3445.21875" xlink:href="#DejaVuSans-116"/>
    <use x="3484.427734" xlink:href="#DejaVuSans-32"/>
    <use x="3516.214844" xlink:href="#DejaVuSans-61"/>
    <use x="3600.003906" xlink:href="#DejaVuSans-32"/>
    <use x="3631.791016" xlink:href="#DejaVuSans-48"/>
    <use x="3695.414062" xlink:href="#DejaVuSans-46"/>
    <use x="3727.201172" xlink:href="#DejaVuSans-55"/>
    <use x="3790.824219" xlink:href="#DejaVuSans-51"/>
    <use x="3854.447266" xlink:href="#DejaVuSans-57"/>
    <use x="3918.070312" xlink:href="#DejaVuSans-53"/>
    <use x="3981.693359" xlink:href="#DejaVuSans-48"/>
    <use x="4045.316406" xlink:href="#DejaVuSans-52"/>
    <use x="4108.939453" xlink:href="#DejaVuSans-53"/>
    <use x="4172.5625" xlink:href="#DejaVuSans-49"/>
    <use x="4236.185547" xlink:href="#DejaVuSans-54"/>
    <use x="4299.808594" xlink:href="#DejaVuSans-50"/>
    <use x="4363.431641" xlink:href="#DejaVuSans-50"/>
    <use x="4427.054688" xlink:href="#DejaVuSans-57"/>
    <use x="4490.677734" xlink:href="#DejaVuSans-54"/>
    <use x="4554.300781" xlink:href="#DejaVuSans-51"/>
    <use x="4617.923828" xlink:href="#DejaVuSans-49"/>
    <use x="4681.546875" xlink:href="#DejaVuSans-54"/>
    <use x="4745.169922" xlink:href="#DejaVuSans-32"/>
    <use x="4776.957031" xlink:href="#DejaVuSans-124"/>
    <use x="4810.648438" xlink:href="#DejaVuSans-32"/>
   </g>
   <!-- Filename = /home/hadim/.data/Postdoc/Kappa/spiral_curve/variable_initial_position/initial_position_noise_0.20_au.tif -->
   <defs>
    <path d="M 25.390625 72.90625 
L 33.6875 72.90625 
L 8.296875 -9.28125 
L 0 -9.28125 
z
" id="DejaVuSans-47"/>
    <path d="M 54.890625 33.015625 
L 54.890625 0 
L 45.90625 0 
L 45.90625 32.71875 
Q 45.90625 40.484375 42.875 44.328125 
Q 39.84375 48.1875 33.796875 48.1875 
Q 26.515625 48.1875 22.3125 43.546875 
Q 18.109375 38.921875 18.109375 30.90625 
L 18.109375 0 
L 9.078125 0 
L 9.078125 75.984375 
L 18.109375 75.984375 
L 18.109375 46.1875 
Q 21.34375 51.125 25.703125 53.5625 
Q 30.078125 56 35.796875 56 
Q 45.21875 56 50.046875 50.171875 
Q 54.890625 44.34375 54.890625 33.015625 
z
" id="DejaVuSans-104"/>
    <path d="M 9.8125 72.90625 
L 19.671875 72.90625 
L 19.671875 42.09375 
L 52.390625 72.90625 
L 65.09375 72.90625 
L 28.90625 38.921875 
L 67.671875 0 
L 54.6875 0 
L 19.671875 35.109375 
L 19.671875 0 
L 9.8125 0 
z
" id="DejaVuSans-75"/>
   </defs>
   <g transform="translate(80.600379 36.810654)scale(0.12 -0.12)">
    <use xlink:href="#DejaVuSans-70"/>
    <use x="57.410156" xlink:href="#DejaVuSans-105"/>
    <use x="85.193359" xlink:href="#DejaVuSans-108"/>
    <use x="112.976562" xlink:href="#DejaVuSans-101"/>
    <use x="174.5" xlink:href="#DejaVuSans-110"/>
    <use x="237.878906" xlink:href="#DejaVuSans-97"/>
    <use x="299.158203" xlink:href="#DejaVuSans-109"/>
    <use x="396.570312" xlink:href="#DejaVuSans-101"/>
    <use x="458.09375" xlink:href="#DejaVuSans-32"/>
    <use x="489.880859" xlink:href="#DejaVuSans-61"/>
    <use x="573.669922" xlink:href="#DejaVuSans-32"/>
    <use x="605.457031" xlink:href="#DejaVuSans-47"/>
    <use x="639.148438" xlink:href="#DejaVuSans-104"/>
    <use x="702.527344" xlink:href="#DejaVuSans-111"/>
    <use x="763.708984" xlink:href="#DejaVuSans-109"/>
    <use x="861.121094" xlink:href="#DejaVuSans-101"/>
    <use x="922.644531" xlink:href="#DejaVuSans-47"/>
    <use x="956.335938" xlink:href="#DejaVuSans-104"/>
    <use x="1019.714844" xlink:href="#DejaVuSans-97"/>
    <use x="1080.994141" xlink:href="#DejaVuSans-100"/>
    <use x="1144.470703" xlink:href="#DejaVuSans-105"/>
    <use x="1172.253906" xlink:href="#DejaVuSans-109"/>
    <use x="1269.666016" xlink:href="#DejaVuSans-47"/>
    <use x="1303.357422" xlink:href="#DejaVuSans-46"/>
    <use x="1335.144531" xlink:href="#DejaVuSans-100"/>
    <use x="1398.621094" xlink:href="#DejaVuSans-97"/>
    <use x="1459.900391" xlink:href="#DejaVuSans-116"/>
    <use x="1499.109375" xlink:href="#DejaVuSans-97"/>
    <use x="1560.388672" xlink:href="#DejaVuSans-47"/>
    <use x="1594.080078" xlink:href="#DejaVuSans-80"/>
    <use x="1654.335938" xlink:href="#DejaVuSans-111"/>
    <use x="1715.517578" xlink:href="#DejaVuSans-115"/>
    <use x="1767.617188" xlink:href="#DejaVuSans-116"/>
    <use x="1806.826172" xlink:href="#DejaVuSans-100"/>
    <use x="1870.302734" xlink:href="#DejaVuSans-111"/>
    <use x="1931.484375" xlink:href="#DejaVuSans-99"/>
    <use x="1986.464844" xlink:href="#DejaVuSans-47"/>
    <use x="2020.15625" xlink:href="#DejaVuSans-75"/>
    <use x="2085.716797" xlink:href="#DejaVuSans-97"/>
    <use x="2146.996094" xlink:href="#DejaVuSans-112"/>
    <use x="2210.472656" xlink:href="#DejaVuSans-112"/>
    <use x="2273.949219" xlink:href="#DejaVuSans-97"/>
    <use x="2335.228516" xlink:href="#DejaVuSans-47"/>
    <use x="2368.919922" xlink:href="#DejaVuSans-115"/>
    <use x="2421.019531" xlink:href="#DejaVuSans-112"/>
    <use x="2484.496094" xlink:href="#DejaVuSans-105"/>
    <use x="2512.279297" xlink:href="#DejaVuSans-114"/>
    <use x="2553.392578" xlink:href="#DejaVuSans-97"/>
    <use x="2614.671875" xlink:href="#DejaVuSans-108"/>
    <use x="2642.455078" xlink:href="#DejaVuSans-95"/>
    <use x="2692.455078" xlink:href="#DejaVuSans-99"/>
    <use x="2747.435547" xlink:href="#DejaVuSans-117"/>
    <use x="2810.814453" xlink:href="#DejaVuSans-114"/>
    <use x="2851.927734" xlink:href="#DejaVuSans-118"/>
    <use x="2911.107422" xlink:href="#DejaVuSans-101"/>
    <use x="2972.630859" xlink:href="#DejaVuSans-47"/>
    <use x="3006.322266" xlink:href="#DejaVuSans-118"/>
    <use x="3065.501953" xlink:href="#DejaVuSans-97"/>
    <use x="3126.78125" xlink:href="#DejaVuSans-114"/>
    <use x="3167.894531" xlink:href="#DejaVuSans-105"/>
    <use x="3195.677734" xlink:href="#DejaVuSans-97"/>
    <use x="3256.957031" xlink:href="#DejaVuSans-98"/>
    <use x="3320.433594" xlink:href="#DejaVuSans-108"/>
    <use x="3348.216797" xlink:href="#DejaVuSans-101"/>
    <use x="3409.740234" xlink:href="#DejaVuSans-95"/>
    <use x="3459.740234" xlink:href="#DejaVuSans-105"/>
    <use x="3487.523438" xlink:href="#DejaVuSans-110"/>
    <use x="3550.902344" xlink:href="#DejaVuSans-105"/>
    <use x="3578.685547" xlink:href="#DejaVuSans-116"/>
    <use x="3617.894531" xlink:href="#DejaVuSans-105"/>
    <use x="3645.677734" xlink:href="#DejaVuSans-97"/>
    <use x="3706.957031" xlink:href="#DejaVuSans-108"/>
    <use x="3734.740234" xlink:href="#DejaVuSans-95"/>
    <use x="3784.740234" xlink:href="#DejaVuSans-112"/>
    <use x="3848.216797" xlink:href="#DejaVuSans-111"/>
    <use x="3909.398438" xlink:href="#DejaVuSans-115"/>
    <use x="3961.498047" xlink:href="#DejaVuSans-105"/>
    <use x="3989.28125" xlink:href="#DejaVuSans-116"/>
    <use x="4028.490234" xlink:href="#DejaVuSans-105"/>
    <use x="4056.273438" xlink:href="#DejaVuSans-111"/>
    <use x="4117.455078" xlink:href="#DejaVuSans-110"/>
    <use x="4180.833984" xlink:href="#DejaVuSans-47"/>
    <use x="4214.525391" xlink:href="#DejaVuSans-105"/>
    <use x="4242.308594" xlink:href="#DejaVuSans-110"/>
    <use x="4305.6875" xlink:href="#DejaVuSans-105"/>
    <use x="4333.470703" xlink:href="#DejaVuSans-116"/>
    <use x="4372.679688" xlink:href="#DejaVuSans-105"/>
    <use x="4400.462891" xlink:href="#DejaVuSans-97"/>
    <use x="4461.742188" xlink:href="#DejaVuSans-108"/>
    <use x="4489.525391" xlink:href="#DejaVuSans-95"/>
    <use x="4539.525391" xlink:href="#DejaVuSans-112"/>
    <use x="4603.001953" xlink:href="#DejaVuSans-111"/>
    <use x="4664.183594" xlink:href="#DejaVuSans-115"/>
    <use x="4716.283203" xlink:href="#DejaVuSans-105"/>
    <use x="4744.066406" xlink:href="#DejaVuSans-116"/>
    <use x="4783.275391" xlink:href="#DejaVuSans-105"/>
    <use x="4811.058594" xlink:href="#DejaVuSans-111"/>
    <use x="4872.240234" xlink:href="#DejaVuSans-110"/>
    <use x="4935.619141" xlink:href="#DejaVuSans-95"/>
    <use x="4985.619141" xlink:href="#DejaVuSans-110"/>
    <use x="5048.998047" xlink:href="#DejaVuSans-111"/>
    <use x="5110.179688" xlink:href="#DejaVuSans-105"/>
    <use x="5137.962891" xlink:href="#DejaVuSans-115"/>
    <use x="5190.0625" xlink:href="#DejaVuSans-101"/>
    <use x="5251.585938" xlink:href="#DejaVuSans-95"/>
    <use x="5301.585938" xlink:href="#DejaVuSans-48"/>
    <use x="5365.208984" xlink:href="#DejaVuSans-46"/>
    <use x="5396.996094" xlink:href="#DejaVuSans-50"/>
    <use x="5460.619141" xlink:href="#DejaVuSans-48"/>
    <use x="5524.242188" xlink:href="#DejaVuSans-95"/>
    <use x="5574.242188" xlink:href="#DejaVuSans-97"/>
    <use x="5635.521484" xlink:href="#DejaVuSans-117"/>
    <use x="5698.900391" xlink:href="#DejaVuSans-46"/>
    <use x="5730.6875" xlink:href="#DejaVuSans-116"/>
    <use x="5769.896484" xlink:href="#DejaVuSans-105"/>
    <use x="5797.679688" xlink:href="#DejaVuSans-102"/>
   </g>
  </g>
 </g>
 <defs>
  <clipPath id="pf3fea9d706">
   <rect height="396.589674" width="244.693642" x="0" y="51.60621"/>
  </clipPath>
  <clipPath id="pb9aee8da6b">
   <rect height="396.589674" width="535.54976" x="468.021941" y="51.60621"/>
  </clipPath>
 </defs>
</svg>
